<svg id="Capa_1" data-name="Capa 1" xmlns="http://www.w3.org/2000/svg" viewBox="0 0 237.42 282.77"><title>After</title><polygon points="96.06 263.59 85.98 270.91 89.81 282.77 79.73 275.44 69.65 282.77 73.53 270.91 63.45 263.59 75.89 263.59 79.73 251.73 83.62 263.59 96.06 263.59"/><polygon points="124.93 270.91 128.77 282.77 118.73 275.44 108.65 282.77 112.49 270.91 102.4 263.59 114.85 263.59 118.73 251.73 122.57 263.59 135.01 263.59 124.93 270.91"/><polygon points="57.1 263.59 47.02 270.91 50.86 282.77 40.77 275.44 30.69 282.77 34.53 270.91 24.5 263.59 36.94 263.59 40.77 251.73 44.61 263.59 57.1 263.59"/><path d="M125.38,62.52c-.19-.78-.49-1-1.18-1H103.4c-.5,0-.79.29-.79,1-.2,5-.49,6.35-1,8.12L73.54,168.86c-.2,1.18,0,1.48,1,1.48H89.08c1,0,1.28-.3,1.48-1.08l7.82-29.56H130.1l8.12,29.65a1.34,1.34,0,0,0,1.48,1H156c.78,0,1-.49.78-1.28Zm-23,61.14c4.09-15.34,9.5-34.92,11.61-46.48h.2c2.46,11.56,9.2,35.51,12,46.48Zm92.23-35c-21.3,0-33.35,19.09-33.35,42.45,0,21.44,9.79,40.72,35.9,40.72,8.12,0,14.61-1.18,19.87-3.73a2.13,2.13,0,0,0,1-2V153.71c0-.88-.49-1-1.18-.69a38.84,38.84,0,0,1-16.14,3c-14.9,0-21.29-8.9-21.54-22.13h25.92a143.36,143.36,0,0,0,16.53-.69,1.46,1.46,0,0,0,1.28-1.28,50.5,50.5,0,0,0,.78-10.47C223.7,106.74,216.18,88.64,194.64,88.64Zm12,31.33c-.49.2-2.26.2-7.33.2H179.39c1-8.81,5-17.07,14.51-17.07,10.33,0,12.88,9.89,12.88,15.2C206.78,118.79,206.59,119.28,206.59,120ZM31.29,8.62V240.08H268.71V8.62ZM258.82,230.2H41.23V18.5H258.82Zm-61.63-58.39c8.12,0,14.61-1.18,19.87-3.73a2.13,2.13,0,0,0,1-2V153.71c0-.88-.49-1-1.18-.69a38.84,38.84,0,0,1-16.14,3c-14.9,0-21.29-8.9-21.54-22.13h25.92a143.36,143.36,0,0,0,16.53-.69,1.46,1.46,0,0,0,1.28-1.28,50.5,50.5,0,0,0,.78-10.47c0-14.76-7.52-32.86-29.06-32.86-21.3,0-33.35,19.09-33.35,42.45C161.29,152.53,171.08,171.81,197.19,171.81ZM193.9,103.1c10.33,0,12.88,9.89,12.88,15.2,0,.49-.19,1-.19,1.67-.49.2-2.26.2-7.33.2H179.39C180.37,111.36,184.41,103.1,193.9,103.1ZM74.52,170.34H89.08c1,0,1.28-.3,1.48-1.08l7.82-29.56H130.1l8.12,29.65a1.34,1.34,0,0,0,1.48,1H156c.78,0,1-.49.78-1.28L125.38,62.52c-.19-.78-.49-1-1.18-1H103.4c-.5,0-.79.29-.79,1-.2,5-.49,6.35-1,8.12L73.54,168.86C73.34,170,73.54,170.34,74.52,170.34ZM114,77.18h.2c2.46,11.56,9.2,35.51,12,46.48H102.41C106.5,108.32,111.91,88.74,114,77.18Zm80.62,11.46c-21.3,0-33.35,19.09-33.35,42.45,0,21.44,9.79,40.72,35.9,40.72,8.12,0,14.61-1.18,19.87-3.73a2.13,2.13,0,0,0,1-2V153.71c0-.88-.49-1-1.18-.69a38.84,38.84,0,0,1-16.14,3c-14.9,0-21.29-8.9-21.54-22.13h25.92a143.36,143.36,0,0,0,16.53-.69,1.46,1.46,0,0,0,1.28-1.28,50.5,50.5,0,0,0,.78-10.47C223.7,106.74,216.18,88.64,194.64,88.64Zm12,31.33c-.49.2-2.26.2-7.33.2H179.39c1-8.81,5-17.07,14.51-17.07,10.33,0,12.88,9.89,12.88,15.2C206.78,118.79,206.59,119.28,206.59,120ZM124.2,61.54H103.4c-.5,0-.79.29-.79,1-.2,5-.49,6.35-1,8.12L73.54,168.86c-.2,1.18,0,1.48,1,1.48H89.08c1,0,1.28-.3,1.48-1.08l7.82-29.56H130.1l8.12,29.65a1.34,1.34,0,0,0,1.48,1H156c.78,0,1-.49.78-1.28L125.38,62.52C125.19,61.74,124.89,61.54,124.2,61.54Zm-21.79,62.12c4.09-15.34,9.5-34.92,11.61-46.48h.2c2.46,11.56,9.2,35.51,12,46.48Z" transform="translate(-31.29 -8.62)"/></svg>