<svg id="Capa_1" data-name="Capa 1" xmlns="http://www.w3.org/2000/svg" viewBox="0 0 176.24 282.77"><title>CSS</title><polygon points="176.24 263.57 176.24 278.4 172.18 275.43 162.09 282.77 165.94 270.91 155.9 263.57 168.33 263.57 172.18 251.76 176.03 263.57 176.24 263.57"/><polygon points="71.58 263.57 61.48 270.91 65.33 282.77 55.29 275.43 45.2 282.77 49.05 270.91 38.96 263.57 51.39 263.57 55.29 251.76 59.14 263.57 71.58 263.57"/><polygon points="149.5 263.57 139.46 270.91 143.31 282.77 133.22 275.43 123.13 282.77 126.97 270.91 116.94 263.57 129.37 263.57 133.22 251.76 137.07 263.57 149.5 263.57"/><polygon points="110.54 263.57 100.45 270.91 104.3 282.77 94.26 275.43 84.16 282.77 88.01 270.91 77.92 263.57 90.41 263.57 94.26 251.76 98.11 263.57 110.54 263.57"/><polygon points="32.62 263.57 22.52 270.91 26.37 282.77 16.28 275.43 6.24 282.77 10.09 270.91 0 263.57 12.43 263.57 16.28 251.76 20.13 263.57 32.62 263.57"/><path d="M128.19,17.51V8.62H103.06V39.83h25.13v-8.9H113.52V17.51Zm20.44-.36h13.63V8.62H133.65V15.9L147.8,31.3H133.65v8.53h29.13V32.54Zm34.38,0h13.63V8.62H168V15.9l14.15,15.4H168v8.53h29.13V32.54Z" transform="translate(-55.88 -8.62)"/><rect x="94.24" y="98.79" width="0.07" height="0.01"/><path d="M68.16,54.08,83,221.47,150,240l67.16-18.57L232.12,54.08ZM204.39,210.81l-54.25,15-54.26-15-12.79-143h134Z" transform="translate(-55.88 -8.62)"/><rect x="94.24" y="98.79" width="0.07" height="0.01"/><polygon points="145.72 78.27 145.23 83.78 140.19 140.35 140.18 140.35 136.69 179.35 136.38 182.82 94.4 194.46 94.4 194.51 94.28 194.51 94.24 194.5 52.22 182.81 49.34 150.57 69.94 150.57 71.4 166.94 94.24 173.12 94.26 173.12 94.3 173.12 94.3 173.1 117.2 166.93 119.59 140.35 94.24 140.35 94.24 140.33 71.64 140.33 71.24 135.72 70.31 125.31 69.82 119.81 121.41 119.81 123.28 98.79 94.24 98.79 94.24 98.8 44.74 98.8 44.32 94.19 43.38 83.78 42.89 78.27 145.72 78.27"/></svg>