<?xml version="1.0" encoding="utf-8"?>
<!-- Generator: Adobe Illustrator 23.0.3, SVG Export Plug-In . SVG Version: 6.00 Build 0)  -->
<svg version="1.1" xmlns="http://www.w3.org/2000/svg" xmlns:xlink="http://www.w3.org/1999/xlink" x="0px" y="0px"
	 viewBox="0 0 792 612" style="enable-background:new 0 0 792 612;" xml:space="preserve">
<style type="text/css">
	.st0{display:none;}
	.st1{display:inline;fill:none;stroke:#000000;stroke-width:0.5;stroke-miterlimit:10;}
	.st2{display:inline;fill:none;stroke:#000000;stroke-width:0.5;}
	.st3{display:inline;}
	.st4{fill:none;stroke:#000000;stroke-width:0.5;}
	.st5{fill:none;stroke:#000000;stroke-width:0.5003;}
	.st6{fill:#62C5E2;}
	.st7{display:inline;fill:#696969;}
	.st8{fill:#696969;}
	.st9{fill:#7C7C7B;}
</style>
<g id="guias" class="st0">
</g>
<g id="Letras" class="st0">
	<path id="C" class="st1" d="M335.83,209.42l48.07,15.24c-7.37,26.8-19.62,46.7-36.76,59.71c-17.14,13.01-38.89,19.51-65.24,19.51
		c-32.61,0-59.41-11.14-80.4-33.41c-20.99-22.28-31.49-52.73-31.49-91.37c0-40.87,10.55-72.61,31.66-95.22
		c21.1-22.61,48.84-34.01,83.23-34.01c30.04,0,54.45,8.97,73.21,26.73c11.16,10.5,19.54,25.57,25.13,45.22l-49.08,11.72
		c-2.9-12.73-8.96-22.78-18.17-30.15c-9.21-7.37-20.41-11.05-33.58-11.05c-18.2,0-32.97,6.53-44.3,19.6
		c-11.33,13.06-17,34.23-17,63.48c0,31.04,5.58,53.15,16.75,66.33c11.16,13.18,25.68,19.76,43.55,19.76c13.17,0,24.51-4.19,34-12.56
		C324.89,240.57,331.7,227.4,335.83,209.42z"/>
	<path id="T" class="st2" d="M480.91,304.11l0.1-212.54h-72.34v-41.7h194.37v41.69l-73.1,0.01l-0.11,212.54H480.91z"/>
	<path id="R" class="st2" d="M170.01,562.95v-245.9h104.5c26.28,0,45.37,2.21,57.28,6.63c11.91,4.42,21.44,12.27,28.6,23.57
		c7.15,11.3,10.73,24.21,10.73,38.75c0,18.45-5.42,33.69-16.27,45.71c-10.85,12.02-27.06,19.6-48.64,22.73
		c10.73,6.26,19.6,13.14,26.59,20.63c6.99,7.49,16.41,20.8,28.26,39.92l30.03,47.97H331.7l-35.9-53.51
		c-12.75-19.12-21.47-31.17-26.17-36.15c-4.7-4.97-9.67-8.39-14.93-10.23c-5.26-1.85-13.59-2.77-24.99-2.77h-10.06v102.66H170.01z
		 M219.65,421.05h36.74c23.82,0,38.69-1.01,44.62-3.02c5.93-2.01,10.57-5.48,13.92-10.4c3.35-4.92,5.03-11.07,5.03-18.45
		c0-8.27-2.21-14.96-6.63-20.05c-4.42-5.09-10.65-8.3-18.7-9.64c-4.03-0.56-16.1-0.84-36.23-0.84h-38.75V421.05z"/>
	<path id="L" class="st2" d="M410.91,562.95V316.69h49.42v205.02h142.7v41.24H410.91z"/>
	<path id="Z" class="st2" d="M170.02,562.95v-93.43l274.93-332.77l-274.93-0.11V49.87h433.02v80.48l-282.6,346.18h282.6v86.43
		H170.02z"/>
</g>
<g id="Composición" class="st0">
	<g id="circulos" class="st3">
		<circle class="st4" cx="184.75" cy="64.39" r="14.46"/>
		<circle class="st4" cx="162.75" cy="93.32" r="14.46"/>
		<circle class="st4" cx="537.95" cy="490.94" r="14.42"/>
		<circle class="st4" cx="646.81" cy="519.77" r="14.42"/>
		<circle class="st4" cx="604.78" cy="519.77" r="14.42"/>
		<circle class="st4" cx="594.7" cy="490.94" r="14.42"/>
		<circle class="st4" cx="636.03" cy="490.94" r="14.42"/>
		<circle class="st4" cx="625.95" cy="548.6" r="14.42"/>
		<circle class="st4" cx="215.31" cy="93.32" r="14.46"/>
		<circle class="st4" cx="181.75" cy="122.25" r="14.46"/>
		<circle class="st4" cx="235.06" cy="122.25" r="14.46"/>
		<circle class="st4" cx="291.8" cy="122.25" r="14.46"/>
	</g>
	<g id="cuadros" class="st3">
		<rect x="184.59" y="49.87" class="st4" width="127.56" height="28.93"/>
		<rect x="215.15" y="78.8" class="st4" width="127.56" height="28.93"/>
		<rect x="181.59" y="107.73" class="st4" width="53.31" height="28.93"/>
		<rect x="291.64" y="107.73" class="st4" width="53.31" height="28.93"/>
		<rect x="469.77" y="476.55" class="st5" width="68.18" height="28.8"/>
		<rect x="536.6" y="505.35" class="st5" width="68.18" height="28.8"/>
		<rect x="557.77" y="534.2" class="st5" width="68.18" height="28.8"/>
		<rect x="594.7" y="476.52" class="st4" width="41.33" height="28.83"/>
	</g>
</g>
<g id="Todos_los_elementos" class="st0">
	<g id="z_1_" class="st3">
		<path class="st6" d="M177.05,93.26c0,5.27-2.82,9.89-7.03,12.41c-2.17,1.31-4.72,2.06-7.43,2.06c-7.99,0-14.47-6.48-14.47-14.47
			c0-7.99,6.48-14.46,14.47-14.46c2.71,0,5.26,0.75,7.43,2.05C174.23,83.38,177.05,87.99,177.05,93.26z"/>
		<path class="st6" d="M636.03,505.35h-31.25c7.95,0,14.4,6.45,14.4,14.4s-6.45,14.4-14.4,14.4h21.17c7.95,0,14.4,6.45,14.4,14.4
			c0,7.96-6.45,14.4-14.4,14.4H170.02v-93.42l274.93-332.77l-100-0.04l-53.26-0.02h-0.1c-7.97-0.03-14.42-6.52-14.42-14.51
			c0-7.66,5.93-13.93,13.43-14.46h-55.69c7.99,0,14.46,6.47,14.46,14.47c0,7.99-6.47,14.46-14.46,14.46h-39.9l-13.06-0.01
			c-0.01,0.01-0.03,0.01-0.05,0.01h-0.01c-0.02,0-0.03,0-0.04-0.01c-0.01,0.01-0.01,0.01-0.01,0.01s0,0-0.01-0.01
			c-0.01,0.01-0.01,0.01-0.01,0.01s0,0-0.01-0.01c-0.01,0.01-0.01,0.01-0.01,0.01s0,0-0.01-0.01h-0.58
			c-4.57-0.11-8.62-2.34-11.19-5.75c-1.83-2.42-2.91-5.43-2.91-8.7c0-3.27,1.08-6.28,2.91-8.7c2.63-3.5,6.83-5.77,11.56-5.77h33.57
			c-7.99,0-14.47-6.48-14.47-14.47c0-7.99,6.48-14.46,14.47-14.46h-30.56c-7.99,0-14.47-6.48-14.47-14.47
			c0-7.98,6.48-14.46,14.47-14.46h418.45v80.48l-282.6,346.18h217.88c7.79,0.19,14.04,6.56,14.04,14.41
			c0,7.96-6.45,14.41-14.41,14.41h56.75c-7.96,0-14.42-6.45-14.42-14.41c0-7.85,6.26-14.22,14.05-14.41h0.74
			c-0.12-0.01-0.25-0.01-0.37-0.01h41.33c7.96,0,14.41,6.45,14.41,14.42C650.44,498.9,643.99,505.35,636.03,505.35z"/>
		<circle class="st6" cx="646.81" cy="519.77" r="14.42"/>
	</g>
	<path id="C_1_" class="st7" d="M335.83,209.42l48.07,15.24c-7.37,26.8-19.62,46.7-36.76,59.71
		c-17.14,13.01-38.89,19.51-65.24,19.51c-32.61,0-59.41-11.14-80.4-33.41c-20.99-22.28-31.49-52.73-31.49-91.37
		c0-40.87,10.55-72.61,31.66-95.22c21.1-22.61,48.84-34.01,83.23-34.01c30.04,0,54.45,8.97,73.21,26.73
		c11.16,10.5,19.54,25.57,25.13,45.22l-49.08,11.72c-2.9-12.73-8.96-22.78-18.17-30.15c-9.21-7.37-20.41-11.05-33.58-11.05
		c-18.2,0-32.97,6.53-44.3,19.6c-11.33,13.06-17,34.23-17,63.48c0,31.04,5.58,53.15,16.75,66.33
		c11.16,13.18,25.68,19.76,43.55,19.76c13.17,0,24.51-4.19,34-12.56C324.89,240.57,331.7,227.4,335.83,209.42z"/>
	<path id="T_1_" class="st7" d="M480.91,304.11l0.1-212.54h-72.34v-41.7h194.37v41.69l-73.1,0.01l-0.11,212.54H480.91z"/>
	<path id="R_1_" class="st7" d="M170.01,562.95v-245.9h104.5c26.28,0,45.37,2.21,57.28,6.63c11.91,4.42,21.44,12.27,28.6,23.57
		c7.15,11.3,10.73,24.21,10.73,38.75c0,18.45-5.42,33.69-16.27,45.71c-10.85,12.02-27.06,19.6-48.64,22.73
		c10.73,6.26,19.6,13.14,26.59,20.63c6.99,7.49,16.41,20.8,28.26,39.92l30.03,47.97H331.7l-35.9-53.51
		c-12.75-19.12-21.47-31.17-26.17-36.15c-4.7-4.97-9.67-8.39-14.93-10.23c-5.26-1.85-13.59-2.77-24.99-2.77h-10.06v102.66H170.01z
		 M219.65,421.05h36.74c23.82,0,38.69-1.01,44.62-3.02c5.93-2.01,10.57-5.48,13.92-10.4c3.35-4.92,5.03-11.07,5.03-18.45
		c0-8.27-2.21-14.96-6.63-20.05c-4.42-5.09-10.65-8.3-18.7-9.64c-4.03-0.56-16.1-0.84-36.23-0.84h-38.75V421.05z"/>
	<path id="L_1_" class="st7" d="M410.91,562.95V316.69h49.42v205.02h142.7v41.24H410.91z"/>
</g>
<g id="Logo">
	<g id="z">
		<path class="st6" d="M177.05,93.26c0,5.27-2.82,9.89-7.03,12.41c-2.17,1.31-4.72,2.06-7.43,2.06c-7.99,0-14.47-6.48-14.47-14.47
			c0-7.99,6.48-14.46,14.47-14.46c2.71,0,5.26,0.75,7.43,2.05C174.23,83.38,177.05,87.99,177.05,93.26z"/>
		<path class="st6" d="M170.02,130.9c-1.83-2.42-2.91-5.43-2.91-8.7c0-3.27,1.08-6.28,2.91-8.7c2.63-3.5,6.83-5.77,11.56-5.77h3.41
			c-4.27,8.32-7.62,17.43-10.06,27.32C173,134.05,171.32,132.63,170.02,130.9z"/>
		<path class="st6" d="M234.91,136.66h-9.3c2.83-10.15,7-18.38,12.49-24.72c0.88-1.02,1.79-2,2.72-2.94
			c5.04,2.25,8.55,7.31,8.55,13.2C249.37,130.19,242.9,136.66,234.91,136.66z"/>
		<path class="st6" d="M184.59,49.87H284.9c-31.71,0-57.76,9.69-78.17,28.93h-22.14c-7.99,0-14.47-6.48-14.47-14.47
			C170.12,56.35,176.6,49.87,184.59,49.87z"/>
		<polygon class="st6" points="603.04,130.35 529.87,219.98 529.94,91.57 603.04,91.56 		"/>
		<path class="st6" d="M256.39,421.05h-36.74v-11.59l41.97-50.81c18.2,0.03,29.21,0.31,33.01,0.84c8.06,1.34,14.29,4.56,18.71,9.64
			c4.41,5.09,6.62,11.77,6.62,20.05c0,7.38-1.68,13.53-5.03,18.45c-3.35,4.92-8,8.39-13.92,10.4
			C295.08,420.04,280.21,421.05,256.39,421.05z"/>
		<path class="st6" d="M295.81,509.45l35.89,53.5H219.65V460.3h10.07c11.41,0,19.74,0.92,24.99,2.77
			c5.26,1.84,10.23,5.25,14.93,10.23S283.06,490.32,295.81,509.45z"/>
		<path class="st6" d="M481.01,91.57l-0.09,188.37l-30,36.75h-40.01v49.02l-84.33,103.3c-5.81-5.19-12.6-10.05-20.37-14.58
			c21.58-3.13,37.79-10.71,48.64-22.73c10.85-12.02,16.27-27.26,16.27-45.71c0-14.53-3.58-27.45-10.73-38.75
			c-7.16-11.29-16.69-19.14-28.6-23.56c-8.46-3.14-20.54-5.16-36.25-6.07l13.51-16.36c14.55-3.01,27.24-8.65,38.09-16.88
			c17.14-13,29.39-32.91,36.76-59.71l-9.17-2.91l70.22-84.99l-100-0.04l-53.26-0.02h-0.1c-7.97-0.03-14.42-6.52-14.42-14.51
			c0-7.66,5.93-13.93,13.43-14.46h-48.49c10.73-10.26,24.17-15.39,40.29-15.39c13.18,0,24.37,3.69,33.59,11.06
			c9.21,7.37,15.26,17.42,18.17,30.14l49.07-11.72c-5.58-19.65-13.96-34.73-25.12-45.22c-18.76-17.76-43.17-26.73-73.21-26.73
			h123.77v41.7H481.01z"/>
		<path class="st6" d="M334.13,476.53h76.78v86.42h-19.83l-30.02-47.97C349.94,497.06,340.97,484.24,334.13,476.53z"/>
		<path class="st6" d="M636.03,505.35h-31.25c7.95,0,14.4,6.45,14.4,14.4s-6.45,14.4-14.4,14.4h21.17c7.95,0,14.4,6.45,14.4,14.4
			c0,7.96-6.45,14.4-14.4,14.4h-22.91v-41.24H460.33v-45.18h77.99c7.79,0.19,14.04,6.56,14.04,14.41c0,7.96-6.45,14.41-14.41,14.41
			h56.75c-7.96,0-14.42-6.45-14.42-14.41c0-7.85,6.26-14.22,14.05-14.41h0.74c-0.12-0.01-0.25-0.01-0.37-0.01h41.33
			c7.96,0,14.41,6.45,14.41,14.42C650.44,498.9,643.99,505.35,636.03,505.35z"/>
		<circle class="st6" cx="646.81" cy="519.77" r="14.42"/>
	</g>
	<g id="letras">
		<path id="C_2_" class="st8" d="M200.68,93.26c0-7.99,6.48-14.46,14.47-14.46h-8.42c-1.73,1.62-3.41,3.32-5.06,5.08
			c-6.59,7.06-12.15,15.01-16.68,23.85h30.16C207.16,107.73,200.68,101.25,200.68,93.26z M234.91,107.73c2.1,0,4.11,0.45,5.91,1.27
			c0.42-0.44,0.85-0.86,1.29-1.27H234.91z M335.83,209.42c-4.13,17.98-10.94,31.15-20.43,39.53c-9.49,8.37-20.83,12.56-34,12.56
			c-17.87,0-32.39-6.59-43.55-19.76c-11.17-13.18-16.75-35.29-16.75-66.33c0-15.07,1.5-27.98,4.51-38.76h-30.6l-13.06-0.01
			c-0.01,0.01-0.03,0.01-0.05,0.01h-0.01c-0.02,0-0.03,0-0.04-0.01c-0.01,0.01-0.01,0.01-0.01,0.01s0,0-0.01-0.01
			c-0.01,0.01-0.01,0.01-0.01,0.01s0,0-0.01-0.01c-0.01,0.01-0.01,0.01-0.01,0.01s0,0-0.01-0.01h-0.58
			c-2.26-0.05-4.39-0.63-6.28-1.6c-3.28,13.27-4.92,27.95-4.92,44.05c0,38.64,10.5,69.09,31.49,91.37
			c20.99,22.28,47.79,33.42,80.4,33.42c9.68,0,18.73-0.88,27.15-2.64l65.68-79.5L335.83,209.42z"/>
		<polygon id="T_2_" class="st8" points="529.87,219.98 529.83,304.11 480.91,304.11 480.92,279.94 		"/>
		<path id="R_2_" class="st8" d="M332.79,475.06c-1.92-2.06-3.99-4.08-6.21-6.05l-6.14,7.52h13.69
			C333.67,476.02,333.23,475.53,332.79,475.06z M170.01,317.05v245.9h0.01v-93.42l49.63-60.07v-50.81h41.97l33.92-41.04
			c-6.41-0.38-13.42-0.56-21.03-0.56H170.01z"/>
		<path id="L_2_" class="st8" d="M450.92,316.69l-40.01,49.02v110.82h49.42V316.69H450.92z"/>
	</g>
	<g id="sombra">
		<path class="st9" d="M383.9,224.66c-7.37,26.8-19.62,46.71-36.76,59.71c-10.85,8.23-23.54,13.87-38.09,16.88l65.68-79.5
			L383.9,224.66z"/>
		<path class="st9" d="M383.23,121.82l-49.07,11.72c-2.91-12.72-8.96-22.77-18.17-30.14c-9.22-7.37-20.41-11.06-33.59-11.06
			c-16.12,0-29.56,5.13-40.29,15.39h-7.2c2.1,0,4.11,0.45,5.91,1.27c-0.93,0.94-1.84,1.92-2.72,2.94
			c-5.49,6.34-9.66,14.57-12.49,24.72h-30.6l-13.06-0.01c-0.01,0.01-0.03,0.01-0.05,0.01h-0.01c-0.02,0-0.03,0-0.04-0.01
			c-0.01,0.01-0.01,0.01-0.01,0.01s0,0-0.01-0.01c-0.01,0.01-0.01,0.01-0.01,0.01s0,0-0.01-0.01c-0.01,0.01-0.01,0.01-0.01,0.01
			s0,0-0.01-0.01h-0.58c-2.26-0.05-4.39-0.63-6.28-1.6c2.44-9.89,5.79-19,10.06-27.32h30.16c-7.99,0-14.47-6.48-14.47-14.47
			c0-7.99,6.48-14.46,14.47-14.46h-8.42c20.41-19.24,46.46-28.93,78.17-28.93c30.04,0,54.45,8.97,73.21,26.73
			C369.27,87.09,377.65,102.17,383.23,121.82z"/>
		<polygon class="st9" points="603.04,49.87 603.04,91.56 529.94,91.57 529.87,219.98 480.92,279.94 481.01,91.57 408.67,91.57 
			408.67,49.87 		"/>
		<path class="st9" d="M391.08,562.95H331.7l-35.89-53.5c-12.75-19.13-21.47-31.17-26.17-36.15s-9.67-8.39-14.93-10.23
			c-5.25-1.85-13.58-2.77-24.99-2.77h-10.07v102.65h-49.63v-93.42l49.63-60.07v11.59h36.74c23.82,0,38.69-1.01,44.62-3.02
			c5.92-2.01,10.57-5.48,13.92-10.4c3.35-4.92,5.03-11.07,5.03-18.45c0-8.28-2.21-14.96-6.62-20.05c-4.42-5.08-10.65-8.3-18.71-9.64
			c-3.8-0.53-14.81-0.81-33.01-0.84l33.92-41.04c15.71,0.91,27.79,2.93,36.25,6.07c11.91,4.42,21.44,12.27,28.6,23.56
			c7.15,11.3,10.73,24.22,10.73,38.75c0,18.45-5.42,33.69-16.27,45.71c-10.85,12.02-27.06,19.6-48.64,22.73
			c7.77,4.53,14.56,9.39,20.37,14.58l-6.14,7.52h13.69c6.84,7.71,15.81,20.53,26.93,38.45L391.08,562.95z"/>
		<polygon class="st9" points="603.04,521.71 603.04,562.95 410.91,562.95 410.91,476.53 460.33,476.53 460.33,521.71 		"/>
		<polygon class="st9" points="450.92,316.69 410.91,365.71 410.91,316.69 		"/>
	</g>
</g>
</svg>
