<svg id="Capa_1" data-name="Capa 1" xmlns="http://www.w3.org/2000/svg" viewBox="0 0 232.97 282.77"><title>DreamWeaver</title><polygon points="194.64 251.64 194.64 275.42 184.52 282.77 188.42 270.88 178.31 263.53 190.79 263.53 194.64 251.64"/><polygon points="171.94 263.53 161.83 270.88 165.68 282.77 155.57 275.42 145.45 282.77 149.3 270.88 139.24 263.53 151.72 263.53 155.57 251.64 159.41 263.53 171.94 263.53"/><polygon points="54.69 263.53 44.57 270.88 48.42 282.77 38.31 275.42 28.2 282.77 32.09 270.88 21.98 263.53 34.46 263.53 38.31 251.64 42.2 263.53 54.69 263.53"/><polygon points="132.82 263.53 122.71 270.88 126.61 282.77 116.5 275.42 106.38 282.77 110.23 270.88 100.12 263.53 112.65 263.53 116.5 251.64 120.34 263.53 132.82 263.53"/><polygon points="93.75 263.53 83.64 270.88 87.49 282.77 77.43 275.42 67.31 282.77 71.16 270.88 61.05 263.53 73.53 263.53 77.43 251.64 81.28 263.53 93.75 263.53"/><path d="M33.51,8.62V239.94h233V8.62ZM256.27,229.8H43.79v-211H256.27Z" transform="translate(-33.51 -8.62)"/><path d="M65.11,65.66c0-.64.13-1,1-1.15,8-.31,18-.5,26.68-.5,30.19,0,45.38,20.53,45.38,51.08,0,45.38-29.94,53.49-48.07,53.49-9.51,0-16.4-.19-24.06-.32-.64,0-1-.31-1-1.45V65.66Zm16.15,87.71c2.42.19,5.61.19,9.32.19,18.7,0,31-11.6,31-37.9,0-24-10.53-36.31-28.85-36.31-6,0-10.27.19-11.49.31v73.71Z" transform="translate(-33.51 -8.62)"/><path d="M206,169.35c-.9,0-1.15-.32-1.47-1.28-7.34-35.74-9.83-49.21-11.17-56.74h-.13c-1.34,8-4.47,22.27-12.7,56.74-.26,1-.64,1.28-1.47,1.28H164.46c-1.15,0-1.47-.51-1.73-1.47L145.56,92.69c-.25-.83,0-1.28.77-1.28h14c.77,0,1,.19,1.15,1,8.94,41.49,10.79,53.23,11.68,59h.26c.51-2.75,3.83-19.41,12.44-58.66.13-1,.26-1.28,1.15-1.28h14c.64,0,.9.32,1,1,8.55,40.85,10.59,53.68,11.55,59.49h.25c1.6-9.45,4.09-24.83,12.2-59.3.12-.83.51-1.15,1-1.15h13c.51,0,.9.32.77,1.15l-19,75.51c-.26,1-.38,1.28-1.47,1.28Z" transform="translate(-33.51 -8.62)"/></svg>