<svg xmlns="http://www.w3.org/2000/svg" viewBox="0 0 1920.31 184.86"><defs><style>.cls-1{fill:#474747;}.cls-2{fill:#282828;}</style></defs><title>fondo_deco</title><g id="Capa_3" data-name="Capa 3"><path class="cls-1" d="M132.72,148.8c0,1.09.11,2.18.23,3.27C132.89,151,132.81,149.89,132.72,148.8Z" transform="translate(0 0.29)"/><path class="cls-1" d="M1218.49,116l-1,8A36.69,36.69,0,0,0,1218.49,116Z" transform="translate(0 0.29)"/><path class="cls-1" d="M1876.22,171.86a37.39,37.39,0,0,0-1.48,5A42.31,42.31,0,0,0,1876.22,171.86Z" transform="translate(0 0.29)"/><path class="cls-1" d="M1920.31,102.1c-.09.39-.19.78-.31,1.16V138a65.76,65.76,0,0,0-9.6,19.74l-4.14-11.59a31.28,31.28,0,0,0-8.12,21.61l-3.81-11.69a36.54,36.54,0,0,0-8.95,16.29,9.93,9.93,0,0,0-4.25-9.82,37.92,37.92,0,0,0-4.91,9.29,43.72,43.72,0,0,0,.7-15.38,65.71,65.71,0,0,1-24.6,28.09Q1851,172,1849.79,159.5c-.35,2.18-.71,4.35-1.06,6.53q-5.57-9-11.14-17.89c-.45,2.9-.91,5.81-1.36,8.72l-4.86-8.34q.68,6.48,1.33,13L1820.53,146a30.25,30.25,0,0,0-2,21.52,78.53,78.53,0,0,0-21-23.35q-1.26,11.73-2.5,23.46a50.1,50.1,0,0,0-3.73-15.86,27.35,27.35,0,0,0-10,12.23l-6.65-12.15a59.06,59.06,0,0,1-15.77,12.39l-1.62-17.29a20.59,20.59,0,0,0-13.82,17.31,25.87,25.87,0,0,0-5.23-15.47,20.14,20.14,0,0,0-6.29,11.94A149.94,149.94,0,0,1,1719,132.05q-2,7-4.09,13.94L1711,127.61c-.08,2.67-.16,5.33-.23,8a84.08,84.08,0,0,0-5-21.11,61.05,61.05,0,0,0-8.87,27.62,199,199,0,0,1-9-39,49.27,49.27,0,0,0-15.6,37.4l-23.5-20.16c.06,3.36.11,6.72.17,10.08A55.4,55.4,0,0,1,1637.11,108a45.42,45.42,0,0,0-.79,15.68q-2-6.63-4-13.27a36.63,36.63,0,0,0-7.57,19.84,29,29,0,0,1-7.34-17.13l-4.26,21.37-8.52-25.32q-1.08,5.38-2.15,10.75a57.82,57.82,0,0,1-7.18-17.14q-2.12,6.26-4.24,12.49-3.62-10.87-7.24-21.75-.39,6.65-.79,13.29-3.15-7.87-6.31-15.75a47.14,47.14,0,0,0-7.55,15.52q-2.27-7.8-4.51-15.6l-1.05,15.78q-4.59-17.11-9.16-34.22a432.37,432.37,0,0,1-20.54,76.88q-3.35-11.07-6.7-22.13-2.31,6.6-4.6,13.2l-4.32-18.12-3.78,21a86.85,86.85,0,0,0-7.09-19.91,40.89,40.89,0,0,0-4.3,22.14,542.71,542.71,0,0,1-14.67-56.83,87.33,87.33,0,0,0-10.61,36.58q-2.36-11.16-4.72-22.32a38.73,38.73,0,0,0-7.59,18.24,28.53,28.53,0,0,1-3.88-12.77,54.47,54.47,0,0,0-14.08,20.34q-2.77-9.74-5.56-19.45a20,20,0,0,0-8.89,12.05l-7.2-19.36-9.72,17.76a35.66,35.66,0,0,1-3.49-19.75,16.85,16.85,0,0,0-4.94,7.67q-2.37-8.3-4.76-16.59l-6.7,16.18-6.55-19.47-8.13,19.94q-2-10.16-4-20.31a35.77,35.77,0,0,0-7.84,16.85,34.41,34.41,0,0,1-5.38-14.36,68.75,68.75,0,0,0-6.79,20.16,68.82,68.82,0,0,0-3-26.67c0,1-15.83,21.35-17.3,23.81a57.19,57.19,0,0,1-5.4-16.64l-3-3.7-11,25.44q-3.81-13-7.6-26l-10.86,22.91q-2.82-12.16-5.66-24.32l-6,27q-1.56-11.49-3.1-23a65.92,65.92,0,0,0-8,24.61,123,123,0,0,1-.64-25.08,64.87,64.87,0,0,0-12.21,35.5,129.12,129.12,0,0,0-8.5-22.23,39.29,39.29,0,0,0-2.68,15.61,161.87,161.87,0,0,0-8.78-33.74q1.24,18.66,2.5,37.32a135.68,135.68,0,0,1-18.69-39.85l3.24,39.82L1228,98a103.83,103.83,0,0,1-1.67,27.43,120.12,120.12,0,0,1-5.53-28.66l-2.28,19.3a39.94,39.94,0,0,0-7.23-23.38,35.27,35.27,0,0,0-2.83-3.53c-.28-.32-.58-.63-.88-.94a259.87,259.87,0,0,1-2.7,55.87,39.18,39.18,0,0,1-8.58-22.94,35,35,0,0,1-6.06,16.12,276.37,276.37,0,0,1-7.44-29.17L1180,124.44l-4.29-25.67-9,24.84q-2.91-11.16-5.83-22.31l-9.09,26.22q-2.41-12.28-4.82-24.57a58.58,58.58,0,0,0-8.43,19.54l-7.54-15.27L1123.23,121q-1.07-9.44-2.14-18.85c-5.2,9.76-10,20-15.93,29.31a65,65,0,0,1-4.82-26.7c-.24-.3-.47-.59-.71-.87a32.79,32.79,0,0,0-7.26,18.48q-3.64-10.21-7.3-20.44-2.21,8.76-4.39,17.52-2-7-4-14-.87,7.35-1.75,14.69a82.66,82.66,0,0,1-9.68-19.21A73.06,73.06,0,0,0,1054.14,124l-5-8.18a35.79,35.79,0,0,0-1.53,19.63q-2.84-13.06-5.69-26.11-2.68,7.22-5.36,14.43a50,50,0,0,0-6.89-16.08q-4.28,13.11-8.53,26.23a66.17,66.17,0,0,0-8.49-15.72l-3.06,17q-2.61-12.66-5.21-25.34a168.19,168.19,0,0,0-7.83,32q-2.93-11.82-5.84-23.63l-6.33,21.28q-3.54-11.22-7.07-22.45-3.6,13.9-7.21,27.82l-9.65-29.69A180.53,180.53,0,0,0,958,146.4a205,205,0,0,1-15.66-35.89q-1.8,10.33-3.58,20.67a52.42,52.42,0,0,0-1.66-20.36,45.83,45.83,0,0,0-8.91,20.72l-5.37-14.44A68.36,68.36,0,0,0,917.59,138Q915.78,127.6,914,117.2l-10.8,23.65q-1.77-10-3.55-20l-7.41,20.61a72.66,72.66,0,0,0-1.61-25.95l-12.27,26.22-.21-46.12q-2.64,12.36-5.26,24.73a18.94,18.94,0,0,0-2-13.51l-7.35,18.08-5.29-7.29-3.48,10.82a41.13,41.13,0,0,0-7.12-20.33l-.78,14c.36-6.54-1.62-12.36-4.3-17.81-1.2,7.26-1.9,14.51-1,21.8l-9.42-5.63a110.94,110.94,0,0,0-1.79,30.75q-4.71-14.7-9.43-29.4a58.85,58.85,0,0,0-5.68,21.77l-6.75-23.86a60.79,60.79,0,0,0-5.21,25.07l-5.55-17.56A49.58,49.58,0,0,0,786.09,156q-2.91-15.78-5.81-31.57A70.46,70.46,0,0,0,773.87,146q-2.61-13-5.21-26a105.45,105.45,0,0,0-8.25,27.22q-2.16-12.52-4.31-25.06l-8,25.08q-1.92-16.56-3.85-33.12-2.82,13.88-5.63,27.76a112.23,112.23,0,0,0-5-28.69q-2,11-4,22a196.77,196.77,0,0,0-9.2-32.28,93.32,93.32,0,0,0-4,28.66L706.15,102a188,188,0,0,0-1.3,29.15l-5-19q-.08,12.09-.16,24.19a33.5,33.5,0,0,0-11.21-19.39q-.69,15-1.4,30a174.41,174.41,0,0,0-8.26-36.16,266.91,266.91,0,0,0-5.91,40,261.07,261.07,0,0,0-12.58-42.61,191.7,191.7,0,0,0-4.4,41.36l-11.16-35a255.23,255.23,0,0,0-4.22,40.05q-2.09-13.18-4.18-26.37a50.1,50.1,0,0,0-7.58,24.91l-5.52-27q-7.43,10.9-14.86,21.82a124,124,0,0,0-1.51-27.75,50.44,50.44,0,0,0-10.14,21.35l-2.91-20.18-3.75,11.06a58.15,58.15,0,0,0-3.42-16.65L582.12,135l-4.5-17.54-5.91,11.35q-2.52-11.82-5-23.65-4.23,9.38-8.47,18.76a46.13,46.13,0,0,1-5.74-5.37A103.9,103.9,0,0,1,551,138l-9.75-10.83A73.15,73.15,0,0,1,540,146.56q-1.28-13.16-2.54-26.32a42.37,42.37,0,0,0-11,24.49,84.64,84.64,0,0,1-4.4-22.22q-1.51,11.38-3,22.76a113.9,113.9,0,0,0-1.1-26.28,56.88,56.88,0,0,0-5.18,21.79l-1-18.3q-1.92,6.52-3.83,13a137.57,137.57,0,0,1-1.95-27.71,264.67,264.67,0,0,0-13.64,45.36q-4.21-18.4-8.44-36.8a33,33,0,0,0-2.15,17.36,87.69,87.69,0,0,0-7.55-24.6l-1.53,13a53,53,0,0,0-6.83-21,46.89,46.89,0,0,0-5.13,21.45q-2.3-11.17-4.58-22.34-2.18,6.2-4.34,12.38-2.29-5.58-4.6-11.16A87.68,87.68,0,0,1,441.31,130l-4.87-9.2a159.64,159.64,0,0,0-6.1,29.59A72.51,72.51,0,0,0,423,129.85a43.72,43.72,0,0,0-2.21,15.48l-4.65-15.48a106.87,106.87,0,0,0-1.91,25.62q-3.22-9.45-6.43-18.9,0,10.25.05,20.48l-7.68-30.11.15,56.14a185.39,185.39,0,0,1-9.47-27.51q-2.46,12.5-4.93,25-4.86-19.09-9.71-38.21-2.16,11.82-4.34,23.62-3-16.25-6-32.5-3.36,11.81-6.73,23.63A190.06,190.06,0,0,0,353,120.65a176.42,176.42,0,0,0-6.84,38.95,154,154,0,0,0-8.27-32.38,175.58,175.58,0,0,0-7.09,31.63q-3.84-12.82-7.67-25.63l-3,19.5-2.82-20q-6.6,15-13.21,30A148.11,148.11,0,0,0,300.19,141a20.24,20.24,0,0,0-5.87,18.4l-8.55-26A36.57,36.57,0,0,0,280,155.42a54.32,54.32,0,0,0-10.48-15.48q-1,9.78-2.08,19.57l-7.11-20.12q-3.15,12.24-6.31,24.46c.66-2.56.32-5.64-.58-9-.16,1-.32,2-.51,3.05a44.85,44.85,0,0,1-9-24.48q0,15,0,30.06l-8.07-13.34q-1.25,5.51-2.48,11-4.47-9.1-8.93-18.23-.64,6.6-1.28,13.19-3.33-8.55-6.65-17.12a103.64,103.64,0,0,0-2.18,22.42l-11.83-21q-1.42,8.33-2.84,16.66-1-13.31-2-26.62a90.44,90.44,0,0,0-10.88,51.57,176.47,176.47,0,0,1-14.07-48.5,48.53,48.53,0,0,0-2.5,20.84,105.58,105.58,0,0,0-9.37-26,47.43,47.43,0,0,0-4.47,27.75q-3.52-13.47-7-26.94Q147,146,144.66,162.72q-4.36-15.74-8.74-31.46a41.51,41.51,0,0,0-3.2,17.54,144.11,144.11,0,0,0-4.66-26.57,54.64,54.64,0,0,0-4.09,25q-1.93-15.68-3.88-31.35l-6.15,36.44q-3.78-21.65-7.58-43.28-3.4,15.78-6.82,31.58A104.29,104.29,0,0,0,94.24,114a85.21,85.21,0,0,0-4.08,27.55q-4.48-13.53-9-27a117.73,117.73,0,0,0-5.07,25.69,120,120,0,0,0-4.25-24.23,128.55,128.55,0,0,0-4.34,28.38q-3.59-9.08-7.16-18.14l-3.93,24.21q-2.67-20.44-5.35-40.89l-5,41.42-8.43-26.08A77.2,77.2,0,0,0,36.13,148q-1.25-8.7-2.48-17.4l-7.29,19.06Q22,128.89,17.61,108.15l-2.22,9.71A51.21,51.21,0,0,0,8,93.76L4.88,116.23A40.83,40.83,0,0,0,.24,97.86L0,104.71V45.51Q2,44,4,42.56c.83-.59,1.67-1.17,2.53-1.73s2-1.31,3-1.95l1.25-.8c.53-.33,1.06-.67,1.6-1C15.73,35,19.1,33,22.25,31.17c4.49-2.61,8.54-4.94,11.53-6.9C40.42,19.92,47.27,15.63,55,13.65,75.07,8.48,95.5,20,116.23,21.26c8.09.48,16.2-.61,24.29-2.3,20.63-4.3,41.12-12.47,60.79-8.36a48.54,48.54,0,0,1,6.17,1.72c12.13,4.28,21.16,13.06,27.88,24q.69,1.13,1.35,2.28A99.06,99.06,0,0,1,242.25,50a154.39,154.39,0,0,1,8.45,29.48c.33,1.75.65,3.49,1,5.25,1.68-3.69,3.47-7.25,5.27-10.63a133.54,133.54,0,0,1,12.43-19.38,90.32,90.32,0,0,1,9.12-10.17,71.1,71.1,0,0,1,6.38-5.44A54.21,54.21,0,0,1,307,28.84c7.3-1.46,14.81-1.2,22.25-1.05q20.76.42,41.52-.32l1,0q35.42-1.29,70.62-6c12.32-1.63,24.83-3.57,37.09-1.55,14.64,2.4,27.94,10.37,38.79,20.48q2.68,2.51,5.17,5.19a107.66,107.66,0,0,1,19.5,29.76,68.36,68.36,0,0,1,13.65-27.5A61.67,61.67,0,0,1,568,37.09c11.69-8.47,26.38-10.7,41-11.5q3.12-.16,6.23-.27l4.44-.13,72.65-1.94,2.63-.07L709,22.8c4.1-.11,8.31-.2,12.18,1.16a26.28,26.28,0,0,1,9.05,6c1.56,1.45,3.07,3,4.61,4.46.72.7,1.45,1.39,2.2,2l.53.46c1,.84,2,1.64,3.07,2.4a46.82,46.82,0,0,0,9.62,5.27,48.34,48.34,0,0,0,8.16,2.49,47.17,47.17,0,0,0,16.79.52,41.84,41.84,0,0,0,4.43-.89,64.1,64.1,0,0,0,6.92-2.25l1-.37c5-2,10-4.38,15-6.38,8.06-3.26,16.09-5.45,24.27-3a24.15,24.15,0,0,1,12,8.18,25.44,25.44,0,0,1,2,2.68,35.31,35.31,0,0,1,3,5.61s0,0,0,0c.47,1.11.89,2.24,1.27,3.4a54.45,54.45,0,0,1,8.12-4.91c1.06-.53,2.13-1,3.22-1.5a94.9,94.9,0,0,1,8.89-3.35c.95-.32,1.91-.62,2.87-.91s2.05-.62,3.08-.91l1.76-.51c1.19-.34,2.39-.67,3.59-1q6.72-1.84,13.51-3.44,11.21-2.67,22.56-4.69c18.42-3.29,37.44-5.3,55.77-1.53,8.17,1.68,16.08,4.48,24,7.18,2,.67,3.95,1.34,5.93,2l.38.13c4,1.29,8.07,2.48,12.18,3.4l1.24.26c1.77.37,3.55.69,5.34.94,1.48.21,3,.37,4.44.49a82.66,82.66,0,0,0,9.95.19q3.92-.15,7.81-.65a123.88,123.88,0,0,0,19.05-4c4.56-1.31,9.07-2.83,13.53-4.48,2.06-.76,4.11-1.55,6.14-2.35l3.83-1.56,1.14-.47c3.78-1.57,7.74-3.23,11.82-2.83a18.32,18.32,0,0,1,7.57,2.84c8.68,5.29,14.43,14,17.47,23.8a111.7,111.7,0,0,1,9.69-10.26q2.75-2.6,5.66-5a119.7,119.7,0,0,1,20.38-13.59c27.19-14.32,58.07-19.74,88.44-24.44,9.46-1.47,19-2.88,28.57-3.46a128.21,128.21,0,0,1,17.2,0q4,.29,8,.91c15.45,2.42,30.82,9.52,40.55,21.54a45.58,45.58,0,0,1,4,5.84,47.8,47.8,0,0,1,5.18,13.07c.83-.85,1.69-1.67,2.57-2.47l.25-.23q1.8-1.62,3.72-3.14a91.38,91.38,0,0,1,8.65-6c.78-.48,1.58-.95,2.38-1.41q3.38-1.95,6.87-3.67c1.22-.59,2.45-1.17,3.68-1.73l1-.47c10.78-4.8,22.45-8.25,34.2-7.36,8.93.67,17.44,3.8,26.17,5.79q1.11.26,2.22.48c1.66.33,3.32.62,5,.85,11.77,1.68,23.82,1.08,35.73.47l73.42-3.75c9.85-.5,19.83-1,29.47,1.05,7.88,1.67,15.31,5,23,7.32l.93.28a108.8,108.8,0,0,0,15.68,3.24l.6.08,1.66.22c3.82.48,7.67.82,11.52,1.12,2.31.18,4.62.34,6.92.5h0l10.33.72,4.8.33,52,3.6,6.07.42,122.67,8.51c10.27.71,20.66,1.45,30.49,4.52a73.87,73.87,0,0,1,19.71,9.72c1.22.83,2.41,1.71,3.57,2.62a81.65,81.65,0,0,1,26.81,38.2C1920.12,101.46,1920.22,101.78,1920.31,102.1Z" transform="translate(0 0.29)"/></g><g id="Capa_2" data-name="Capa 2"><path class="cls-2" d="M670.5,93.33l0,2.34A13.07,13.07,0,0,0,670.5,93.33Z" transform="translate(0 0.29)"/><path class="cls-2" d="M605.77,92.75c0,.59-.06,1.17-.08,1.76A6.91,6.91,0,0,0,605.77,92.75Z" transform="translate(0 0.29)"/><path class="cls-2" d="M977.6,100.36c-.24,1-.47,2-.71,3A3.2,3.2,0,0,0,977.6,100.36Z" transform="translate(0 0.29)"/><path class="cls-2" d="M1002.8,81.34l-1.47,2.06C1003,84.63,1003.31,83,1002.8,81.34Z" transform="translate(0 0.29)"/><path class="cls-2" d="M1050.09,85.67a3.71,3.71,0,0,0,.06-3.84A21.41,21.41,0,0,0,1050.09,85.67Z" transform="translate(0 0.29)"/><path class="cls-2" d="M1086.86,77.3a14.64,14.64,0,0,0,.22,2.18C1087,78.75,1086.93,78,1086.86,77.3Z" transform="translate(0 0.29)"/><path class="cls-2" d="M1246.33,73.88c0,2.21,0,4.41,0,6.62C1249,78.74,1248.32,76,1246.33,73.88Z" transform="translate(0 0.29)"/><path class="cls-2" d="M1267.89,71c-.1-.68-.2-1.35-.29-2A2.2,2.2,0,0,0,1267.89,71Z" transform="translate(0 0.29)"/><path class="cls-2" d="M1503.24,69.74l-1.91,2.43A2.26,2.26,0,0,0,1503.24,69.74Z" transform="translate(0 0.29)"/><path class="cls-2" d="M1564.81,58.65l-1.86,2.5A2.62,2.62,0,0,0,1564.81,58.65Z" transform="translate(0 0.29)"/><path class="cls-2" d="M1680.1,102.34c-.17-1.26-.39-2.52-.65-3.76C1678.61,100,1678.57,101.67,1680.1,102.34Z" transform="translate(0 0.29)"/><path class="cls-2" d="M1920.31,102.1c-.09.39-.19.78-.31,1.16-.66,2.52-1.37,5-2.11,7.51q-2.33-7.36-4.66-14.73c-4.93,1.77-3.47,8.91-3.28,14.14.16,4.49-5.92,8.88-8.17,6.77,1.83,4,3.23,8.61,1.09,12.36s-8.68,2.94-9.76-.22q0,6.71,0,13.41a49.06,49.06,0,0,0-12.56-12.41q-2,10.07-4,20.13a138.3,138.3,0,0,0-58.46-31.74l10.37-12.63a119.68,119.68,0,0,1-39.86,20.72,38.28,38.28,0,0,1-10.92,15,12.09,12.09,0,0,0-1-8.19,37.4,37.4,0,0,1-8.87,12.6l4-16.75a33.14,33.14,0,0,1-10.53,11.91c-1.3-2.3-1.48-5-2.14-7.6s-2.1-5.24-4.63-6a4,4,0,0,0-4.75,2.89c-.26-1.6-.53-3.2-.79-4.8a47.21,47.21,0,0,1-5.48,9.1,17,17,0,0,1-1.54-9.92,11.26,11.26,0,0,1-4.55,4,28.43,28.43,0,0,1-1.53-11.82,10.07,10.07,0,0,1-5.47,4.84q-.27-5.26-.55-10.53a8.9,8.9,0,0,1-5.93,4.45q1.38-5.28,2.75-10.54a20.34,20.34,0,0,0-6.37,7.76c1-6.1,2.87-15.82,6.91-22.82l-9.09,6.07a28.22,28.22,0,0,0-10.43-14.67q-5,20.57-10.06,41.15l-8.28-19.27c-1.27-2.95-3-6.29-6.16-6.9a3.77,3.77,0,0,0-3.73,2,56.93,56.93,0,0,0-8.61-20.35l-.47.92q-4.48,8.82-9.28,17.5c-1.11-.78-2.23-1.55-3.35-2.32a5.52,5.52,0,0,1-4.74,3.5l-1.53-10.17a14.71,14.71,0,0,0-4.9,6.29l1.53-8.77a17.55,17.55,0,0,1-4.79,6.69q-.21-6.93-.41-13.86L1637,86.86c.55-1.8,1-3.63,1.4-5.47a46.06,46.06,0,0,0-8.61-17.8l-12.2,17.69c-.12-4.23-.94-9-4.44-11.38s-9.24.33-8.65,4.09q-2-8.3-4-16.59-2.68,6.83-5.38,13.67a24.6,24.6,0,0,0-2.71-14.46l-14.72,18.78a43.58,43.58,0,0,0-7.58-23.79l-5.26,7c.11-2.86-3.32-6.72-6.71-5.66-4.67,1.47-6.49,7-7.63,11.76l-.69-20.11q-12.27,34-24.55,67.93l-8.31-7.73-7.24,8.07q-.67-24.84-1.34-49.67c-1.7,2.17-3.41,4.33-5.1,6.5,0-2.14-1.79-4.85-4.22-4.73-3.79.18-6.29,3.89-8.16,7.19a24.33,24.33,0,0,0-8.19-18.54,42.8,42.8,0,0,0-7.45,20.7,52.49,52.49,0,0,0-6.09-20.94q-2.12,9.26-4.24,18.52a2.85,2.85,0,0,0-.23-.26l-8.76,18.81q-.18-3.51-.35-7l-9.12,16.67a39.69,39.69,0,0,0,1.26-13.85,13.07,13.07,0,0,1-3.55,6.51l1.14-13.6-6.07,11.31a26.89,26.89,0,0,0-3.66-17.82,14.19,14.19,0,0,1-3,4.89c-.55-3-1.09-6-1.63-8.95-.06.06-.11.13-.17.2-.72,2.73-1.43,5.47-2.15,8.21l-5-16.6c0,3.84,0,7.68,0,11.52L1418,58.53a44.36,44.36,0,0,1-5,21.25,27.41,27.41,0,0,1-3.29-14.47l-15.85,6.53q1.8-9.49,3.59-19l-19.78,9.52L1381,50.62c-1.39,1.82-4.41,2.64-6.41,1.24s-2.62-4.32-1.82-6.75l-10,17.44-6.2-11.63.48,18L1347,53.37a33.77,33.77,0,0,0-12.75,14.78,25.82,25.82,0,0,1,2.29-24.3l-18.35,18.36q-.35-6.35-.7-12.69a24.58,24.58,0,0,0-11.82,21.65,41.74,41.74,0,0,1-4.84-25.85c-3.65,1.38-4.9,5.8-5.83,9.59s-2.71,8.19-6.55,8.9c-2,.36-3.55-1.33-4.12-3.11l-8.45,17.61c.82-3.71,1.45-8.12-1.19-10.85-2.07-2.13-6.32-.7-7.09,1.53q-.91-6.26-1.82-12.52a31.54,31.54,0,0,0-4.23,19.43q-1.93-6.56-3.88-13.13a50.55,50.55,0,0,0-8,21.34q-1.64-9.1-3.28-18.22c0,2.66,0,5.33,0,8-1.93-2.07-5.16-3.51-7.91-2.83a38.67,38.67,0,0,0-6.67-11.24,33.3,33.3,0,0,0-7.93-6.82,27.88,27.88,0,0,0-4.61-2.29c-.66-.27-1.34-.51-2-.72l-.35-.1,0,.29q-1.17,10.44-2.32,20.88a1.22,1.22,0,0,1-.44,1c-.92,6.87-1.86,13.73-2.78,20.6,0,.2,0,.4-.08.6a14.37,14.37,0,0,1-4-9.61,21.73,21.73,0,0,0-3.9,12.07q-.24-7.86-.49-15.71a137.56,137.56,0,0,0-11.94,36.15L1186.6,86a42.37,42.37,0,0,0-4.76,11.93,80.9,80.9,0,0,0-4.66-13.38,25.35,25.35,0,0,0-4.63,9.62q-1.15-8.22-2.32-16.43a22.7,22.7,0,0,0-5.42,11.61,29.07,29.07,0,0,1-1.07-10.16,43.38,43.38,0,0,0-4.85,14.21,102.93,102.93,0,0,1-2.2-15.13l-6.78,14a71.49,71.49,0,0,0-1.18-15.93,40.58,40.58,0,0,0-5.42,13.51q-1-5.44-1.93-10.89l-3.73,13.87A31.29,31.29,0,0,0,1136.27,79l-5.53,8.84q-.08-7.39-.14-14.78a64.69,64.69,0,0,1-3.34,15A24.37,24.37,0,0,0,1125,80a54.64,54.64,0,0,0-5.21,12.86L1117.15,80,1113,88.27a20,20,0,0,0-2.71-9.14l-1.14,3.57a61.38,61.38,0,0,0-2.45-10.88L1102.08,79c2.19-3.41-1.24-11.83-3-20.08-7.07,3.25-12.5,10.64-12.21,18.42l-1.53-14.91a41.51,41.51,0,0,0-15.15,21.82q-3.21-7.58-6.41-15.14l-3.48,12.07-.75-15.45a22.93,22.93,0,0,0-9.39,16.14c-1.67-3.06-7.15-4.89-10.37-2.36-4.45,3.49-4.74,10-4.64,15.67l-2.64-20.06a151.08,151.08,0,0,0-14,32.24q-2-9.73-4-19.47a2.42,2.42,0,0,1-2.44.39c-4.91-1.64-5.22-8.38-4.59-13.52l-4.71,6.62c-.5-1.59-1.8-3.22-3.56-2.35-3.6,1.76-4.53,6.82-8.08,8.68-1.28.68-2.38,0-3.11-1q-2.06,9.27-4.12,18.55-2-7.31-4-14.6-1.17,4.88-2.35,9.77c-.82-3.28-6.43-6-9.76-3.45-4.32,3.26-4.48,9.58-4.24,15q-5.18-26.25-10.36-52.51l-4.08,32.8q-3-13.81-6.07-27.62a90,90,0,0,0-8.35,29.62Q933,82.79,931.18,71.4,926.56,84,921.93,96.62q-1.9-5.41-3.8-10.84l-4.35,14.13q-.21-8.07-.4-16.13-4.32,8.86-8.63,17.73-1.57-6.63-3.14-13.27a42.8,42.8,0,0,0-15.55,27.15q.38-30.9.74-61.8l-9,30.88-2.31-15.8-4.76,13.47-.6-14.84L859.3,90.9,858,86.65q-.43,8.63-.88,17.27c-.51-2.21-1-4.43-1.52-6.64l-6,6.52q-.81-5.11-1.6-10.25a13.32,13.32,0,0,0-2.55,6.67l-1.8-4.28a7.9,7.9,0,0,0-2.76,4l-.15-7.63-3.51,3.79a51.72,51.72,0,0,0,7.39-23.39l-.38.26a29.2,29.2,0,0,1-3.36,9.41l1.69-7.82a6.4,6.4,0,0,0-1.42,4.51L838,64.43,827.41,90.5q-1-3.18-1.89-6.36c-.06.57-.12,1.14-.19,1.7l-1.59-7.59a28.17,28.17,0,0,0-17.27,21.21,27.07,27.07,0,0,1-4-9.69,2.12,2.12,0,0,1-2.57,1.16c-1.43-.63-2-2.35-2.33-3.86l-3.78-15.55q-4.38,7.83-8.78,15.65l-5-10.92a62.8,62.8,0,0,0-8.27,17.23l-3-13.62a39.81,39.81,0,0,1-12.31,11.86c-.07-3-.15-6-.22-9q-2.1,6.57-4.21,13.13a47.29,47.29,0,0,0-2.74-33.71c.19,2,.26,4.39-1.24,5.77s-4.78-.12-3.88-2c-3.19,1.45-1.16,6.14,0,9.46s-3.78,7.93-4.67,4.54q.64,8.35,1.3,16.7a144.55,144.55,0,0,0-12.17-21,69.08,69.08,0,0,1,2.76,19.64A92.52,92.52,0,0,1,719,75.19a1.16,1.16,0,0,1-.64.55c-1.31.46-2.67-.54-3.62-1.56A22,22,0,0,1,709,61.11l-4.2,27.38a35.88,35.88,0,0,1-7.29-16c-.66,3.24-1.31,6.47-2,9.71l-2.67-11.77A42.15,42.15,0,0,0,689.32,91q-3.37-7.83-6.74-15.68-.24,12.36-.46,24.73a65.46,65.46,0,0,1-11.81-22.15q.11,7.74.19,15.48a13.17,13.17,0,0,0-4.34-8.59l-4.54,18.13-5.47-15.49q-1,4.58-2,9.15-2-4.52-3.91-9l-4.7,11.42-3.87-9.12q-2.73,5.82-5.44,11.64l-4-11.64q-1.43,4.65-2.83,9.31Q627,91.56,624.56,84q-1.77,4.55-3.53,9.11-.36-3.45-.73-6.88l-.15,6.36A26.87,26.87,0,0,0,613.55,80q-1.32,7-2.66,14.06l-3.21-38.8q-1,18.75-1.91,37.5A7.17,7.17,0,0,0,604,88.48l-.45,16.42a8.18,8.18,0,0,0-7.09,2,25.32,25.32,0,0,0-6-12.47q-.8,5.28-1.6,10.54a19,19,0,0,0-1.21-8.84c-.46,2.1-1,4.19-1.49,6.27A19.28,19.28,0,0,0,570.89,88a10.76,10.76,0,0,1-2.61,7.71,42.09,42.09,0,0,0-4.85-13.47L563,97.49,545.74,86c-.54,2.84-1.07,5.67-1.61,8.5a101,101,0,0,1-13.31-16.89L529,88.49q-1.41-5.83-2.83-11.67,0,10.13,0,20.24L517.62,75.7a62.62,62.62,0,0,0-5.57,23.46q-2-12.27-4-24.53l-1.65,11.23q-2-6.06-3.91-12.11A57.77,57.77,0,0,0,497.15,90a108.15,108.15,0,0,1-6.56-22.42l-4.09,7.59q-1.41-7.41-2.83-14.81a65.25,65.25,0,0,0-9.55,15.88,31.74,31.74,0,0,1-5.47-12.82l-2.95,6.88c-.47-3.49-.94-7-1.4-10.46q-.74,7.18-1.46,14.36a23.44,23.44,0,0,1-5.28-11.44,33.44,33.44,0,0,0-7.44,17.32Q448.07,71.53,446,63q-1.39,6.29-2.8,12.59Q442,67.51,440.8,59.45q-.32,7.8-.62,15.58a12.21,12.21,0,0,0-8.52,13.47,6.61,6.61,0,0,1-4.57-6.15,9.6,9.6,0,0,0-3.29,5.33,14.52,14.52,0,0,0-2.23-8.06l-.48,17.13a31.32,31.32,0,0,1-.84-11.92q-5,17.33-10,34.64-3.24-19.9-6.5-39.81a337.06,337.06,0,0,0-10.12,52.58q-2.17-7.09-4.36-14.21l-4.85,9a54.42,54.42,0,0,1-8.17-16l-2.46,14.35L369.17,85.9q-5.35,15.43-10.72,30.89a48.63,48.63,0,0,0-6.58-16.52,14,14,0,0,0-7.23,12l-1.2-12-5.79,15.56-7.56-16.44q-2.43,8.19-4.88,16.38l-4.29-14.41a9.86,9.86,0,0,0-6.43,8.18q-1.86-5.81-3.71-11.6-.12,4.42-.22,8.85a20.74,20.74,0,0,1-3.4-7.24,16.58,16.58,0,0,0-4.85,13.54q-1.71-6.39-3.43-12.78a41,41,0,0,1-3.63,13,18.84,18.84,0,0,0-2.39-10.7,15.9,15.9,0,0,1-3.36,11.23c-.45-4.2-.66-8.49-.82-12.73-1.92,5.57-4.77,12.55-10.22,14.74a27.69,27.69,0,0,1-2-10.38c-.31.26-.62.52-.94.77a13.91,13.91,0,0,0-4.11-5l-4.08,21.43a51.19,51.19,0,0,1-4.82-22.45A20.84,20.84,0,0,0,257,113.53q-2-7.38-3.94-14.75-1.68,10.41-3.35,20.82-3.16-9.48-6.35-19a77.92,77.92,0,0,0-4,18.36q-.92-12.45-1.84-24.89-1,13.45-1.94,26.9l-7.11-24.87a63,63,0,0,0-9.79,23.6q-.6-10.32-1.21-20.65l-7,20.94-3-14.21q-3.18,9.25-6.37,18.53-1.44-15.07-2.87-30.15-4.66,17.44-9.32,34.89,0-31.77,0-63.56A202.8,202.8,0,0,0,177.24,103l-.12-23.55q-3.8,16.57-7.6,33.13a42.09,42.09,0,0,0-2.38-16q-1.12,9.6-2.26,19.2-2.72-10.27-5.42-20.55l-4,18.6,0-34.76a179.62,179.62,0,0,0-5,29.5l-2.4-8.44q-3.15,11-6.28,21.94-.44-20.5-.86-41-4.58,14.53-9.14,29.05a153.93,153.93,0,0,1-2.53-40.87l-7.11,25-2.82-23.89a45.34,45.34,0,0,1-13.54,23.87Q104.4,86.57,103,78.94L96.17,97.87q0-5.94-.08-11.88Q92.57,95.43,89,104.88q-2.31-8.31-4.61-16.62Q82,99.72,79.6,111.17A325.48,325.48,0,0,1,72,40.63L59,92.21Q58,80.11,57.08,68a91.82,91.82,0,0,0-7.34,22.62q-1.44-6.57-2.89-13.15a42.39,42.39,0,0,0-4.62,11.9q-.07-9.35-.16-18.68a200.4,200.4,0,0,0-8.51,39.17A190.61,190.61,0,0,1,20.94,54.51a53.25,53.25,0,0,1-2.46,21.34l.09-17.78a76,76,0,0,0-10,18.42Q7.56,71.24,6.52,66A27,27,0,0,1,1.06,82.81c.88-1.15.29-4.69-1.06-9.34V0H50.74c8.44.88,15.86,1.39,21,.59C72.82.42,74,.22,75.1,0H123c.23.16.46.33.68.51,6.54,5.17,10.2,13.81,16.85,18.45a17.69,17.69,0,0,0,3.19,1.79c6.44,2.76,13.83,1.09,20.63-.62l33.17-8.35a26.52,26.52,0,0,0,3.8-1.18,8.53,8.53,0,0,0,3.08-2.1c2-2.25,2.2-5.52,2.91-8.45,0,0,0,0,0,0H285a118.82,118.82,0,0,1,5.07,28.09c9.17-6.87,21.56-9.21,32.53-13.43,11.54-4.44,22.18-11.38,34-14.66H392.7c4.13.65,8.26,1.36,12.36,2C438.74,6.77,473,3.4,506.85,0h67.4a20.8,20.8,0,0,1,5.15,4.44,28.2,28.2,0,0,1,4.72,8.94c1.14-4.72,2.55-9.49,5.34-13.38H723.71c1.11.25,2.23.48,3.34.72,16.3,3.45,33.25,6.17,49.52,2.59,4.5-1,9.1-2.45,13.65-3.31h12.47a16.15,16.15,0,0,1,1.63.51c6,2.2,10.47,7.45,13.69,13a66.11,66.11,0,0,1,7,18.05c4-9.6,11.29-18.18,23-25.1A76.48,76.48,0,0,1,862.09,0h82.77c21.19,3.65,42.37,7.45,63.63,5.22A179.17,179.17,0,0,0,1035,0h237.87a128.21,128.21,0,0,1,17.2,0H1920V101.15C1920.12,101.46,1920.22,101.78,1920.31,102.1Z" transform="translate(0 0.29)"/><path class="cls-2" d="M1203.39,97.87l-.07-2.17C1203.31,96.43,1203.33,97.15,1203.39,97.87Z" transform="translate(0 0.29)"/><path class="cls-2" d="M1464.89,71.94c-.3,1.29-.59,2.58-.88,3.86A2.58,2.58,0,0,0,1464.89,71.94Z" transform="translate(0 0.29)"/><path class="cls-2" d="M1750,131.83c-.07-.47-.15-1-.23-1.42A2.31,2.31,0,0,0,1750,131.83Z" transform="translate(0 0.29)"/></g><g id="Capa_1" data-name="Capa 1"><path d="M690.54,55.06l-.1,1.88A2,2,0,0,0,690.54,55.06Z" transform="translate(0 0.29)"/><path d="M1350.79,43.1a32,32,0,0,0-.2-3.25A13.11,13.11,0,0,0,1350.79,43.1Z" transform="translate(0 0.29)"/><path d="M1626.51,38.12c-.07-.38-.15-.76-.22-1.14A1.82,1.82,0,0,0,1626.51,38.12Z" transform="translate(0 0.29)"/><path d="M1920,0V36.83a65.13,65.13,0,0,0-3.39,18.45,23,23,0,0,0-12.19-16.91q-.92,15.09-1.84,30.18-.67-12.12-1.37-24.24a165.81,165.81,0,0,0-8,18.64,168.09,168.09,0,0,0-9.75,48.78A52.45,52.45,0,0,0,1876.38,89a56.14,56.14,0,0,0-9.66,35.08l-6.87-28.28q-.63,11.77-1.27,23.53-5.57-11.77-11.14-23.55-1,10.58-1.93,21.17a65.35,65.35,0,0,1-10-31.74l-3.75,17.41q-4-12.75-8-25.51a137.54,137.54,0,0,0-3.79,27.68l-9.19-25.27a48.9,48.9,0,0,0-7.18,21q-3.51-14.81-7-29.6-3.23,11.8-6.46,23.63-2.12-13.8-4.24-27.6-2.89,13.75-5.8,27.51-1.74-9.19-3.5-18.38a48.21,48.21,0,0,1-4.08,18.78q-2.34-8.61-4.66-17.21-1.76,5.69-3.5,11.37l-9.75-28.85a126.2,126.2,0,0,0-11.92,22.21q-1.59-17.91-3.16-35.84l-6.63,19q-2.31-11.72-4.61-23.43-3,17.16-6.08,34.32-2.67-19.38-5.35-38.76-1.77-12.76-3.53-25.53-.75,12.6-2.54,25.11a307.1,307.1,0,0,1-11.2,49.31,44.48,44.48,0,0,1-3.74-27q-2.81,9-5.6,17.94l-.81-24.53a35.8,35.8,0,0,0-6,16.35q-.18-10.77-.37-21.54a71.34,71.34,0,0,0-8.88,22.3q-1-12.55-1.94-25.1l-5.76,11.89-3.75-20.93-3.78,8.83q-.08-5.55-.13-11.1-.07-6.62-.16-13.23l-4.64,12.9-5.8,16.11c-.83-4.88-3-10.87-4.55-16.83-2-7.61-3-15.2,1.15-20.43a19.62,19.62,0,0,1-2-1.34c-1.85,7.15-3.93,14.26-6.09,21.27q-1.44,4.7-2.92,9.33c-.08-2.46-.68-5.24-2.81-6.45-1.76-1-4.4.37-4.64,2.09-.38-2-.77-4.06-1.15-6.09l-.87-4.59c-.26,1.46-.53,2.91-.79,4.37l-.84,4.64a19.64,19.64,0,0,0,.24-4.72,20.36,20.36,0,0,0-4-10.87,33.2,33.2,0,0,0-21.47,21,52.2,52.2,0,0,1-11.91-19.38c-.47,2.52-1.36,5.51-3.83,6.17-1.46.4-2.68-1.09-2.91-2.41a41.6,41.6,0,0,0-5.67,14.42q-2.56-9.21-5.14-18.42-3.27,7.63-6.52,15.26-2.25-3.6-4.49-7.22a23.56,23.56,0,0,0-3.76,10.63q-1.73-9-3.46-18.08L1543.41,35c-.34-2.58-.67-5.15-1-7.73a397.32,397.32,0,0,0-23.61,65.52,334.75,334.75,0,0,0-.49-66.24l-4.65,12.85q-2-5.1-4-10.19-2.81,10.22-5.6,20.44-3.52-9.34-7.06-18.7-3.19,10.55-6.38,21.09-2.94-9.07-5.87-18.16l-.57,9.24-5.82-17.65A56.32,56.32,0,0,0,1469,50.53l-10.86-20a62.31,62.31,0,0,0-4.17,9.9,61.42,61.42,0,0,0-1.89,7.32c-.25-2.55-.51-5.09-.77-7.64-.35-3.6-.72-7.21-1.08-10.82a21.68,21.68,0,0,0-1.53,10.07L1444.63,22c-.46-2-.93-3.93-1.39-5.89a64.17,64.17,0,0,0-5.82,4.56,66.26,66.26,0,0,0-20.49,33.73q-3.71-13.32-7.43-26.63a67.38,67.38,0,0,0-10.29,16.59q-.32-11.22-.61-22.44-5.36,9.74-10.7,19.47c.6-3.61,1.1-7.66-1.08-10.59s-8.08-2.59-8.42,1c-.44-3.21-.87-6.42-1.35-9.61-.38-2.55-.8-5.08-1.29-7.59-1.26,3.21-2.36,6.5-3.43,9.79s-2.17,6.77-3.37,10.11c-1-2.06-2.24-4.21-3.5-6.44l-1.61-2.87c-.23,1.43-.48,2.86-.77,4.28-1.21,6-2.92,12-4.63,17.87-1.34-3.95-2.69-7.9-4-11.85l-1.1-3.24a13.67,13.67,0,0,0-2.62,6.38c-.06.4-.1.79-.12,1.19,0-.32-.08-.64-.13-1a32.82,32.82,0,0,0-9.54-18.78q-1.11,1.18-2.25,2.34a125.47,125.47,0,0,1-18.44,15.44A28.38,28.38,0,0,0,1314.7,19a134.39,134.39,0,0,0-31,26.58,24.07,24.07,0,0,1-10.22-15.24q-1.92,11.31-3.85,22.63a45.38,45.38,0,0,1-10.73-15,38.93,38.93,0,0,0-1.65,14.43,73.88,73.88,0,0,1-11.17-21.81A54.49,54.49,0,0,0,1243.3,51l-5-11.25q-3.27,10-6.53,20.07c-1.26,3.84-2.5,7.67-3.75,11.5q-2.1-9.15-4.18-18.32-1.35-5.93-2.71-11.85c-.63,3.19-1.27,6.38-1.9,9.56-.34,1.7-.67,3.39-1,5.09-.27-1.95-.61-3.88-1-5.81a81.93,81.93,0,0,0-7.49-20.92c-2.13,3.73-4.13,7.55-6,11.44q-2.28,4.77-4.26,9.69a173.33,173.33,0,0,0-6.89,20.75q-2.08-7.47-4.15-14.94c-.75-2.71-1.51-5.42-2.26-8.14q-2.67,7.88-5.32,15.74l-.58,1.71c-.06-.22-.13-.44-.19-.66Q1177,54,1174,43.4q-2.6,13.34-5.19,26.67c0,.3-.11.6-.17.9-.06-.2-.11-.4-.16-.6A129.27,129.27,0,0,1,1164,41.71a88,88,0,0,0-7.1,23.12q-2-9.91-3.89-19.84l-4.35,21.32q-1.68-10.05-3.38-20.09a64.18,64.18,0,0,0-6.09,27.63q-1.85-16.18-3.69-32.36l-1-9c0-.1,0-.21,0-.31,0,.14-.09.27-.13.41l-4.47,13.81q-3.54,10.9-7.06,21.81a2.58,2.58,0,0,0-.32-.18c-4-2.18-9.86.2-11.11,4.64l-4-9-2.86-6.4c-1.22,2.51-2.43,5-3.64,7.54q-.12-3.24-.51-6.47A80.47,80.47,0,0,0,1097,43.18a38.2,38.2,0,0,0-4.22,13.74q-1.76-7.66-3.5-15.33-2.15,6.87-4.3,13.74l-2.82-22c-.22-1.68-.43-3.35-.65-5-1.16,2.14-2.23,4.34-3.18,6.59a78.37,78.37,0,0,0-5.82,22q-.16-9.8-.32-19.6-.23-14.3-.46-28.58l-13.07,33.06-6,15.14q-1.59-4.45-3.19-8.92l-3,11.91-.66-11.63-5.89,13.23q-.15-7.87-.29-15.74c0-.22,0-.45,0-.67a.75.75,0,0,1-.15,0c-2.34-.36-3.49-3.73-4.23-7.89-1.08,3.09-2.23,6.16-3.42,9.21-2.53,6.51-5.26,12.94-8,19.32a99.63,99.63,0,0,0-7.26-37.13q-2.24,8.1-4.49,16.19c-.31,1.11-.61,2.22-.92,3.33a16,16,0,0,0-.32-3.59,18,18,0,0,0-9-12.31c-1,3-2.1,5.94-3.15,8.91,0,.13-.09.27-.14.4l-.24-.53L995,33.8a37.35,37.35,0,0,0-5,14q.11-4.12.2-8.25L969.88,89.61a149.57,149.57,0,0,0-15.53-59.49L941.83,47.73l-3.24-7.25A19.46,19.46,0,0,1,934.16,49l-2.29-6.75c-.37,1.35-1.88,2.68-3.36,2.2-2.3-.74-3-3.82-2.24-6.11q-2.89,6.38-5.78,12.75-1.5-5.65-3-11.31L914,52.62l-.72-18.72L893.35,76.82A162.23,162.23,0,0,0,882.21,12a252.81,252.81,0,0,1-5.72,29.51q-1.61,6.26-3.51,12.41-.91-5.46-1.84-10.91c-.36-2.15-.73-4.31-1.09-6.46a43.42,43.42,0,0,0-2.44,19.31q-1.22-5.52-2.42-11l-5.4-24.64a98.32,98.32,0,0,0-3.49,28q.06,2.78.27,5.52l-3.49-4-2.51-2.88c-1.61,2.37-3.22,4.73-4.82,7.1a33.9,33.9,0,0,1-2.06-2.71s0,0,0,0a30.45,30.45,0,0,1-3-5.61,28.7,28.7,0,0,1-1.23-3.63l-.72.95-6.16,8.19q-1.47-5.39-3-10.77L827,50.44l-2.62-10.21a36.4,36.4,0,0,0-5.3,15.36c0-3.08,0-6.16,0-9.24q-7.85,13.08-15.71,26.15a126.25,126.25,0,0,0-.85-34.78A124.3,124.3,0,0,0,797.8,18.6q-2.19,10.62-4.37,21.24-.87-5.37-1.72-10.74-2.1,7.49-4.21,15l-.6,2.12-.36-1.75c-.49-2.35-1-4.68-1.45-7-2.29,2.2-6.34.76-8-2a50.19,50.19,0,0,1-1.88,12.11A49.21,49.21,0,0,1,762.8,69a203.1,203.1,0,0,0-4.4-21.93c-1.34-5.56-2.7-11.11-3.76-16.71-.54,1.85-1.1,3.69-1.67,5.49l-2.73,8.73q-2.1,6.75-4.22,13.51c-.55-5.23-1.1-10.44-1.66-15.67a2.63,2.63,0,0,1-2,2.64c-2.78.41-2.5-2.39-1.7-5.75,1.12-4.74,3.29-10.6-.64-10.08l-2.43,7.68L735,45c-.06-3.51-.13-7-.19-10.54q-.21-11.45-.41-22.88A140.26,140.26,0,0,0,730.21,30a142.52,142.52,0,0,0-.74,39.78c-.86-2.6-1.73-5.2-2.59-7.8a67.11,67.11,0,0,1-12.25-30.76q-2.11,10.6-4.24,21.21-2.08-9.41-4.16-18.82l-.66,8a50.49,50.49,0,0,1-10.64-18.36,49,49,0,0,1-2.1-9.5c-.18,3.19-.35,6.38-.53,9.57q-.88,15.9-1.76,31.81c-.77-1.66-3.64-2.73-5.39-1.46-2.35,1.72-2.64,5.06-2.72,8a19.17,19.17,0,0,1-1.86-7.32A40.62,40.62,0,0,1,677.75,65a54.42,54.42,0,0,1-6.12-32.61,402.11,402.11,0,0,0-15.22,52.81,16.28,16.28,0,0,1-3.8-11,10.36,10.36,0,0,0-5,6.24,48.56,48.56,0,0,1-6.11-18.81q-2.73,5.48-5.45,10.94l-5.33-15.33-4.78,12.27Q624.47,57.91,623,46.35a55.38,55.38,0,0,0-7.44,21.48q-.18-21.26-.37-42.51c0-5.93-.1-11.85-.15-17.77q-3.34,8.91-6.08,18a287,287,0,0,0-11.54,63.73A211.43,211.43,0,0,1,580.94,54l-5.85,5.54q-1.62-6.51-3.26-13L561.69,59.38c.1-3.44.09-7.25-2.16-9.86a5.4,5.4,0,0,0-2.95-1.65c-2.31-.48-4.86.36-5.33,2.63l-4.41-21.25q-5.72,12.57-11.42,25.12a115.8,115.8,0,0,1-2.2-35.66q-4.89,13.45-9.79,26.9l-6.56,18q-1.53-8.64-3-17.28a28.33,28.33,0,0,0-6.7,10.77q-2-7.69-3.92-15.4a31.56,31.56,0,0,0-5.72,10.45l-6.18-17c.6,1.66-5.41,8.72-6.23,9.75-2.14-5.17-4-10.64-5.91-15.86C471,44.8,463,42.7,457.87,33.27a23.09,23.09,0,0,1-5.34-4.3l-2,10.81a50.41,50.41,0,0,0-11.44-16.59,190,190,0,0,0-5.69,28.05Q429.8,45.6,426.17,40L422.78,60.5a61,61,0,0,0-3.2-19,67.37,67.37,0,0,0-19.69,34.65q-1-9.54-1.94-19.07-5.86,21.32-11.72,42.62a377,377,0,0,0-14.47-72.28c-.16-.55-.32-1.09-.49-1.63-.16.55-.31,1.11-.48,1.66a248.49,248.49,0,0,1-19,47.23l-6.48-16a25.05,25.05,0,0,1-9.66,16.22q-2.64-9.37-5.27-18.76-4.12,9.27-8.24,18.55-1.47-16-2.93-32a194.06,194.06,0,0,0-10,29q-.89-12.63-1.78-25.25a35.82,35.82,0,0,0-7.06,16,94.9,94.9,0,0,1-2.19-25.54,102.89,102.89,0,0,0-10.61,29.62q-1.35-13.66-2.68-27.32c-.23-2.37-.47-4.74-.7-7.11q-3.07,6.16-5.68,12.55a182.41,182.41,0,0,0-8.09,24.74q-.51-7.29-1-14.57l-1.59-22.39a64.41,64.41,0,0,0-12.91,26.18,42.79,42.79,0,0,0-6-19.36L242.25,50l-2.48,4.07-3.06-15.51-.81-4.1-.54,1.82q-3.71,12.42-7.42,24.84-.88-9.83-1.76-19.66a207,207,0,0,0-22.12,50q-.48-30.53-1-61-7,16.32-14,32.62c-2.93-3.33-9.67.24-8.55,4.53q-1.84-5.92-3.68-11.86-2.81,5.19-5.6,10.38c0-2.74-.07-5.48-.11-8.21L159,74.3c5.9-8,2.08-24.91-1.16-41a139.12,139.12,0,0,1-14.82,41,31.64,31.64,0,0,0-7.84-13.38A34,34,0,0,0,125.63,68q-2.2-5.77-4.43-11.54-2.25,3.42-4.52,6.84a15.31,15.31,0,0,0-4.82-6.83,14.49,14.49,0,0,0-1.43,8.14q-1.89-7.71-3.79-15.41A72.58,72.58,0,0,1,87.92,75.69,87.86,87.86,0,0,0,66.33,12.8a63.44,63.44,0,0,0-5.68,33.33L50.2,36.76,46.9,54.22a16.14,16.14,0,0,1-4.55-7.82,66.82,66.82,0,0,0-5,25A89.16,89.16,0,0,0,22.25,31.17,87.1,87.1,0,0,0,10.69,17.53a67.38,67.38,0,0,1,1.67,19.56c0,.85-.12,1.7-.2,2.54a8.58,8.58,0,0,1-1.4-1.55A8.85,8.85,0,0,1,9.21,34.3a39,39,0,0,1,.3,4.58A43,43,0,0,1,8.4,49.3q-.92-4.24-1.85-8.47L5.11,34.25C4.75,37,4.38,39.79,4,42.56Q2.48,54.29.94,66A43.87,43.87,0,0,0,0,58.67V0H1272.88a128.21,128.21,0,0,1,17.2,0Z" transform="translate(0 0.29)"/></g></svg>