<svg xmlns="http://www.w3.org/2000/svg" viewBox="0 0 485.94 503.52"><defs><style>.cls-1{fill:#68c6e0;}.cls-2{fill:#4fafc7;}.cls-3{fill:#95d3e6;}.cls-4{fill:#191919;}.cls-5{fill:#161616;}.cls-6{fill:#2b2b2b;}.cls-7{fill:#303031;}.cls-8{fill:#a65f3c;}.cls-9{fill:#8e4b2e;}.cls-10{fill:#d3b9ad;}.cls-11{fill:#b79c91;}.cls-12{fill:#77391e;}.cls-13{fill:#5e2916;}.cls-14{fill:#2d2d2d;}.cls-15{fill:#060707;}.cls-16{fill:#0088a8;}.cls-17{fill:#039ec1;}.cls-18{fill:#04a9d6;}.cls-19{fill:#009cbf;}.cls-20{fill:#4dbaeb;}.cls-21{fill:#3ba6cc;}.cls-22{fill:#262626;}.cls-23{fill:#1e1e1e;}.cls-24,.cls-28,.cls-29{fill:none;stroke:#000;stroke-miterlimit:10;}.cls-25{fill:#057789;}.cls-26{fill:#028eaf;}.cls-27{fill:#4c605f;}.cls-28{stroke-width:1.18px;}.cls-29{stroke-width:2.2px;}</style></defs><title>hellen</title><g id="Capa_5" data-name="Capa 5"><path class="cls-1" d="M644.94,299.07A243.08,243.08,0,0,1,445,538.24a245.3,245.3,0,0,1-104.86-4.15,239.86,239.86,0,0,1-37.4-13.19A243.24,243.24,0,0,1,159,299.07c0-134.19,108.79-243,243-243S644.94,164.88,644.94,299.07Z" transform="translate(-159 -56.1)"/><g id="Capa_4" data-name="Capa 4"><path class="cls-2" d="M428.41,240.64c-4.36,24.74-11,122.16-22.11,147.82s-10.39,63.82-25.47,80.15S345.51,513,321.58,520.24c-5.16,1.55-11.66,1.65-18.83.66a242.88,242.88,0,0,1-69.51-47c6.54-16.2,24-46.15,59.65-47.65,0,0,17.3-8.3,2.59-30.09s-20.93-19.07-21.09-31.87-15.42-9-16-27.52-22.34-71.92-25.06-76.28-8.17-40.72,21.79-58.5c0,0-.87-32.15,21.82-45.71,0,0,10.68-49.71,66.16-51.32S432.77,215.9,428.41,240.64Z" transform="translate(-159 -56.1)"/></g><g id="Capa_2" data-name="Capa 2"><path class="cls-3" d="M404.46,535.19l-11.85,20.69a2.69,2.69,0,0,1-1.43,1.21l-.2.06-8.83,2.4a1.8,1.8,0,0,1-2.22-1.27l-2.45-9a3.07,3.07,0,0,1-.07-.42,2.27,2.27,0,0,1,.3-1.33l11.93-20.84,3.17,11.65Z" transform="translate(-159 -56.1)"/></g></g><g id="Trazo_copia" data-name="Trazo copia"><path class="cls-4" d="M290.8,352.3s4,6.17,3.17,12.28c0,0-6.64,7.69,12.93,32.16s3.88,47,3.88,47,.15,12.27,10.8,5.6,18.55-10.3,16.27-24.45,3-23.69-4.67-38.47c0,0-11.63-61.48-30.84-52.9S290.8,352.3,290.8,352.3Z" transform="translate(-159 -56.1)"/><path class="cls-4" d="M553,489.41a242,242,0,0,1-108,48.83,245.3,245.3,0,0,1-104.86-4.15A242,242,0,0,1,251.71,490c11.57-34.17,35.46-43.56,52-45.74a66.84,66.84,0,0,1,7.13-.56c1.81,0,3.43,0,4.83,0a36.15,36.15,0,0,0,13.64-2.25h.11l4.24-.56.59-.08,20.87-2.72,6.16-.8,7.18-.94h.11l3-.4,12.12-1.58,46.25-6L440.56,427h.08l12.1-1.58.46-.06,2.62-.35.73-.09h0a11,11,0,0,0,1.87,2.52c.34.37.73.76,1.19,1.18,4.68,4.23,15.77,10.55,40.12,10.09,1,0,2.06,0,3.09.05C525.11,439.72,545.51,456.12,553,489.41Z" transform="translate(-159 -56.1)"/><path d="M457.12,426.23l-5.66.74h-.08l-10.65,1.39-46.25,6L382.36,436l-3,.4h-.11l-7.18.94-6.16.8L345,440.85l-.59.08-4.24.56h-.11a36.15,36.15,0,0,1-13.64,2.25c-1.4-.07-3-.09-4.83,0a66.84,66.84,0,0,0-7.13.56c-16.51,2.18-40.4,11.57-52,45.74a241.86,241.86,0,0,0,144.83,52c-1.89,0-3.79.07-5.69.07a242.07,242.07,0,0,1-150.26-52c11.57-34.17,35.46-43.56,52-45.74a66.84,66.84,0,0,1,7.13-.56c1.81,0,3.43,0,4.83,0A36.15,36.15,0,0,0,329,441.5h.11l4.24-.56.59-.08,20.87-2.72,6.16-.8,7.18-.94h.11l3-.4,12.12-1.58,46.25-6L440.26,427h.08l12.1-1.58.46-.06,2.62-.35.73-.09h0A7.52,7.52,0,0,0,457.12,426.23Z" transform="translate(-159 -56.1)"/><path class="cls-4" d="M553,489.41A241.69,241.69,0,0,1,407.66,542a241.86,241.86,0,0,1-144.83-52c11.57-34.17,35.46-43.56,52-45.74a66.84,66.84,0,0,1,7.13-.56c1.81,0,3.43,0,4.83,0a36.15,36.15,0,0,0,13.64-2.25h.11l4.24-.56.59-.08,20.87-2.72,6.16-.8,7.18-.94h.11l3-.4,12.12-1.58,46.25-6L451.68,427h.08l5.66-.74a14.39,14.39,0,0,0,1,1.19c.34.37.73.76,1.19,1.18,4.68,4.23,15.77,10.55,40.12,10.09,1,0,2.06,0,3.09.05C525.11,439.72,545.51,456.12,553,489.41Z" transform="translate(-159 -56.1)"/><path d="M444.25,418.88s9.54,1.11,11.34,5.54,5.73,10.15,0,16.46-15.48,13-25.72,14.65-24,3.21-32.69.83-19.66-3.85-26.29-6.71-22.61-3.28-14.26-13.85,2.54-17.06,13.31-16.92,36.91,3.9,45.1,3.16S444.25,418.88,444.25,418.88Z" transform="translate(-159 -56.1)"/><path class="cls-5" d="M375.19,420.62c-.38-.16-5.68-2.3-7,3.53-.08.37-.56-.48-.78-.16a42.32,42.32,0,0,0-3.27,5.84l-.27.59a83.89,83.89,0,0,1-33.08-11c-.27-1.65-.63-3.3-1.06-4.95-3.48-13.62-11.37-27-14.09-33Z" transform="translate(-159 -56.1)"/><path class="cls-6" d="M383.59,524s-2.26-13.59-32.63-30.11-20.93-57-20-62.37a36.91,36.91,0,0,0-.19-12.56,83.89,83.89,0,0,0,33.08,11c-4,8.84-7.86,24.64,3.92,40.94C385.61,495.5,385.44,512.89,383.59,524Z" transform="translate(-159 -56.1)"/><path class="cls-5" d="M383.59,524.38S381.33,510.6,351,493.86s-20.93-57.78-20-63.2a37.91,37.91,0,0,0-.19-12.73q3,1.72,5.84,3.11a31.14,31.14,0,0,1-.45,5.42c-.95,5.42-10.4,46.48,20,63.21,15.75,8.68,23.94,16.56,28.17,22.14A57.66,57.66,0,0,1,383.59,524.38Z" transform="translate(-159 -56.1)"/><path class="cls-6" d="M304.81,252.66s10.54-48.31-2.47-37.35-21,65.93-11.54,66.57,15.19-7,14-8.9" transform="translate(-159 -56.1)"/><path class="cls-6" d="M508.11,223.41c-4.29-1.43-24.31,5.41-16.2,24.39s-6.68,35.82,7.14,32.17,30.05-23,24.06-38S508.11,223.41,508.11,223.41Z" transform="translate(-159 -56.1)"/><path class="cls-6" d="M275.72,342.07c-3.22-20.06-.51-17.24-18.68-63s12.58-61.46,12.58-61.46l10.66-2.43L283,276.09l-4,22.84Z" transform="translate(-159 -56.1)"/><path class="cls-4" d="M263.36,289.11c7.38,18.57,11.31,29.15,13.6,36.49l-1.24,16.47c-3.21-20.05-.51-17.23-18.68-63s12.58-61.46,12.58-61.46l10.66-2.42.5,11.37-4.84,1.1S245.18,243.33,263.36,289.11Z" transform="translate(-159 -56.1)"/><path class="cls-7" d="M295.6,152.72c23.85-70.66,105.21-48.87,105.21-48.87S484,86.26,507.37,152.72c0,0-90.77-38.37-120.8-26S298.82,155.25,292.88,170,295.6,152.72,295.6,152.72Z" transform="translate(-159 -56.1)"/><path class="cls-6" d="M396,129.63c-21.84.69-40.29,3.49-55.83,7.87,34.13-17.89,79.75-30.28,121.18-.91a95.79,95.79,0,0,1,36.9,24.57C478,143.76,445.88,131.22,396,129.63Z" transform="translate(-159 -56.1)"/><path class="cls-6" d="M516.26,288.42c-.08.7-.16,1.36-.23,2l-10.86-1.72-.67-14.26c9.48-5.24,7.62-20.09,6.61-25.86-1.23-7-5.44-11.92-11.34-16l-200.45.89c-24.32,19.43-1.57,47.33-1.57,47.33l-.63,9.63-19.46-2.68s-1.55-29.53,0-59.22c8.82-37.14,37-77.6,118.33-76.41,149.4-2.19,118.31,136.29,118.31,136.29Z" transform="translate(-159 -56.1)"/><path class="cls-6" d="M516,290.39l.34.05S513.7,309.88,516,290.39Z" transform="translate(-159 -56.1)"/><path class="cls-8" d="M441.3,421s-2.56,18,0,26.11c0,0,7.27,6.95-6.92,9.33s-76.53-3.91-67.78-15.09c3.87-4.95,1.59-16.83,1.59-16.83s3.3-27.16,58.15-13l2,.53S442.43,408.92,441.3,421Z" transform="translate(-159 -56.1)"/><path class="cls-9" d="M441.3,419.72s-21.74,24.8-62.75,13.43c-3.85-1.07-7.07-2-9.73-2.9a45,45,0,0,0-.63-5.7,11.13,11.13,0,0,1,.65-2.36A40.81,40.81,0,0,1,396,420.63C411.41,424.94,441.3,419.72,441.3,419.72Z" transform="translate(-159 -56.1)"/><path class="cls-8" d="M506.14,304.83S508.21,427.13,401,427.16h0c-107.25,0-105.18-122.33-105.18-122.33-.67-27.92,1.2-51.48,4.89-71.37a59.77,59.77,0,0,1,12.91-7.65c43-19.22,86-69.55,86-69.55s36.78,40.5,59.77,55.22c14.33,9.17,30.93,13.65,41.79,21.09a303.16,303.16,0,0,1,4.73,41.82Q506.52,288.67,506.14,304.83Z" transform="translate(-159 -56.1)"/><path class="cls-9" d="M503.62,249.58c-13.58-7.22-31.15-12.91-46.68-22.85-20.89-13.38-50.56-43.17-66.45-59.81,5.72-6,9-9.9,9-9.9s36.78,40.5,59.77,55.22c14.33,9.17,30.93,13.65,41.79,21.09C502.05,238.49,502.91,243.9,503.62,249.58Z" transform="translate(-159 -56.1)"/><path class="cls-10" d="M326.29,319.62l44.48,2.82c5.1.81,7.78-13.94,7.78-13.94s10.75-40.09-32.24-41.14S312.94,310,313,310s1.39,7.14,3.78,9.51" transform="translate(-159 -56.1)"/><path class="cls-9" d="M319.89,258.46q-.13,5-.2,10.1c7.93-7.42,21.67-14.1,44.17-8.72,0,0-29.14,1.77-33.77,9.12a28.45,28.45,0,0,1-10.43,9.42q0,6.33.18,12.88s-1.33,79,44.57,130.4c-70.07-24.15-68.51-116.6-68.51-116.6-.67-27.92,1.2-51.48,4.89-71.37A59.77,59.77,0,0,1,313.7,226q4.29-1.92,8.56-4.23-1.44,13.91-2.1,29.22c4.38-5.34,11.61-10,23.52-10.47,0,0,20.57-1.39,22.78,2.45,4.29,7.44-2.33,10.37-2.33,10.37s-6.52.81-22.72-3.5C332.48,247.5,324.9,253,319.89,258.46Z" transform="translate(-159 -56.1)"/><path class="cls-11" d="M372.7,322a2.72,2.72,0,0,1-1.93.44l-44.48-2.81-9.55-.13C314.34,317.13,313,310,313,310s-9.78-43.68,33.36-42.62c1.06,0,2.09.08,3.08.15-36.34,2.9-27.5,42.47-27.49,42.47s1.39,7.14,3.79,9.51l9.56.13Z" transform="translate(-159 -56.1)"/><circle class="cls-12" cx="199.17" cy="241.47" r="18.37"/><path class="cls-13" d="M360.77,315.77a18.61,18.61,0,0,1-2.6.18,18.38,18.38,0,0,1,0-36.75,17.21,17.21,0,0,1,2.6.19,20.76,20.76,0,0,0,0,36.38Z" transform="translate(-159 -56.1)"/><circle cx="199.17" cy="241.47" r="9.81"/><path class="cls-10" d="M476.12,322.3s9.78-.18,11.32-1.27,2-8.36,2-8.36S499.24,269,456.11,270s-32.25,41.14-32.25,41.14,3.1,10.89,7.79,13.94" transform="translate(-159 -56.1)"/><path class="cls-11" d="M487.57,320.92a.69.69,0,0,1-.13.11c-1.54,1.09-11.32,1.27-11.32,1.27l-44.47,2.82c-4.69-3.05-7.79-13.94-7.79-13.94S413.11,271.09,456.11,270h.49c-29.69,7.23-21,39.75-21,39.75s3.1,10.89,7.79,13.93Z" transform="translate(-159 -56.1)"/><circle class="cls-12" cx="285.25" cy="244.15" r="18.37"/><path class="cls-13" d="M446.76,318.45a18.61,18.61,0,0,1-2.6.18,18.38,18.38,0,0,1,0-36.75,17.21,17.21,0,0,1,2.6.19,20.76,20.76,0,0,0,0,36.38Z" transform="translate(-159 -56.1)"/><circle cx="285.25" cy="244.15" r="9.81"/><path class="cls-14" d="M487.45,266.14s-11.77-21.67-28-17.36-22.72,3.5-22.72,3.5-6.22-3-2.33-10.37a3.18,3.18,0,0,1,1.67-1.27c5.44-2.29,21.11-1.18,21.11-1.18,17.6.65,25,10.6,28.06,18.16l0,.09A30.17,30.17,0,0,1,487.45,266.14Z" transform="translate(-159 -56.1)"/><path class="cls-9" d="M488.19,268s-12.37-22.78-29.4-18.25-23.89,3.68-23.89,3.68-6.53-3.19-2.45-10.91c.47-.87,1.82-1.49,3.66-1.92a3.18,3.18,0,0,0-1.67,1.27c-3.89,7.34,2.33,10.37,2.33,10.37s6.52.81,22.72-3.5,28,17.36,28,17.36a30.17,30.17,0,0,0-2.13-8.43A32.24,32.24,0,0,1,488.19,268Z" transform="translate(-159 -56.1)"/><path class="cls-15" d="M487.45,266.28s-11.77-21.67-28-17.36-22.72,3.49-22.72,3.49-6.22-3-2.33-10.37a3.51,3.51,0,0,1,1.93-1.37c-2.72,6.53,2.86,9.25,2.86,9.25s6.53.81,22.72-3.5c9.68-2.58,17.77,4.13,22.73,9.94v0A30.57,30.57,0,0,1,487.45,266.28Z" transform="translate(-159 -56.1)"/><path class="cls-14" d="M484.68,256.36c-5-5.81-13.05-12.52-22.73-9.94-16.19,4.31-22.72,3.5-22.72,3.5s-5.58-2.72-2.86-9.25c5.66-2.15,20.85-1.07,20.85-1.07C473.76,240.21,481.28,249,484.68,256.36Z" transform="translate(-159 -56.1)"/><path class="cls-14" d="M368.65,241.91c-2.21-3.84-22.78-2.45-22.78-2.45-28.61,1-30.23,26.68-30.23,26.68s11.77-21.67,28-17.36,22.72,3.49,22.72,3.49S372.94,249.34,368.65,241.91Z" transform="translate(-159 -56.1)"/><path class="cls-4" d="M266,236.4s1.85,23.22,10.41,31.76l.51,9.2s-7.85-.73-6.93,20.21.26,12.42.26,12.42l7.23-1.6,5.22-30.94L282,259l-5-22.56-2.57-11.49Z" transform="translate(-159 -56.1)"/><path class="cls-15" d="M338.46,240.32a27.36,27.36,0,0,0-11.3,12.08c-7.42,5.29-12,13.79-12,13.79S316.47,244.84,338.46,240.32Z" transform="translate(-159 -56.1)"/><path class="cls-16" d="M294.21,349.56s-5.24,6.64-12.93,2.79c-7.34-3.67-13.73-48.4-6.09-71.62a3.07,3.07,0,0,1,4.32-1.77c3.14,1.62,7.72,4.61,9.07,8.8C288.58,287.76,292.87,346.67,294.21,349.56Z" transform="translate(-159 -56.1)"/><path class="cls-17" d="M295.6,288.66h-9s-5.09,48.74,7.34,60.9c0,0,4.51,1.74,8.37,0C302.34,349.56,294.48,326.86,295.6,288.66Z" transform="translate(-159 -56.1)"/><path class="cls-18" d="M299.76,340c-7.79-10.76-7.24-38.1-6.43-51.49h2.16C294.79,312.21,297.56,330,299.76,340Z" transform="translate(-159 -56.1)"/><path class="cls-19" d="M279.72,279.2c-1.77-.63-.45-11.86-.45-11.86H287v17.77A15.16,15.16,0,0,0,279.72,279.2Z" transform="translate(-159 -56.1)"/><path class="cls-5" d="M520.62,245.88c-2.84,22.49-4.56,36.32-5.55,44.51h-2S544.18,151.91,394.78,154.1c-81.3-1.19-109.51,39.27-118.33,76.41,1.33-25.76,5-51.65,13.94-58.51,7.78-5.95,25.56-20.49,48.56-32.53,15.54-4.38,34-7.18,55.83-7.87,49.91,1.59,82,14.13,102.25,31.53C512.42,179.57,525.69,205.75,520.62,245.88Z" transform="translate(-159 -56.1)"/><path class="cls-16" d="M508.11,349.56s5.24,6.64,12.93,2.79c7.34-3.67,13.72-48.4,6.09-71.62a3.07,3.07,0,0,0-4.32-1.77c-3.14,1.62-7.72,4.61-9.07,8.8C513.74,287.76,511.12,346.07,508.11,349.56Z" transform="translate(-159 -56.1)"/><path class="cls-18" d="M506.48,288.66h9s5.09,48.74-7.34,60.9c0,0-4.51,1.74-8.37,0C499.74,349.56,506.27,332.45,506.48,288.66Z" transform="translate(-159 -56.1)"/><path class="cls-18" d="M515.1,285.11V267.34h7.71s.68,9.87,0,11.62C522.81,279,515.71,282.69,515.1,285.11Z" transform="translate(-159 -56.1)"/><path class="cls-20" d="M522.81,267.35H515.1s29.82-132.83-113.48-130.73C258.32,134.52,287,267.35,287,267.35h-7.71S226.17,120.63,401.62,115C577.08,120.63,522.81,267.35,522.81,267.35Z" transform="translate(-159 -56.1)"/><path class="cls-21" d="M395.56,115.28c-16.27,6.73-28.38,15.59-37.28,25.6-94,22.53-71.59,126.47-71.59,126.47H279S227.06,123.88,395.56,115.28Z" transform="translate(-159 -56.1)"/><path class="cls-22" d="M362.24,460.54c.85.19,1.74.36,2.68.51,0,0,18.41-1.86,28.66,4.66s22.37,0,22.37,0,8.86-5.12,25.17-5.59c13.49-.38,19.65-11.05,21.38-14.73a5.15,5.15,0,0,0,.48-2.47c-.27-4.91-2.4-22.7-18.73-24,15.71,4.43,7.12,20.74,7.12,20.74s-16.31,19.1-37.9,8.85-26-7-45.49-7.92c-.48,0-.94-.06-1.38-.1a17.48,17.48,0,0,1-5.75-1.44h0A36.52,36.52,0,0,0,362.24,460.54Z" transform="translate(-159 -56.1)"/><path class="cls-22" d="M462,434.26a29.29,29.29,0,0,1-2.82,9.57s-20.45,23.95-47.52,11.09c-24.79-11.76-31.47-9.33-51.22-9.74a28.94,28.94,0,0,1,.93-6.17h0a17.48,17.48,0,0,0,5.75,1.44c.44,0,.9.08,1.38.1,19.54.93,23.9-2.33,45.49,7.92s37.9-8.85,37.9-8.85,8.59-16.31-7.12-20.74C455.34,419.75,460,427.55,462,434.26Z" transform="translate(-159 -56.1)"/><path class="cls-23" d="M463.47,442.92a5.15,5.15,0,0,1-.48,2.47c-1.73,3.68-7.89,14.35-21.38,14.73-16.31.47-25.17,5.59-25.17,5.59s-12.11,6.53-22.37,0-28.66-4.66-28.66-4.66c-.94-.15-1.83-.32-2.68-.51a37.79,37.79,0,0,1-2.33-15.36c19.75.41,26.43-2,51.22,9.74,27.07,12.86,47.52-11.09,47.52-11.09a29.29,29.29,0,0,0,2.82-9.57A38.62,38.62,0,0,1,463.47,442.92Z" transform="translate(-159 -56.1)"/><path class="cls-24" d="M287,353.55s3.18,14.53-1.38,36.9,2.2,10.49,10,22.37c6.61,10.07,3.6,18.14,8.07,31.45a59.68,59.68,0,0,0,3.22,7.7c9.09,18.17,22.37,17.47,25.17,32.85,2.39,13.19-1.13,32.56,8.08,49.27" transform="translate(-159 -56.1)"/><path class="cls-24" d="M445,538.24h0c10.15-29.7,37.8-70.47,42.44-74.39,3-2.52,10.25-12.64,15.38-25.11,4.84-11.75,7.78-25.58,3.44-37.1-8.93-23.77,9.7-48.1,10.21-48.09" transform="translate(-159 -56.1)"/><path class="cls-24" d="M322.55,528.75a32.55,32.55,0,0,0-1-4.78" transform="translate(-159 -56.1)"/><path class="cls-25" d="M414.21,520.73l-7.58-2.94-6.26-5.26a2.17,2.17,0,0,1,1.31-1l9.5-2.58a.64.64,0,0,1,.78.45l2.52,9.26A2.75,2.75,0,0,1,414.21,520.73Z" transform="translate(-159 -56.1)"/><polygon class="cls-26" points="255.21 464.63 250.72 472.47 246.03 473.75 239.75 475.45 236.76 464.48 241.37 456.43 247.63 461.69 255.21 464.63"/><polygon class="cls-27" points="250.72 472.47 247.3 478.43 236.33 481.41 233.35 470.44 236.76 464.48 239.75 475.45 246.03 473.75 250.72 472.47"/><path class="cls-25" d="M393.8,555.14l-.19.06-8.31,2.26a1.7,1.7,0,0,1-2.09-1.2l-2.3-8.46a2.66,2.66,0,0,1-.07-.39l6,5Z" transform="translate(-159 -56.1)"/><path class="cls-26" d="M406.3,534.53,395.15,554a2.54,2.54,0,0,1-1.35,1.13l-7-2.72-6-5a2.13,2.13,0,0,1,.28-1.25l11.23-19.62,3,11Z" transform="translate(-159 -56.1)"/><path class="cls-24" d="M393.57,524s-9.16,0-10-42.43c-.3-15.55,2-31.55-14.68-48.38" transform="translate(-159 -56.1)"/><path class="cls-24" d="M412.53,511.49s15.48-13.22,15.3-34,12.33-45.26,12.33-45.26" transform="translate(-159 -56.1)"/><path class="cls-9" d="M403.32,329.88s-3.05,19.09,10.15,25.85c0,0,3.65,1.22-11.85,8.53,0,0,6.11-5.37,1.81-24.11Z" transform="translate(-159 -56.1)"/><path class="cls-9" d="M430.8,373.06s-10.2,18.35-30.72,4.13c0,0-18.94,14.46-30.15-4.13,0,0,2.77,18.73,25.7,16.72C419.31,387.71,428.77,382.15,430.8,373.06Z" transform="translate(-159 -56.1)"/><path class="cls-23" d="M294.21,217.74s19.41,6.67,42.46-23.19,34.11-29.89,34.11-29.89-45.58,3.07-57,26.86S301.86,213.05,294.21,217.74Z" transform="translate(-159 -56.1)"/><path class="cls-23" d="M425.79,164.66s33.86-.46,50.33,22.93,23.62,33.68,23.62,33.68-32-12.2-49.45-34.18S425.79,164.66,425.79,164.66Z" transform="translate(-159 -56.1)"/><path class="cls-9" d="M436.28,259.93s38-12.24,54.14,22.67C490.42,282.6,472.22,252.9,436.28,259.93Z" transform="translate(-159 -56.1)"/></g><g id="Trazo"><path class="cls-24" d="M501.08,232.59a303.16,303.16,0,0,1,4.73,41.82q.7,14.28.33,30.44S508.21,427.15,401,427.18h0c-107.25,0-105.18-122.33-105.18-122.33-.67-27.92,1.2-51.48,4.89-71.37" transform="translate(-159 -56.1)"/><path d="M326.29,319.62c3.72,0,7.43.17,11.14.32s7.42.37,11.13.59,7.41.49,11.11.82l5.55.49c1.85.2,3.7.37,5.55.6-1.86,0-3.72-.08-5.58-.11l-5.57-.21c-3.71-.15-7.41-.37-11.12-.59s-7.41-.5-11.11-.82S330,320.06,326.29,319.62Z" transform="translate(-159 -56.1)"/><path d="M378.55,308.5a47.45,47.45,0,0,0,.13-15.59,28.41,28.41,0,0,0-6-13.85,24.2,24.2,0,0,0-5.63-4.91,29.44,29.44,0,0,0-6.84-3.14,49.2,49.2,0,0,0-15.12-2.14,42.47,42.47,0,0,0-15,2.31,27.66,27.66,0,0,0-6.57,3.56,24.72,24.72,0,0,0-5.18,5.38A33.14,33.14,0,0,0,313,294.35a51.75,51.75,0,0,0-.58,7.78A54.49,54.49,0,0,0,313,310a44.78,44.78,0,0,1-1.32-7.83,49.43,49.43,0,0,1-.05-8,33.08,33.08,0,0,1,4.86-15.36,25,25,0,0,1,5.5-6.16,31,31,0,0,1,7.16-4.13,44.61,44.61,0,0,1,16-2.66,62.33,62.33,0,0,1,8.07.59c1.34.15,2.67.49,4,.72.67.16,1.32.36,2,.53a17.08,17.08,0,0,1,2,.61,32.86,32.86,0,0,1,7.38,3.63,24.88,24.88,0,0,1,6,5.66,29,29,0,0,1,5.61,15.11A42.5,42.5,0,0,1,378.55,308.5Z" transform="translate(-159 -56.1)"/><circle class="cls-28" cx="199.17" cy="241.47" r="9.81"/><circle class="cls-29" cx="199.17" cy="241.47" r="18.37"/><path d="M476.12,322.3c-3.69.44-7.39.77-11.09,1.09s-7.41.57-11.11.82-7.42.44-11.13.59l-5.57.21c-1.86,0-3.71.1-5.57.11,1.84-.23,3.69-.4,5.54-.6l5.55-.49c3.7-.33,7.41-.57,11.11-.82s7.42-.44,11.13-.59S472.4,322.33,476.12,322.3Z" transform="translate(-159 -56.1)"/><path d="M423.86,311.18a42.29,42.29,0,0,1-1.58-15.78,28.92,28.92,0,0,1,5.61-15.11,24.51,24.51,0,0,1,6-5.66,32.65,32.65,0,0,1,7.38-3.63,17.55,17.55,0,0,1,2-.61c.66-.17,1.32-.37,2-.53,1.33-.23,2.66-.57,4-.72a62.46,62.46,0,0,1,8.07-.59,44.58,44.58,0,0,1,16,2.66,30.59,30.59,0,0,1,7.16,4.13A25.26,25.26,0,0,1,486,281.5a33.19,33.19,0,0,1,4.86,15.36,49.56,49.56,0,0,1,0,8,46.79,46.79,0,0,1-1.32,7.82,54.48,54.48,0,0,0,.48-7.86,50.47,50.47,0,0,0-.58-7.78A33.14,33.14,0,0,0,484,282.8a24.9,24.9,0,0,0-5.17-5.38,27.73,27.73,0,0,0-6.58-3.56,42.43,42.43,0,0,0-15-2.31,49.18,49.18,0,0,0-15.11,2.14,29.48,29.48,0,0,0-6.84,3.14,24,24,0,0,0-5.63,4.91,28.43,28.43,0,0,0-6,13.85A47.72,47.72,0,0,0,423.86,311.18Z" transform="translate(-159 -56.1)"/><circle class="cls-28" cx="285.25" cy="244.15" r="9.81"/><circle class="cls-29" cx="285.25" cy="244.15" r="18.37"/><path d="M403.37,329.63a40.19,40.19,0,0,0,.31,7,33.49,33.49,0,0,0,1.6,6.71,25.33,25.33,0,0,0,3.07,6.05,26,26,0,0,0,4.53,5l-.52-.22a2.93,2.93,0,0,1,1.52.71,1.81,1.81,0,0,1,.55,1,2,2,0,0,1-.1,1,3.48,3.48,0,0,1-.79,1.2,8.39,8.39,0,0,1-.88.82,24,24,0,0,1-3.76,2.32,55.56,55.56,0,0,1-8,3.26c2.43-1.52,4.9-2.95,7.24-4.51a25.91,25.91,0,0,0,3.29-2.47,3.66,3.66,0,0,0,1-1.26c0-.07,0-.06,0,0s0,.11,0,.1a1.21,1.21,0,0,0-.42-.13h-.27l-.24-.21a24.21,24.21,0,0,1-5-5.43l-.53-.77c-.16-.26-.3-.54-.44-.81-.29-.54-.61-1.08-.87-1.64a29.26,29.26,0,0,1-1.26-3.46,26.9,26.9,0,0,1-1-7.21A24.39,24.39,0,0,1,403.37,329.63Z" transform="translate(-159 -56.1)"/><path d="M370.78,373.38a20.06,20.06,0,0,0,6.12,5.92,15.78,15.78,0,0,0,7.77,2.38,21.2,21.2,0,0,0,8-1.46,37.19,37.19,0,0,0,7.43-3.85l.9-.58.87.69a26.22,26.22,0,0,0,3.44,2.26,28.12,28.12,0,0,0,3.8,1.71,20.08,20.08,0,0,0,8.1,1.28,17.48,17.48,0,0,0,7.86-2.57,29.53,29.53,0,0,0,6.56-5.67,23.52,23.52,0,0,1-5.72,6.88,17.61,17.61,0,0,1-8.45,3.69,20.79,20.79,0,0,1-9.27-.92,28.24,28.24,0,0,1-4.27-1.82,27,27,0,0,1-4-2.53l1.77.1a37.2,37.2,0,0,1-8.13,4,21.52,21.52,0,0,1-9.13,1.11,16.33,16.33,0,0,1-8.44-3.5A17.5,17.5,0,0,1,370.78,373.38Z" transform="translate(-159 -56.1)"/><path d="M310.78,282.6a38.45,38.45,0,0,1,8.84-13.36,38.9,38.9,0,0,1,13.53-8.77,43.6,43.6,0,0,1,15.9-2.66,58.26,58.26,0,0,1,8,.69c1.33.22,2.64.52,3.95.77s2.6.67,3.89,1a70.32,70.32,0,0,0-15.87-1.71,51,51,0,0,0-7.91.71,41.78,41.78,0,0,0-7.64,2.12,39.4,39.4,0,0,0-13.35,8.38,41.54,41.54,0,0,0-5.27,6A39.18,39.18,0,0,0,310.78,282.6Z" transform="translate(-159 -56.1)"/><path d="M490.42,282.24a39.18,39.18,0,0,0-4.1-6.85,42.17,42.17,0,0,0-5.27-6,39.53,39.53,0,0,0-13.35-8.37,41.78,41.78,0,0,0-7.64-2.12,51,51,0,0,0-7.91-.72,70.33,70.33,0,0,0-15.87,1.72c1.29-.35,2.58-.7,3.89-1s2.62-.55,3.95-.77a56.75,56.75,0,0,1,8-.69,43.39,43.39,0,0,1,15.9,2.66,39,39,0,0,1,13.53,8.76A38.49,38.49,0,0,1,490.42,282.24Z" transform="translate(-159 -56.1)"/><path d="M366.32,252.27a37.81,37.81,0,0,1-7.29-.22c-2.43-.27-4.84-.65-7.23-1.1s-4.78-1-7.14-1.59a18,18,0,0,0-7.09-.68,18.6,18.6,0,0,0-6.75,2.23,28.16,28.16,0,0,0-5.82,4.18,47.52,47.52,0,0,0-8.93,11.28l-1.15,2,.23-2.25a31.35,31.35,0,0,1,6.24-15.72,27.13,27.13,0,0,1,6.19-5.86,29,29,0,0,1,7.66-3.69,38.34,38.34,0,0,1,8.34-1.56l2.12-.12c.73,0,1.41,0,2.12.07l4.21.22c2.8.19,5.6.42,8.39.74,1.4.17,2.79.35,4.18.6a16.8,16.8,0,0,1,4,1.12,16.72,16.72,0,0,0-4.08-1c-1.39-.21-2.78-.35-4.18-.48-2.79-.24-5.59-.38-8.39-.5l-4.2-.16c-.7,0-1.41-.05-2.09,0l-2.08.15a38.23,38.23,0,0,0-8.14,1.68,29.51,29.51,0,0,0-7.41,3.64,26.66,26.66,0,0,0-6,5.7,31.31,31.31,0,0,0-6,15.22l-.92-.26a48.56,48.56,0,0,1,9.19-11.48c3.62-3.27,8.09-6,13.09-6.47a18.65,18.65,0,0,1,7.32.82c2.34.65,4.71,1.19,7.08,1.72s4.76,1,7.17,1.3A41,41,0,0,0,366.32,252.27Z" transform="translate(-159 -56.1)"/><path d="M436.77,252.27a41.07,41.07,0,0,0,7.26-.47c2.4-.33,4.79-.78,7.17-1.3s4.73-1.07,7.07-1.72a18.67,18.67,0,0,1,7.33-.82c5,.5,9.47,3.2,13.09,6.47a48.77,48.77,0,0,1,9.18,11.48l-.91.26A31.32,31.32,0,0,0,481,251a26.83,26.83,0,0,0-5.95-5.7,29.41,29.41,0,0,0-7.42-3.64,38.1,38.1,0,0,0-8.14-1.68l-2.08-.15c-.67,0-1.39,0-2.09,0l-4.2.16c-2.8.12-5.6.26-8.39.5-1.4.13-2.79.27-4.18.48a16.75,16.75,0,0,0-4.07,1,16.68,16.68,0,0,1,4.05-1.12c1.38-.25,2.78-.43,4.17-.6,2.79-.32,5.59-.55,8.4-.74l4.2-.22c.71,0,1.4-.08,2.12-.07l2.12.12a38.23,38.23,0,0,1,8.34,1.56,29,29,0,0,1,7.67,3.69,27.56,27.56,0,0,1,6.19,5.86,31.43,31.43,0,0,1,6.23,15.72l.23,2.25-1.14-2a47.77,47.77,0,0,0-8.93-11.28,28.7,28.7,0,0,0-5.82-4.18,18.73,18.73,0,0,0-6.75-2.23,18.05,18.05,0,0,0-7.1.68q-3.54.9-7.13,1.59c-2.4.45-4.81.83-7.23,1.1A37.83,37.83,0,0,1,436.77,252.27Z" transform="translate(-159 -56.1)"/><path class="cls-24" d="M295.6,279.2s-25.05-34.15,17.94-53.37,86-69.56,86-69.56,36.77,40.51,59.77,55.23c22.12,14.15,49.63,17.12,53.13,37.05,1,5.77,2.87,20.61-6.61,25.86" transform="translate(-159 -56.1)"/><path class="cls-24" d="M295.6,288.66h-9s-5.09,48.74,7.34,60.9c0,0,4.51,1.74,8.37,0" transform="translate(-159 -56.1)"/><path class="cls-24" d="M294,349.56s-5.24,6.64-12.93,2.79c-7.34-3.67-13.72-48.4-6.09-71.62a3.07,3.07,0,0,1,4.32-1.77c3.14,1.62,7.72,4.61,9.08,8.8" transform="translate(-159 -56.1)"/><path class="cls-24" d="M279.27,279c-.68-1.75,0-11.62,0-11.62H287v17.77" transform="translate(-159 -56.1)"/><path class="cls-24" d="M287,267.34S258.32,134.52,401.62,136.61" transform="translate(-159 -56.1)"/><path class="cls-24" d="M279.27,267.34S226.16,120.62,401.62,115" transform="translate(-159 -56.1)"/><path class="cls-24" d="M506.48,288.66h9s5.09,48.74-7.34,60.9c0,0-4.51,1.74-8.37,0" transform="translate(-159 -56.1)"/><path class="cls-24" d="M508.11,349.56s5.24,6.64,12.93,2.79c7.34-3.67,13.72-48.4,6.09-71.62a3.07,3.07,0,0,0-4.32-1.77c-3.14,1.62-7.72,4.61-9.07,8.8" transform="translate(-159 -56.1)"/><path class="cls-24" d="M522.81,279c.68-1.75,0-11.62,0-11.62H515.1v17.77" transform="translate(-159 -56.1)"/><path class="cls-24" d="M515.1,267.34s29.82-132.82-113.48-130.73" transform="translate(-159 -56.1)"/><path class="cls-24" d="M522.81,267.34S577.08,120.62,401.62,115" transform="translate(-159 -56.1)"/><path class="cls-24" d="M269.62,217.74S238.86,233.42,257,279.2s15.46,42.95,18.68,63" transform="translate(-159 -56.1)"/><path class="cls-24" d="M362.24,460.54c.85.19,1.74.36,2.68.51,0,0,18.41-1.86,28.66,4.66s22.37,0,22.37,0,8.86-5.12,25.17-5.59c13.49-.38,19.65-11.05,21.38-14.73a5.15,5.15,0,0,0,.48-2.47c-.27-4.91-2.4-22.7-18.73-24,15.71,4.43,7.12,20.74,7.12,20.74s-16.31,19.1-37.9,8.85-26-7-45.49-7.92c-.48,0-.94-.06-1.38-.1a17.48,17.48,0,0,1-5.75-1.44h0" transform="translate(-159 -56.1)"/><path class="cls-24" d="M295.6,152.72c23.85-70.66,105.21-48.87,105.21-48.87S484,86.26,507.37,152.72" transform="translate(-159 -56.1)"/><path class="cls-24" d="M251.71,490c11.57-34.17,35.46-43.56,52-45.74a66.84,66.84,0,0,1,7.13-.56c1.81,0,3.43,0,4.83,0a36.15,36.15,0,0,0,13.64-2.25" transform="translate(-159 -56.1)"/><path class="cls-24" d="M456.55,424.89h0a11,11,0,0,0,1.86,2.5s0,0,0,0c.34.37.73.76,1.19,1.18h0c4.69,4.23,15.78,10.54,40.11,10.08,1,0,2.06,0,3.09.05,22.28,1,42.68,17.38,50.16,50.67" transform="translate(-159 -56.1)"/><path class="cls-24" d="M366.6,440.44c3.64-4.77,2.19-13.87,1.59-16.83a.43.43,0,0,0-.78-.15c-2.92,4.32-15.5,25.38.38,47.37,17.82,24.66,17.65,42.06,15.8,53.13,0,0-2.26-13.59-32.63-30.1s-20.93-57-20-62.38c3.2-18-11.42-41.8-15.34-50.51" transform="translate(-159 -56.1)"/><path class="cls-24" d="M441.3,420.1s-2.56,18,0,26.1" transform="translate(-159 -56.1)"/><path class="cls-24" d="M340.15,534.09c-9.21-16.71-5.69-36.08-8.08-49.27C329.27,469.44,316,470.14,306.9,452a59.68,59.68,0,0,1-3.22-7.7c-4.47-13.31-1.46-21.38-8.07-31.45-7.81-11.88-14.57,0-10-22.37s1.38-36.9,1.38-36.9" transform="translate(-159 -56.1)"/><path class="cls-24" d="M445,538.24h0c10.15-29.7,37.8-70.47,42.44-74.39,3-2.52,10.25-12.64,15.38-25.11,4.84-11.75,7.78-25.58,3.44-37.1-8.93-23.77,9.7-48.1,10.21-48.09" transform="translate(-159 -56.1)"/><path class="cls-24" d="M294,364.58s-6.64,7.69,12.93,32.16,3.88,47,3.88,47" transform="translate(-159 -56.1)"/><path class="cls-24" d="M414.21,520.72l-4.49,7.85L405,529.85l-6.29,1.7-3-11,4.61-8.05a2.17,2.17,0,0,1,1.31-1l9.49-2.58a.64.64,0,0,1,.79.44l2.51,9.27A2.72,2.72,0,0,1,414.21,520.72Z" transform="translate(-159 -56.1)"/><polygon class="cls-24" points="250.72 472.47 247.3 478.43 236.33 481.41 233.35 470.44 236.76 464.48 239.75 475.45 246.03 473.75 250.72 472.47"/><path class="cls-24" d="M406.3,534.53,395.15,554a2.56,2.56,0,0,1-1.55,1.2l-8.31,2.26a1.71,1.71,0,0,1-2.09-1.2l-2.3-8.47a2.19,2.19,0,0,1,.21-1.64l11.24-19.61,3,11Z" transform="translate(-159 -56.1)"/><path d="M398.74,531.55a38.33,38.33,0,0,1,2.8-5.89,37.89,37.89,0,0,1,3.66-5.39,42,42,0,0,1-6.46,11.28Z" transform="translate(-159 -56.1)"/><polygon points="241.37 456.43 247.95 461.31 247.81 461.22 255.21 464.63 247.45 462.15 247.37 462.13 247.31 462.07 241.37 456.43"/><polygon points="221.54 491.06 228.12 495.93 227.98 495.85 235.38 499.26 227.62 496.78 227.54 496.76 227.47 496.7 221.54 491.06"/><line class="cls-24" x1="236.33" y1="481.41" x2="230.61" y2="491.41"/><path class="cls-24" d="M393.57,524s-9.16,0-10-42.43c-.3-15.55,2-31.55-14.68-48.38" transform="translate(-159 -56.1)"/><path class="cls-24" d="M412.53,511.49s15.48-13.22,15.3-34,12.33-45.26,12.33-45.26" transform="translate(-159 -56.1)"/></g></svg>