<?xml version="1.0" encoding="utf-8"?>
<!-- Generator: Adobe Illustrator 23.0.3, SVG Export Plug-In . SVG Version: 6.00 Build 0)  -->
<svg version="1.1" xmlns="http://www.w3.org/2000/svg" xmlns:xlink="http://www.w3.org/1999/xlink" x="0px" y="0px"
	 viewBox="0 0 300 300" style="enable-background:new 0 0 300 300;" xml:space="preserve">
<style type="text/css">
	.st0{display:none;}
	.st1{display:inline;}
	.st2{stroke:#000000;stroke-width:0.5;stroke-miterlimit:10;}
	.st3{fill:none;stroke:#000000;stroke-width:0.5;stroke-miterlimit:10;}
</style>
<g id="Capa_2" class="st0">
	<rect class="st1" width="300" height="300"/>
</g>
<g id="Capa_1">
	<path class="st2" d="M224.3,265.3h-12.5l10.1,7.3l-3.9,11.9l7.9-5.7v-18.5L224.3,265.3z"/>
	<polygon class="st3" points="234.4,272.6 238.2,284.5 228.2,277.2 225.9,278.8 225.9,260.2 228.2,253.4 232,265.3 244.5,265.3 	"/>
	<polygon class="st2" points="195.3,272.6 199.2,284.5 189.1,277.2 179,284.5 182.8,272.6 172.7,265.3 185.2,265.3 189.1,253.4 
		192.9,265.3 205.4,265.3 	"/>
	<polygon class="st2" points="156.2,272.6 160.1,284.5 150,277.2 139.9,284.5 143.8,272.6 133.7,265.3 146.1,265.3 150,253.4 
		153.9,265.3 166.3,265.3 	"/>
	<polygon class="st2" points="117.2,272.6 121,284.5 110.9,277.2 100.8,284.5 104.7,272.6 94.6,265.3 107.1,265.3 110.9,253.4 
		114.8,265.3 127.3,265.3 	"/>
	<polygon class="st2" points="78.1,272.6 82,284.5 71.8,277.2 61.8,284.5 65.6,272.6 55.5,265.3 68,265.3 71.8,253.4 75.7,265.3 
		88.2,265.3 	"/>
	<g>
		<g id="HTML">
			<path d="M67.6,46.6l15,167.8l67.1,18.6l67.3-18.7l15-167.8H67.6z M204.2,203.7l-54.4,15.1l-54.4-15.1L82.6,60.3H217L204.2,203.7z
				"/>
			<polygon points="201.2,80.9 200.8,86.4 199.8,96.9 199.4,101.5 120.6,101.5 122.5,122.6 197.5,122.6 197,128.1 192.2,182.3 
				191.9,185.8 149.8,197.4 149.8,197.4 149.7,197.5 107.5,185.8 104.6,153.4 125.3,153.4 126.7,169.9 149.7,176 149.7,176 
				149.8,176 149.8,176 172.6,169.8 175,143.1 103.7,143.1 98.6,86.4 98.1,80.9 			"/>
		</g>
		<path d="M83.1,1h10.5v10.3h9.6V1h10.5v31.3h-10.5V21.8h-9.6v10.5H83.1L83.1,1z M127.3,11.4h-9.2V1H147v10.4h-9.2v20.9h-10.5
			L127.3,11.4L127.3,11.4z M151.6,1h10.9l6.7,11l6.7-11h10.9v31.3h-10.4V16.8l-7.2,11.1H169l-7.2-11.1v15.5h-10.2L151.6,1L151.6,1z
			 M192,1h10.5v20.9h14.7v10.3H192V1z"/>
	</g>
</g>
</svg>
