<svg id="Capa_1" data-name="Capa 1" xmlns="http://www.w3.org/2000/svg" viewBox="0 0 176.03 282.77"><title>HTML</title><polygon points="169.99 258.63 169.99 277.05 162.14 282.77 165.99 270.91 155.9 263.57 168.38 263.57 169.99 258.63"/><polygon points="149.55 263.57 139.46 270.91 143.31 282.77 133.22 275.43 123.18 282.77 127.03 270.91 116.94 263.57 129.37 263.57 133.22 251.76 137.07 263.57 149.55 263.57"/><polygon points="110.59 263.57 100.5 270.91 104.35 282.77 94.26 275.43 84.22 282.77 88.01 270.91 77.97 263.57 90.41 263.57 94.26 251.76 98.11 263.57 110.59 263.57"/><polygon points="32.62 263.57 22.58 270.91 26.43 282.77 16.33 275.43 6.24 282.77 10.09 270.91 0 263.57 12.48 263.57 16.33 251.76 20.18 263.57 32.62 263.57"/><polygon points="71.58 263.57 61.54 270.91 65.39 282.77 55.3 275.43 45.2 282.77 49.05 270.91 39.01 263.57 51.45 263.57 55.3 251.76 59.14 263.57 71.58 263.57"/><g id="HTML"><path d="M68,54.08,82.93,221.47l67,18.57,67.15-18.62L232,54.08ZM204.29,210.81l-54.26,15-54.3-15L83,67.76H217Z" transform="translate(-55.99 -8.62)"/><polygon points="145.38 79.68 144.89 85.19 143.96 95.6 143.54 100.21 64.99 100.21 66.86 121.24 141.68 121.24 141.18 126.75 136.35 180.79 136.04 184.26 94.03 195.91 94.03 195.91 93.93 195.94 51.88 184.26 49 152.03 69.61 152.03 71.07 168.4 93.94 174.58 93.96 174.57 94.03 174.55 94.03 174.55 116.85 168.39 119.24 141.76 48.09 141.76 43.04 85.19 42.55 79.68 145.38 79.68"/></g><path d="M202.62,29.48V8.62H192.17V39.83h25.12V29.48ZM176.09,8.62l-6.65,10.92L162.73,8.62H151.85V39.83h10.2V24.33l7.18,11.13h.15l7.18-11.13v15.5H187V8.62Zm-57.63,0V19h9.21V39.83h10.4V19h9.21V8.62Zm-15,0v10.3H94V8.62H83.5V39.83H94V29.37h9.52V39.83h10.45V8.62Z" transform="translate(-55.99 -8.62)"/></svg>