<svg id="Capa_1" data-name="Capa 1" xmlns="http://www.w3.org/2000/svg" viewBox="0 0 237.39 282.77"><title>Illustrator</title><polygon points="135.01 263.58 124.92 270.91 128.76 282.77 118.68 275.44 108.64 282.77 112.48 270.91 102.4 263.58 114.84 263.58 118.68 251.73 122.56 263.58 135.01 263.58"/><polygon points="157.68 251.73 157.68 275.44 147.6 282.77 151.44 270.91 141.35 263.58 153.8 263.58 157.68 251.73"/><polygon points="96.05 263.58 85.97 270.91 89.8 282.77 79.72 275.44 69.64 282.77 73.47 270.91 63.44 263.58 75.88 263.58 79.72 251.73 83.56 263.58 96.05 263.58"/><polygon points="57.05 263.58 46.96 270.91 50.85 282.77 40.77 275.44 30.68 282.77 34.52 270.91 24.43 263.58 36.93 263.58 40.77 251.73 44.6 263.58 57.05 263.58"/><path d="M41.19,18.5H258.76V230.18H41.19ZM31.3,240.06H268.7V8.62H31.3ZM186.79,91.14c0-.81.29-1.19,1.19-1.19h15.54c.81,0,1.19.28,1.19,1.19v78.05c0,.81-.19,1.19-1.19,1.19H188.17c-1,0-1.28-.48-1.28-1.29V91.14ZM185.7,68.65c0-6.32,4.47-10.07,10.08-10.07,6,0,10.07,4,10.07,10.07,0,6.52-4.23,10.08-10.26,10.08C189.88,78.78,185.7,75.21,185.7,68.65Zm-44.49,55c-2.76-11-9.32-34.89-11.79-46.49h-.19c-2.09,11.55-7.32,31.14-11.46,46.49Zm-27.48,16-7.8,29.66c-.19.81-.47,1-1.47,1H89.92c-1,0-1.19-.28-1-1.47L117,70.55c.48-1.75.81-3.37,1-8.22,0-.71.28-1,.81-1h20.77c.71,0,1,.19,1.19,1l31.47,106.72c.19.81,0,1.28-.81,1.28H155c-.81,0-1.28-.19-1.47-.9l-8.13-29.76Z" transform="translate(-31.3 -8.62)"/></svg>