<svg id="Capa_1" data-name="Capa 1" xmlns="http://www.w3.org/2000/svg" viewBox="0 0 278 121.05"><defs><style>.cls-1{fill:#3abad7;}</style></defs><title>logo 2</title><path id="N" class="cls-1" d="M236.1,206.7V162.1a6.2,6.2,0,0,1,3.5-5.5,5.94,5.94,0,0,1,6.5,1L277,187.3V155.9h12v44.8a6,6,0,0,1-10,4.5l-30.9-29.7v31.1h-12Z" transform="translate(-11 -85.75)"/><path id="E" class="cls-1" d="M231.1,194.4v12.2H184V155.8h44.8v11.5H197.1l.1,7.7h18.4a6.16,6.16,0,0,1,0,12.3H197.2v7h33.9Z" transform="translate(-11 -85.75)"/><path id="H" class="cls-1" d="M176.8,206.7H164.6V187.4H138.3v19.3H126.1v-45a6.05,6.05,0,0,1,6.1-5.7,6.12,6.12,0,0,1,6.1,5.7h.1v13.6h26.3V161.9a6.1,6.1,0,0,1,12.2,0v44.8Z" transform="translate(-11 -85.75)"/><path id="A" class="cls-1" d="M119.6,181.5v25.3H107.4V199H92.2c-.2,0-.4.1-.6.1a6.11,6.11,0,0,1-.4-12.2h16.3v-5.3a13.1,13.1,0,1,0-26.2,0v25.2H68.9V181.6a25.35,25.35,0,1,1,50.7-.1Z" transform="translate(-11 -85.75)"/><path id="Linea" class="cls-1" d="M98,87.1l-4.6,4.6a4.59,4.59,0,0,0,0,6.5l15,15a4.59,4.59,0,0,0,6.5,0l4.6-4.6a4.59,4.59,0,0,0,0-6.5l-15-15A4.59,4.59,0,0,0,98,87.1Z" transform="translate(-11 -85.75)"/><path id="J" class="cls-1" d="M85.5,99.5a36.13,36.13,0,0,0-34.7,26.3,38.55,38.55,0,0,0-1.2,5.9V182a13.25,13.25,0,0,1-13.2,12.5,13.1,13.1,0,0,1-13.2-13.1H11a25.37,25.37,0,0,0,50.7,1.4v-20l-.1-.1h.1A71,71,0,0,0,89,151.8a51.86,51.86,0,0,0,10.1-8.9,13.44,13.44,0,0,0,1.1-1.4,39.61,39.61,0,0,0,3.1-5.2,35.21,35.21,0,0,0,3.6-15.5ZM75.2,119a13.39,13.39,0,0,1,4.9,1A12.21,12.21,0,1,1,63,131.2a11.61,11.61,0,0,1,2.3-7.1A12.08,12.08,0,0,1,75.2,119Z" transform="translate(-11 -85.75)"/><circle id="Punto" class="cls-1" cx="64.2" cy="45.45" r="6.1"/></svg>