<svg id="Capa_1" data-name="Capa 1" xmlns="http://www.w3.org/2000/svg" viewBox="0 0 201.04 282.77"><defs><style>.cls-1{fill-rule:evenodd;}</style></defs><title>jQuery</title><polygon points="77.84 263.63 67.8 270.96 71.65 282.77 61.56 275.49 51.47 282.77 55.32 270.96 45.23 263.63 57.71 263.63 61.56 251.76 65.41 263.63 77.84 263.63"/><polygon points="38.88 263.63 28.79 270.96 32.64 282.77 22.6 275.49 12.51 282.77 16.36 270.96 6.27 263.63 18.75 263.63 22.6 251.76 26.45 263.63 38.88 263.63"/><polygon points="100.26 252.55 100.26 275.69 90.43 282.77 94.28 270.96 84.24 263.63 96.67 263.63 100.26 252.55"/><path class="cls-1" d="M240,187.33l10.52,0-21.16,28.68a12.17,12.17,0,0,0-1.71,2.39A53.51,53.51,0,0,0,225.6,226L216,226s1.5-5.38,1.44-8.24c-.06-2.5-1.33-5-2-7.51s-1.71-7.51-1.71-7.51h9.9l1.37,5.46L240,187.33Z" transform="translate(-49.48 -8.62)"/><path class="cls-1" d="M220.07,192.92c1.94,1.17,3.13,7.63,3.13,7.63s-10.16.15-15.69.15h-4.78L196.93,226h-8.88s5.52-27.45,6.83-32.43c.42-1.61,2.89-1.34,7.07-1.34h6.66c4.31,0,9.34-.54,11.46.73Z" transform="translate(-49.48 -8.62)"/><path class="cls-1" d="M168.68,212.32c6.13-.16,17.42,0,17.42,0s2.13-9.57,1-13.63a11.19,11.19,0,0,0-1-3.07c-1.87-2.6-5.67-3.49-8.22-3.75-6.71-.72-12.27,1.1-15.34,3.39a12.92,12.92,0,0,0-2.4,2.08,4.26,4.26,0,0,0-.72.93,8.19,8.19,0,0,0-.63.73,14.36,14.36,0,0,0-.93,2,11.87,11.87,0,0,0-.78,1.82c-1.88,4.58-3.75,13.21-2,17.74a6.41,6.41,0,0,0,1,1.76,5.32,5.32,0,0,0,.67.94,7.72,7.72,0,0,0,3.8,2.08c7.38,1.77,22.16,1,22.16,1l1.82-8s-10.46.47-15.45-.16c-.78-.1-2.86-.2-3.9-1.14s-2-2.76-1.25-4C164.46,212.11,166.75,212.37,168.68,212.32Zm4.42-12.64c2.7,0,3.69.46,4.73,2a5.5,5.5,0,0,1,.94,3.53l-13.27-.1S165.35,199.42,173.1,199.68Z" transform="translate(-49.48 -8.62)"/><path class="cls-1" d="M146.4,192.16l8.61,0s-4.8,22.76-7.24,33.85h-9.9c-6.92,0-13.08.86-15.71-4.1s-.11-12.72,1-18.09c.8-3.8,2.5-11.58,2.5-11.58l8.92-.08s-2.52,12.1-3.57,18.15c-.38,2.16-1.15,4.2-.34,5.8s1.84,1.63,5.12,1.71c1,0,4.44,0,4.44,0l6.14-25.61Z" transform="translate(-49.48 -8.62)"/><path class="cls-1" d="M112.7,217.83c2.55-6.87,6.35-14.77,5.36-21.9-.52-3.85-3-8-5.72-9.73-.16,0-.62-.46-.78-.52a20.54,20.54,0,0,0-7.49-2.39c-11.6-1.19-18.57,4-22.52,10.93a36.16,36.16,0,0,0-3.44,8.89,32,32,0,0,0-1,11.6,14.6,14.6,0,0,0,3.39,7.49c4.52,4.73,13.42,4.11,22.88,4.11,2.92,0,9.89-.05,12-.1.67-.06,2.65-8,2.44-8.22S115.31,218,112.7,217.83Zm-6.6-9.26c-.83,3-1.67,6.09-2.71,8.84-6.92,0-13.31.94-15.34-3.38-1.2-2.44-.68-5.77,0-8.89.83-4.21,1.66-7.28,4.06-9.88a11.38,11.38,0,0,1,11.6-2.76c1.71.57,4.26,3.38,4.47,6.5C108.34,201.86,107,205.35,106.1,208.57Z" transform="translate(-49.48 -8.62)"/><path class="cls-1" d="M76.12,192.2c-.57,2.62-1.14,5.58-1.75,8.16H64.81c.74-2.86,1.31-5.71,2-8.2,3.06,0,5.9,0,9.26,0Z" transform="translate(-49.48 -8.62)"/><path class="cls-1" d="M64.47,202.75h9.22c-1.21,6.67-3.59,17.43-5.46,24.92-1.17,4.68-2,8.1-5.12,10.58-.29.22-.45.12-.69.34-.58.56-3.28,1.2-4.78,1.37a69.68,69.68,0,0,1-8.16,0c.78-2.86,1.66-6.29,2.36-8.85,7.28.88,7.47-6,8.88-12.63.81-3.83,3.28-14.17,3.75-15.7Z" transform="translate(-49.48 -8.62)"/><path class="cls-1" d="M229.18,130.75l-.74,1.92c-12.67,24.67-35.11,39.8-67.13,40.47a93.71,93.71,0,0,1-38.54-7.71,99.49,99.49,0,0,1-46.25-43.68c-13.25-25.66-15.64-61.35,11.91-88,.42,0-3.34,5.78-2.92,5.78L84.75,42C64.9,104.14,126.06,157.39,185.5,151.3c14.29-1.46,32.51-9.29,43.68-20.55Z" transform="translate(-49.48 -8.62)"/><path class="cls-1" d="M193.21,105.05c15,.1,30.58-6.89,39.83-16.7-8.1,20.54-31.53,33.75-62.95,29.55-26.32-3.52-51.38-30-54-56.53-1.89-19.31,4.84-30.84,15.93-44.81-3.86,7.31-5.3,13-5.66,16.54-4.21,41.77,33.37,71.73,66.81,71.95Z" transform="translate(-49.48 -8.62)"/><path class="cls-1" d="M231.54,53.17c-2.33,5.33-15.72,15.41-21.63,16.66-23.41,5-38.4-6.11-46.25-18.74A57,57,0,0,1,160,42.74c-3-10.36-1.65-26,7.44-34.12-2.74,7.7-3.14,16.66-1.7,22.48a49.92,49.92,0,0,0,6.19,13.53c4.85,7,7.92,8.75,14.14,12.49a37.52,37.52,0,0,0,7.1,3.4c5.9,1.73,18.35,6.31,38.42-7.35Z" transform="translate(-49.48 -8.62)"/></svg>