<svg id="Capa_1" data-name="Capa 1" xmlns="http://www.w3.org/2000/svg" viewBox="0 0 176.5 282.77"><title>JS</title><polygon points="32.62 263.57 22.58 270.91 26.43 282.77 16.33 275.43 6.24 282.77 10.09 270.91 0 263.57 12.48 263.57 16.33 251.76 20.18 263.57 32.62 263.57"/><polygon points="71.58 263.57 61.54 270.91 65.39 282.77 55.3 275.43 45.2 282.77 49.05 270.91 39.01 263.57 51.45 263.57 55.3 251.76 59.14 263.57 71.58 263.57"/><polygon points="100.5 270.91 104.35 282.77 94.26 275.43 84.22 282.77 88.01 270.91 77.97 263.57 90.41 263.57 94.26 251.76 98.11 263.57 110.59 263.57 100.5 270.91"/><path d="M113.93,192.65l42.08,12v-.05Zm19.19-16L156,183.29v0Zm-1.3-46.81v.05H156v-.05Zm0,30.79h0l1.35,16Zm-17.89,32,42.08,12v-.05Zm19.19-16L156,183.29v0Zm-1.3-46.81v.05H156v-.05Zm0,30.79h0l1.35,16Zm0,0h0l1.35,16Zm0-30.79v.05H156v-.05Zm1.3,46.81L156,183.29v0Zm-19.19,16,42.08,12v-.05Zm0,0,42.08,12v-.05Zm19.19-16L156,183.29v0Zm-1.3-46.81v.05H156v-.05Zm0,30.79h0l1.35,16Zm0,0h0l1.35,16Zm0-30.79v.05H156v-.05Zm1.3,46.81L156,183.29v0Zm-19.19,16,42.08,12v-.05Zm17.89-32h0l1.35,16Zm0-30.79v.05H156v-.05Zm1.3,46.81L156,183.29v0Zm-19.19,16,42.08,12v-.05Zm0,0,42.08,12v-.05Zm19.19-16L156,183.29v0Zm-1.3-46.81v.05H156v-.05Zm0,30.79h0l1.35,16Zm0,0h0l1.35,16Zm0-30.79v.05H156v-.05Zm1.3,46.81L156,183.29v0Zm-19.19,16,42.08,12v-.05Zm0,0,42.08,12v-.05Zm19.19-16L156,183.29v0Zm-1.3-46.81v.05H156v-.05Zm0,30.79h0l1.35,16Zm0,0h0l1.35,16Z" transform="translate(-61.75 -8.62)"/><path d="M73.82,54l15.4,167.13L156,240l66.79-18.93L238.25,54ZM210.11,210.55,156,225.89l-54.1-15.34-13.16-143H223.32Z" transform="translate(-61.75 -8.62)"/><rect x="94.26" y="100.24" width="0.02" height="0.06"/><polygon points="70.05 152.01 71.37 168.04 70 152.01 70.05 152.01"/><polygon points="94.26 174.63 94.26 174.65 71.37 168.04 94.26 174.63"/><polygon points="52.19 184.02 94.26 195.95 94.26 195.98 52.19 184.04 49.23 152.01 52.19 184.02"/><rect x="70.05" y="121.18" width="24.21" height="0.06"/><polygon points="142.15 121.18 136.35 184.04 94.26 195.98 94.26 195.95 52.19 184.02 49.23 152.01 70 152.01 71.37 168.04 94.26 174.65 94.26 174.63 116.81 168.14 119.12 141.66 48.43 141.66 48.31 142.05 54.1 79.47 137.31 79.47 141.88 112.24 120.92 112.24 120.14 100.24 94.26 100.24 94.26 100.31 71.01 100.31 70.05 121.18 70.05 121.25 94.26 121.25 94.26 121.18 142.15 121.18"/><rect x="70.05" y="121.18" width="24.21" height="0.06"/><polygon points="71.37 168.04 94.26 174.63 94.26 174.65 71.37 168.04"/><polygon points="52.19 184.02 94.26 195.95 94.26 195.98 52.19 184.04 49.23 152.01 52.19 184.02"/><path d="M131.82,160.61h0l1.35,16Z" transform="translate(-61.75 -8.62)"/><path d="M186.65,8.77H161.11V19.7c3.43,3.38,5.2,5,10.24,10H161.11v9.94h25.54V29.68l-10.2-10h10.2ZM140,8.62v20.7H125.37V39.83h25.12V8.62Z" transform="translate(-61.75 -8.62)"/></svg>