<svg id="Capa_1" data-name="Capa 1" xmlns="http://www.w3.org/2000/svg" viewBox="0 0 716.86 359.75">
    <defs>
        <style>.cls-1{fill:none;}.cls-1,.cls-2{stroke:#fff;stroke-miterlimit:10;stroke-width:3px;}.cls-2{fill:#fff;}</style>
    </defs>
    <title>Logo</title><path class="cls-1" d="M509.08,184.74,240.61,453.21l-142-142,156.8-156.8a254.79,254.79,0,0,0,153.08,50.84A254.58,254.58,0,0,0,509.08,184.74Z" transform="translate(-47.86 -131.43)"/><path class="cls-1" d="M709.25,320.39,561.6,468A256,256,0,0,0,308,437.69l268.41-268.4L709.2,302.05h-106a18.25,18.25,0,1,0,0,18.34Z" transform="translate(-47.86 -131.43)"/><path class="cls-2" d="M98.64,311.24l142,142-25.94,25.94-142-142L51.18,315.65a6.24,6.24,0,0,1,0-8.82l21.53-21.51L223.23,134.79a6.32,6.32,0,0,1,8.83-.13,261.07,261.07,0,0,0,23.38,19.78Z" transform="translate(-47.86 -131.43)"/><path class="cls-2" d="M576.43,169.29,308,437.69A253.45,253.45,0,0,0,255.42,468l-14.81-14.82L509.08,184.74a254.43,254.43,0,0,0,52.5-30.3Z" transform="translate(-47.86 -131.43)"/><path class="cls-1" d="M255.42,468A257.33,257.33,0,0,0,232,487.89a6.2,6.2,0,0,1-8.65-.12l-8.63-8.62,25.94-25.94Z" transform="translate(-47.86 -131.43)"/><path class="cls-1" d="M602.36,143.35l-25.93,25.94-14.85-14.85a256.5,256.5,0,0,0,23.33-19.72,6.41,6.41,0,0,1,9,.13Z" transform="translate(-47.86 -131.43)"/><path class="cls-2" d="M761.1,320.39l-16.77,16.79L593.6,487.91a6,6,0,0,1-8.36.12,254.93,254.93,0,0,0-23.64-20L709.25,320.39Z" transform="translate(-47.86 -131.43)"/><polygon class="cls-2" points="713.21 170.63 661.34 170.63 528.58 37.86 554.5 11.92 696.47 153.89 713.21 170.63"/>
</svg>