<svg xmlns="http://www.w3.org/2000/svg" viewBox="0 0 1920 1080"><defs><style>.cls-1{fill:#474747;}.cls-2{fill:#282828;}</style></defs><title>Mesa de trabajo 1</title><g id="Capa_3" data-name="Capa 3"><path class="cls-1" d="M-.62,122.41.24,97.86a40.83,40.83,0,0,1,4.64,18.37L8,93.76a51.21,51.21,0,0,1,7.42,24.1l2.22-9.71,8.75,41.47,7.29-19.06L36.13,148a77.2,77.2,0,0,1,1.59-23.14l8.43,26.08,5-41.42,5.35,40.89,3.93-24.21,7.16,18.14a128.55,128.55,0,0,1,4.34-28.38,120,120,0,0,1,4.25,24.23,117.73,117.73,0,0,1,5.07-25.69l9,27A85.21,85.21,0,0,1,94.24,114a104.29,104.29,0,0,1,5.3,26.68l6.82-31.58,7.58,43.28,6.15-36.44L124,147.24a54.64,54.64,0,0,1,4.09-25A144.33,144.33,0,0,1,133,152.07a41.63,41.63,0,0,1,3-20.81l8.74,31.46,4.69-33.46,7,26.94a47.43,47.43,0,0,1,4.47-27.75,105.58,105.58,0,0,1,9.37,26,48.53,48.53,0,0,1,2.5-20.84,176.47,176.47,0,0,0,14.07,48.5,90.44,90.44,0,0,1,10.88-51.57l2,26.62,2.84-16.66,11.83,21A103.64,103.64,0,0,1,216.52,139l6.65,17.12,1.28-13.19,8.93,18.23,2.48-11,8.07,13.34,0-30.06a44.85,44.85,0,0,0,9,24.48c4.76-25.86,2.68-52.57-2.24-78.41-5.22-27.43-16.89-57.88-43.22-67.17C178.31,2,147.11,23.09,116.23,21.26,95.5,20,75.07,8.48,55,13.65c-7.68,2-14.53,6.27-21.17,10.62-12.71,8.33-44.65,23.34-48.1,39C-18.31,81.31,0,104-.62,122.41Z"/><path class="cls-1" d="M254,163.85l6.31-24.46,7.11,20.12,2.08-19.57A54.32,54.32,0,0,1,280,155.42a36.57,36.57,0,0,1,5.76-22.08l8.55,26a20.24,20.24,0,0,1,5.87-18.4A148.11,148.11,0,0,1,304,162.7l13.21-30,2.82,20,3-19.5,7.67,25.63a175.58,175.58,0,0,1,7.09-31.63,154,154,0,0,1,8.27,32.38A176.42,176.42,0,0,1,353,120.65a190.06,190.06,0,0,1,6.21,36.45l6.73-23.63,6,32.5,4.34-23.62,9.71,38.21,4.93-25a185.39,185.39,0,0,0,9.47,27.51l-.15-56.14,7.68,30.11-.05-20.48,6.43,18.9a106.87,106.87,0,0,1,1.91-25.62l4.65,15.48A43.72,43.72,0,0,1,423,129.85a72.51,72.51,0,0,1,7.32,20.54,159.64,159.64,0,0,1,6.1-29.59l4.87,9.2a87.68,87.68,0,0,0,5.84-28.57l4.6,11.16,4.34-12.38,4.58,22.34a46.89,46.89,0,0,1,5.13-21.45,53,53,0,0,1,6.83,21l1.53-13a87.69,87.69,0,0,1,7.55,24.6,33,33,0,0,1,2.15-17.36l8.44,36.8a264.67,264.67,0,0,1,13.64-45.36,137.57,137.57,0,0,0,1.95,27.71l3.83-13,1,18.3A56.88,56.88,0,0,1,517.92,119a113.9,113.9,0,0,1,1.1,26.28l3-22.76a84.64,84.64,0,0,0,4.4,22.22,42.37,42.37,0,0,1,11-24.49L540,146.56a73.15,73.15,0,0,0,1.23-19.37L551,138c6.19-35.23-6.53-73.21-32.69-97.6-10.85-10.11-24.15-18.08-38.79-20.48-12.26-2-24.77-.08-37.09,1.55a746.49,746.49,0,0,1-113.11,6.3c-7.44-.15-14.95-.41-22.25,1.05-22.83,4.55-39.15,24.73-50.1,45.27-7.8,14.66-15.53,32.72-14.29,49.75C243.46,135.26,256.65,153.69,254,163.85Z"/><path class="cls-1" d="M558.21,124l8.47-18.76,5,23.65,5.91-11.35,4.5,17.54,4.53-19.33a58.15,58.15,0,0,1,3.42,16.65l3.75-11.06,2.91,20.18a50.44,50.44,0,0,1,10.14-21.35,124,124,0,0,1,1.51,27.75l14.86-21.82,5.52,27a50.1,50.1,0,0,1,7.58-24.91l4.18,26.37a255.23,255.23,0,0,1,4.22-40l11.16,35a191.7,191.7,0,0,1,4.4-41.36,261.07,261.07,0,0,1,12.58,42.61,266.91,266.91,0,0,1,5.91-40,174.41,174.41,0,0,1,8.26,36.16l1.4-30a33.5,33.5,0,0,1,11.21,19.39l.16-24.19,5,19a188,188,0,0,1,1.3-29.15l10.26,29.43a93.32,93.32,0,0,1,4-28.66,196.77,196.77,0,0,1,9.2,32.28l4-22a112.23,112.23,0,0,1,5,28.69L744.21,114l3.85,33.12,8-25.08,4.31,25.06a105.45,105.45,0,0,1,8.25-27.22l5.21,26a70.46,70.46,0,0,1,6.41-21.51L786.09,156a49.58,49.58,0,0,1,11.63-28.8l5.55,17.56a60.79,60.79,0,0,1,5.21-25.07l6.75,23.86a58.85,58.85,0,0,1,5.68-21.77l9.43,29.4a110.94,110.94,0,0,1,1.79-30.75l9.42,5.63c-2.13-16.63,4.21-33.09,5.73-49.8s-4.45-36.82-20.54-41.58c-15.84-4.69-31.11,7.92-47.12,12A47.6,47.6,0,0,1,737,36.47C731.93,32,727.56,26.21,721.16,24c-3.87-1.36-8.08-1.27-12.18-1.16l-89.33,2.39c-18,.48-37.14,1.36-51.69,11.9C541.27,56.44,529.11,101.06,558.21,124Z"/><path class="cls-1" d="M846.81,122.08l.78-14a41.13,41.13,0,0,1,7.12,20.33l3.48-10.82,5.29,7.29,7.35-18.08a18.94,18.94,0,0,1,2,13.51l5.26-24.73.21,46.12,12.27-26.22a72.66,72.66,0,0,1,1.61,25.95l7.41-20.61,3.55,20L914,117.2,917.59,138a68.36,68.36,0,0,1,5.19-20.91l5.37,14.44a45.83,45.83,0,0,1,8.91-20.72,52.42,52.42,0,0,1,1.66,20.36l3.58-20.67A205,205,0,0,0,958,146.4a180.53,180.53,0,0,1,2.54-31.23l9.65,29.69L977.36,117l7.07,22.45,6.33-21.28,5.84,23.63a168.19,168.19,0,0,1,7.83-32l5.21,25.34,3.06-17a66.17,66.17,0,0,1,8.49,15.72l8.53-26.23a50,50,0,0,1,6.89,16.08L1042,109.3l5.69,26.11a35.79,35.79,0,0,1,1.53-19.63l5,8.18a73.06,73.06,0,0,1,11.07-23.09,82.66,82.66,0,0,0,9.68,19.21l1.75-14.69,4,14,4.39-17.52,7.3,20.44a32.79,32.79,0,0,1,7.26-18.48,37.35,37.35,0,0,1,8.86,21.39c6.64-15.54,13.39-31.49,14.2-48.37s-5.59-35.15-20-43.95a18.32,18.32,0,0,0-7.57-2.84c-4.08-.4-8,1.26-11.82,2.83-20.92,8.7-43.46,16-65.89,12.82-16.85-2.36-32.39-10.46-49.06-13.88C950,28.07,931,30.08,912.56,33.37q-20,3.57-39.66,9.12C862,45.56,851,49.26,842.4,56.61,813.19,81.66,848.24,96.28,846.81,122.08Z"/><path class="cls-1" d="M1121.09,102.1l2.14,18.85,7.83-13.73,7.54,15.27A58.58,58.58,0,0,1,1147,103l4.82,24.57,9.09-26.22,5.83,22.31,9-24.84,4.29,25.67,2.76-16.39a276.37,276.37,0,0,0,7.44,29.17,35,35,0,0,0,6.06-16.12,39.18,39.18,0,0,0,8.58,22.94,259.87,259.87,0,0,0,2.7-55.87,39.45,39.45,0,0,1,10,35.86l3.23-27.31a120.12,120.12,0,0,0,5.53,28.66A103.83,103.83,0,0,0,1228,98l3,22.93-3.24-39.82a135.68,135.68,0,0,0,18.69,39.85l-2.5-37.32a161.87,161.87,0,0,1,8.78,33.74,39.29,39.29,0,0,1,2.68-15.61,129.12,129.12,0,0,1,8.5,22.23,64.87,64.87,0,0,1,12.21-35.5,123,123,0,0,0,.64,25.08,65.92,65.92,0,0,1,8-24.61l3.1,23,6-26.95,5.66,24.32,10.86-22.91,7.6,26,11-25.44,8.43,10.44c11.5-21.23,17.56-48.18,5.41-69-9.08-15.58-26.78-24.59-44.59-27.38s-36-.21-53.81,2.55c-30.37,4.7-61.25,10.12-88.44,24.44-36.62,19.3-67.93,60.8-50.72,103.51C1111.09,122.14,1115.89,111.86,1121.09,102.1Z"/><path class="cls-1" d="M1354.56,83.4a68.92,68.92,0,0,1,3,26.69,68.75,68.75,0,0,1,6.79-20.16,34.5,34.5,0,0,0,5.38,14.37,35.76,35.76,0,0,1,7.84-16.86l4,20.31,8.13-19.94,6.55,19.47L1403,91.1l4.76,16.59a16.85,16.85,0,0,1,4.94-7.67,35.66,35.66,0,0,0,3.49,19.75l9.72-17.76,7.2,19.36a20,20,0,0,1,8.89-12.05l5.56,19.45a54.47,54.47,0,0,1,14.08-20.34,28.53,28.53,0,0,0,3.88,12.77,38.73,38.73,0,0,1,7.59-18.24l4.72,22.32a87.33,87.33,0,0,1,10.61-36.58,542.71,542.71,0,0,0,14.67,56.83,40.89,40.89,0,0,1,4.3-22.14,86.85,86.85,0,0,1,7.09,19.91l3.78-21,4.32,18.12,4.6-13.2,6.7,22.13a432.37,432.37,0,0,0,20.54-76.88l9.16,34.22L1564.63,91l4.51,15.6A47.14,47.14,0,0,1,1576.69,91l6.31,15.75.79-13.29,7.24,21.75,4.24-12.49a57.82,57.82,0,0,0,7.18,17.14l2.15-10.75,8.52,25.32,4.26-21.37a29,29,0,0,0,7.34,17.13,36.63,36.63,0,0,1,7.57-19.84l4,13.27a45.42,45.42,0,0,1,.79-15.68A55.4,55.4,0,0,0,1649,130.44l-.17-10.08,23.5,20.16a49.27,49.27,0,0,1,15.6-37.4,199,199,0,0,0,9,39,61.05,61.05,0,0,1,8.87-27.62,84.08,84.08,0,0,1,5,21.11l.23-8,3.93,18.38,4.09-13.94a149.94,149.94,0,0,0,12.86,28.64,20.14,20.14,0,0,1,6.29-11.94,25.87,25.87,0,0,1,5.23,15.47,20.59,20.59,0,0,1,13.82-17.31l1.62,17.29a59.06,59.06,0,0,0,15.77-12.39l6.65,12.15a27.35,27.35,0,0,1,10-12.23,50.1,50.1,0,0,1,3.73,15.86l2.5-23.46a78.53,78.53,0,0,1,21,23.35,30.25,30.25,0,0,1,2-21.52l12.17,15.52-1.33-13,4.86,8.34,1.36-8.72L1848.73,166l1.06-6.53,2.53,25.07a65.71,65.71,0,0,0,24.6-28.09,43.4,43.4,0,0,1-2.18,20.43,38.32,38.32,0,0,1,6.39-14.34,9.93,9.93,0,0,1,4.25,9.82,36.54,36.54,0,0,1,8.95-16.29l3.81,11.69a31.28,31.28,0,0,1,8.12-21.61l4.14,11.59A65.76,65.76,0,0,1,1923.11,134a39,39,0,0,1-2.78,15.95c11.38-32-2.71-70.42-30.71-89.64a73.87,73.87,0,0,0-19.71-9.72c-9.83-3.07-20.22-3.81-30.49-4.52L1643.6,32.51c-12.25-.85-24.61-1.72-36.4-5.16-8-2.34-15.75-5.86-24-7.6-9.64-2.05-19.62-1.55-29.47-1.05l-73.42,3.75c-13.6.7-27.37,1.38-40.72-1.32-9.51-1.92-18.71-5.54-28.39-6.27-12.13-.92-24.17,2.79-35.24,7.83-12.79,5.81-25,13.67-33.51,24.84a56.53,56.53,0,0,0-5.24,59.7C1338.74,104.75,1354.78,84.1,1354.56,83.4Z"/></g><g id="Capa_2" data-name="Capa 2"><path class="cls-2" d="M1.06,82.81A27,27,0,0,0,6.52,66L8.61,76.49a76,76,0,0,1,10-18.42l-.09,17.78a53.25,53.25,0,0,0,2.46-21.34,190.61,190.61,0,0,0,12.62,55.37,200.4,200.4,0,0,1,8.51-39.17l.16,18.68a42.39,42.39,0,0,1,4.62-11.9l2.89,13.15A91.82,91.82,0,0,1,57.08,68L59,92.21,72,40.63a325.48,325.48,0,0,0,7.59,70.54l4.81-22.91L89,104.88,96.09,86l.08,11.88L103,78.94l2.84,15.25a45.34,45.34,0,0,0,13.54-23.87l2.82,23.89,7.11-25a153.93,153.93,0,0,0,2.53,40.87L141,81l.86,41,6.28-21.94,2.4,8.44a179.62,179.62,0,0,1,5-29.5l0,34.76,4-18.6,5.42,20.55,2.26-19.2a42.09,42.09,0,0,1,2.38,16l7.6-33.13.12,23.55a202.8,202.8,0,0,1,11.62-37.43v63.56l9.32-34.89,2.87,30.15,6.37-18.53,3,14.21,7-20.94,1.21,20.65a63,63,0,0,1,9.79-23.6L235.53,121l1.94-26.9L239.31,119a77.92,77.92,0,0,1,4-18.36l6.36,19L253,98.78,257,113.53a20.84,20.84,0,0,1,5.58-13.28,51.19,51.19,0,0,0,4.82,22.45l4.08-21.43a13.91,13.91,0,0,1,4.11,5c12.51-9.7,14.08-27.67,14.6-43.48.82-24.47,1.44-50-8.81-72.22-5.7-12.34-16.65-24.15-30.24-23.8-8.43.21-16,5.06-22.94,9.79-8.88,6-18.35,13-20.86,23.47-.71,2.93-.9,6.2-2.91,8.45-1.72,1.93-4.38,2.65-6.88,3.28l-33.17,8.35c-6.8,1.71-14.19,3.38-20.63.62C134.9,17,131.19,6.45,123.67.51,109.58-10.6,89.42-2.17,71.7.59,51.55,3.74-4.64-13.48-17.43,6.77c-5.36,8.49.77,21.7,3.49,30.06C-12,42.72,4.27,78.6,1.06,82.81Z"/><path class="cls-2" d="M292.86,102.66a18.84,18.84,0,0,1,2.39,10.7,41,41,0,0,0,3.63-13l3.43,12.78a16.58,16.58,0,0,1,4.85-13.54,20.74,20.74,0,0,0,3.4,7.24l.22-8.85,3.71,11.6a9.86,9.86,0,0,1,6.43-8.18l4.29,14.41,4.88-16.38,7.56,16.44,5.79-15.56,1.2,12a14,14,0,0,1,7.23-12,48.63,48.63,0,0,1,6.58,16.52L369.17,85.9l4.62,39.44L376.25,111a54.42,54.42,0,0,0,8.17,16l4.85-9,4.36,14.21a337.06,337.06,0,0,1,10.12-52.58l6.5,39.81,10-34.64a31.32,31.32,0,0,0,.84,11.92l.48-17.13a14.52,14.52,0,0,1,2.23,8.06,9.6,9.6,0,0,1,3.29-5.33,6.61,6.61,0,0,0,4.57,6.15A12.21,12.21,0,0,1,440.18,75l.62-15.58,2.42,16.13L446,63l4.1,17.07a33.44,33.44,0,0,1,7.44-17.32,23.44,23.44,0,0,0,5.28,11.44l1.46-14.36,1.4,10.46,2.95-6.88a31.74,31.74,0,0,0,5.47,12.82,65.25,65.25,0,0,1,9.55-15.88l2.83,14.81,4.09-7.59A108.15,108.15,0,0,0,497.15,90a57.77,57.77,0,0,1,5.31-16.23l3.91,12.11L508,74.63l4,24.53a62.62,62.62,0,0,1,5.57-23.46l8.56,21.36,0-20.24L529,88.49l1.83-10.91a101,101,0,0,0,13.31,16.89l1.61-8.5L563,97.49l.48-15.24a42.09,42.09,0,0,1,4.85,13.47A10.76,10.76,0,0,0,570.89,88a19.28,19.28,0,0,1,15.25,14.42,163.38,163.38,0,0,0-.66-84.61c-1.32-4.75-2.93-9.58-6.08-13.38-8.18-9.83-23.13-9.4-35.86-8.12L507.15,0c-34,3.41-68.31,6.81-102.09,2C390.23-.17,375.15-3.87,360.47-.92c-13.42,2.69-25.1,10.67-37.87,15.58-13,5-28,7.34-37.26,17.72C273,46.27,278.26,65,278.1,81.76c-.09,10.44-3.85,24.44.36,34.14,5.45-2.19,8.3-9.17,10.22-14.74.16,4.24.37,8.53.82,12.73A15.9,15.9,0,0,0,292.86,102.66Z"/><path class="cls-2" d="M588.84,105l1.6-10.54a25.32,25.32,0,0,1,6,12.47,8.18,8.18,0,0,1,7.09-2L604,88.48a7.22,7.22,0,0,1,1.7,6l2-39.26,3.21,38.8L613.55,80a26.87,26.87,0,0,1,6.6,12.61l.15-6.36.73,6.88L624.56,84,629.4,99.1l2.83-9.31,4,11.64,5.44-11.64,3.87,9.12,4.7-11.42,3.91,9,2-9.15,5.47,15.49,4.54-18.13a13.17,13.17,0,0,1,4.37,10.93l-.22-17.82A65.46,65.46,0,0,0,682.12,100l.46-24.73L689.32,91a42.15,42.15,0,0,1,3.55-20.48l2.67,11.77,2-9.71a35.88,35.88,0,0,0,7.29,16L709,61.11a22,22,0,0,0,5.75,13.07c1,1,2.31,2,3.62,1.56s1-3.07-.31-2.68a92.55,92.55,0,0,0,13.29,22.19,69.08,69.08,0,0,0-2.76-19.64,144.55,144.55,0,0,1,12.17,21l-1.3-16.7c.89,3.39,5.79-1.21,4.67-4.54s-3.15-8,0-9.46c-.9,1.84,2.37,3.34,3.88,2s1.43-3.73,1.24-5.77a47.24,47.24,0,0,1,2.16,35.54l4.79-15,.22,9a39.81,39.81,0,0,0,12.31-11.86l3,13.62A63.09,63.09,0,0,1,780,76.25l5,10.92,8.78-15.65,3.78,15.55c.37,1.51.9,3.23,2.33,3.86s3.44-1.22,2.36-2.35a26.91,26.91,0,0,0,4.18,10.88,28.17,28.17,0,0,1,17.27-21.21l1.59,7.59c2.7-24.52,5-51-7.32-72.32C814.79,8,810.36,2.71,804.32.51c-8.88-3.24-18.52.77-27.75,2.8-16.27,3.58-33.22.86-49.52-2.59-39.43-8.35-80.12-21-119.21-11.15-6.31,1.59-12.76,3.93-17.08,8.8-3.94,4.45-5.59,10.43-6.94,16.23-3.88,16.68-8.94,37.1-7.28,54.33C577.62,80.08,590.44,94.48,588.84,105Z"/><path class="cls-2" d="M976.89,103.32c.24-1,.47-2,.71-3A3.2,3.2,0,0,1,976.89,103.32Z"/><path class="cls-2" d="M1001.33,83.4l1.47-2.06C1003.31,83,1003,84.63,1001.33,83.4Z"/><path class="cls-2" d="M1050.15,81.83a3.71,3.71,0,0,1-.06,3.84A21.41,21.41,0,0,1,1050.15,81.83Z"/><path class="cls-2" d="M1087.08,79.48a14.64,14.64,0,0,1-.22-2.18C1086.93,78,1087,78.75,1087.08,79.48Z"/><path class="cls-2" d="M1122.45,68.08c-4-2.18-9.86.2-11.11,4.64l-4-9a62.17,62.17,0,0,1,3-6.15,3.15,3.15,0,0,1,.42.09A18.31,18.31,0,0,1,1122.45,68.08Z"/><path class="cls-2" d="M1168.8,70.07c0,.3-.11.6-.17.9-.06-.2-.11-.4-.16-.6Q1168.63,70.21,1168.8,70.07Z"/><path class="cls-2" d="M1180.84,63.6l-.58,1.71c-.06-.22-.13-.44-.19-.66C1180.31,64.29,1180.57,63.94,1180.84,63.6Z"/><path class="cls-2" d="M1199.46,50.19a173.33,173.33,0,0,0-6.89,20.75q-2.08-7.47-4.15-14.94A36.33,36.33,0,0,1,1199.46,50.19Z"/><path class="cls-2" d="M1246.3,80.5c0-2.21,0-4.41,0-6.62C1248.32,76,1249,78.74,1246.3,80.5Z"/><path class="cls-2" d="M1267.6,69c.09.68.19,1.35.29,2A2.2,2.2,0,0,1,1267.6,69Z"/><path class="cls-2" d="M1501.33,72.17l1.91-2.43A2.26,2.26,0,0,1,1501.33,72.17Z"/><path class="cls-2" d="M1563,61.15l1.86-2.5A2.62,2.62,0,0,1,1563,61.15Z"/><path class="cls-2" d="M1659.4,75a4.91,4.91,0,0,1,2.32,1.91c3.27,5.07-4.39,12.4-9.32,8.91A22.29,22.29,0,0,0,1659.4,75Z"/><path class="cls-2" d="M1679.45,98.58c.26,1.24.48,2.5.65,3.76C1678.57,101.67,1678.61,100,1679.45,98.58Z"/><path class="cls-2" d="M1730.56,97.69q.63,2.59,1.28,5.19C1729.48,105.35,1727.65,98.79,1730.56,97.69Z"/><path class="cls-2" d="M1919-16.72c-9.58-16.4-29-28.27-47.51-23.86C1847.08-34.76,1833-4.22,1808-2.43c-7.3.53-14.49-1.59-21.52-3.65C1752.75-15.92,1718-24.76,1683-22.55,1658.32-21,1634.2-14,1609.51-13.3c-24.54.7-48.82-4.86-73.35-6.09-26-1.3-52,2.27-78,1.85-17-.27-34-2.25-51-.74-15.56,1.38-30.69,5.68-46,8.92-64.7,13.69-131.77,8.23-197.56,1.45-31-3.2-62.6-6.66-93.29-1C1049.58-5,1029.56,3,1008.49,5.22,979.31,8.28,950.29,0,921.18-3.7,896.29-6.87,869.6-6.31,848,6.47c-17.54,10.38-25.09,24.47-26.8,40.15-1.53,13.87,1.5,29,6.2,43.88L838,64.43l3.09,14.64c-.44-5.65,6.61-9.26,11.6-7.72l.34-.63c.09.28.17.55.25.83l-.59-.2c-2.55,4.72-5.08,9.44-7.63,14.16,4,2.41,9.08-.38,11.19-4.34q-1.47-4.8-3-9.62a6.28,6.28,0,0,1,3,2.55,6.92,6.92,0,0,1-.07,7.07q1.51,4.88,3,9.73l10.86-23.6.6,14.84,4.76-13.47,2.31,15.8,9-30.88q-.37,30.9-.74,61.8a42.8,42.8,0,0,1,15.55-27.15q1.56,6.63,3.14,13.27,4.31-8.87,8.63-17.73.2,8.07.4,16.13l4.35-14.13q1.9,5.41,3.8,10.84,4.62-12.6,9.25-25.22,1.79,11.4,3.56,22.79a90,90,0,0,1,8.35-29.62q3,13.8,6.07,27.62l4.08-32.8q5.19,26.25,10.36,52.51c-.24-5.41-.08-11.73,4.24-15,3.33-2.51,8.94.17,9.76,3.45q1.17-4.89,2.35-9.77,2,7.29,4,14.6,2.07-9.28,4.12-18.55c.73,1,1.83,1.71,3.11,1,3.55-1.86,4.48-6.92,8.08-8.68,1.76-.87,3.06.76,3.56,2.35l4.71-6.62c-.63,5.14-.32,11.88,4.59,13.52a2.42,2.42,0,0,0,2.44-.39q2,9.74,4,19.47a151.08,151.08,0,0,1,14-32.24l2.64,20.06c-.1-5.66.19-12.18,4.64-15.67,3.22-2.53,8.7-.7,10.37,2.36a22.93,22.93,0,0,1,9.39-16.14l.75,15.45,3.48-12.07q3.2,7.58,6.41,15.14a41.51,41.51,0,0,1,15.15-21.82l1.53,14.91c-.31-8.22,5.77-16,13.43-18.94a17.72,17.72,0,0,1,4.15-1.07,15.76,15.76,0,0,1,5.84.25,66.3,66.3,0,0,1,24-24.9l.17-.1a57.06,57.06,0,0,1,24.66-7.93c16.27-1.24,32.4,5.11,44.59,15.89a66.22,66.22,0,0,1,8,8.36c.89.09,1.78.22,2.67.4a26.64,26.64,0,0,1,2.83.72c.69.21,1.37.45,2,.72a27.88,27.88,0,0,1,4.61,2.29,33.3,33.3,0,0,1,7.93,6.82,38.67,38.67,0,0,1,6.67,11.24c2.75-.68,6,.76,7.91,2.83,0-2.66,0-5.33,0-8q1.64,9.12,3.28,18.22a50.55,50.55,0,0,1,8-21.34q1.93,6.57,3.88,13.13a31.54,31.54,0,0,1,4.23-19.43q.92,6.26,1.82,12.52c.77-2.23,5-3.66,7.09-1.53,2.64,2.73,2,7.14,1.19,10.85l8.45-17.61c.57,1.78,2.17,3.47,4.12,3.11,3.84-.71,5.62-5.1,6.55-8.9s2.18-8.21,5.83-9.59a41.74,41.74,0,0,0,4.84,25.85,24.58,24.58,0,0,1,11.82-21.65q.35,6.34.7,12.69l18.35-18.36a25.82,25.82,0,0,0-2.29,24.3A33.77,33.77,0,0,1,1347,53.37l10.07,15.57-.48-18,6.2,11.63,10-17.44c-.8,2.43-.25,5.3,1.82,6.75s5,.58,6.41-1.24l-3.28,11.74,19.78-9.52q-1.79,9.49-3.59,19l15.85-6.53a27.41,27.41,0,0,0,3.29,14.47,44.36,44.36,0,0,0,5-21.25L1423.64,72c0-3.84,0-7.68,0-11.52l5,16.6,5.93-22.67c-1,10.18,9.71,19.66,19.7,17.5,9.4-2,15.09-13.73,11.47-22.49l.54-.77a52.51,52.51,0,0,1,9,25.76,42.8,42.8,0,0,1,7.45-20.7,24.33,24.33,0,0,1,8.19,18.54c1.87-3.3,4.37-7,8.16-7.19,2.43-.12,4.24,2.59,4.22,4.73,1.69-2.17,3.4-4.33,5.1-6.5q.66,24.84,1.34,49.67l7.24-8.07,8.31,7.73q12.29-34,24.55-67.93l.69,20.11c1.14-4.77,3-10.29,7.63-11.76,3.39-1.06,6.82,2.8,6.71,5.66l5.26-7a43.58,43.58,0,0,1,7.58,23.79l14.72-18.78a24.6,24.6,0,0,1,2.71,14.46q2.68-6.84,5.38-13.67,2,8.29,4,16.59c-.59-3.76,5.3-6.36,8.65-4.09s4.32,7.15,4.44,11.38l12.2-17.69a46,46,0,0,1,8.89,19l6.69-12.36q2.19,5.76,4.4,11.5c-.94-4.86,5.48-8.39,9.64-6.71a20.74,20.74,0,0,0,.69-3.22l5.69,13.73,1-12.56a56.71,56.71,0,0,1,12.68,25.64,3.77,3.77,0,0,1,3.73-2c3.16.61,4.89,4,6.16,6.9l8.28,19.27q5-20.58,10.06-41.15a28.22,28.22,0,0,1,10.43,14.67l10.39-6.94c.69,2.8,1.37,5.59,2.06,8.38a2.7,2.7,0,0,1,.43-.12c3.52-.6,6.27,2.74,9,5s8.12,2.83,8.84-.67Q1753,109,1757.13,116l13.07-5.4c-.41,5.94,10.23,6.71,11.81,1.72q-1.24,8.3-2.48,16.6a119.65,119.65,0,0,0,49-23.06l-10.37,12.63a138.3,138.3,0,0,1,58.46,31.74q2-10.07,4-20.13a49.06,49.06,0,0,1,12.56,12.41q0-6.7,0-13.41c1.08,3.16,7.7,3.83,9.76.22s.74-8.32-1.09-12.36c2.25,2.11,8.33-2.28,8.17-6.77-.19-5.23-1.65-12.37,3.28-14.14q2.32,7.36,4.66,14.73a284.3,284.3,0,0,0,11.67-72.28c.08-2.46.11-4.93.11-7.4C1929.61,14.43,1927.34-2.45,1919-16.72ZM1443.66,41.43l.39-4.43c.3,1.32.59,2.63.89,4A9.87,9.87,0,0,0,1443.66,41.43Z"/><path class="cls-2" d="M1102.08,79l4.58-7.14a61.38,61.38,0,0,1,2.45,10.88l1.14-3.57a20,20,0,0,1,2.71,9.14l4.19-8.25,2.64,12.86A54.64,54.64,0,0,1,1125,80a24.37,24.37,0,0,1,2.26,8.06,64.69,64.69,0,0,0,3.34-15l.14,14.78,5.53-8.84a31.29,31.29,0,0,1,1.38,13.75l3.73-13.87,1.93,10.89a40.58,40.58,0,0,1,5.42-13.51,71.49,71.49,0,0,1,1.18,15.93l6.78-14a102.93,102.93,0,0,0,2.2,15.13,43.38,43.38,0,0,1,4.85-14.21,29.07,29.07,0,0,0,1.07,10.16,22.7,22.7,0,0,1,5.42-11.61l2.32,16.43a25.35,25.35,0,0,1,4.63-9.62,80.9,80.9,0,0,1,4.66,13.38A42.37,42.37,0,0,1,1186.6,86l4.29,30.18A137.56,137.56,0,0,1,1202.83,80l.56,17.88a21.69,21.69,0,0,1,3.83-14.24,14.36,14.36,0,0,0,4,9.61L1214,72a1.22,1.22,0,0,0,.44-1q1.15-10.44,2.32-20.88c.53-4.8,1.06-9.73-.07-14.43-2.63-11-13.84-18.12-25-19.79s-22.46,1-33.54,3.09q-17.64,3.39-35.56,5.16a12.44,12.44,0,0,0-5.71,1.49c-4,2.61-5.3,9.41-8.47,13.05-2.43,2.8-6.42,2-8.62,5.46C1093.83,53.74,1105.72,73.29,1102.08,79Z"/><path class="cls-2" d="M840.86,82.38a29.41,29.41,0,0,0,3.68-17.49,51.81,51.81,0,0,1-7.33,31.21l3.51-3.79.15,7.63a7.9,7.9,0,0,1,2.76-4l1.8,4.28A13.28,13.28,0,0,1,848,93.55l1.6,10.25,6-6.52,1.52,6.64,1.35-26.37c.25-4.82.08-10.52-3.91-13.24a7.38,7.38,0,0,0-10.4,2.91"/><path class="cls-2" d="M1428.9,74.76a7.23,7.23,0,0,1,2-6.14l1.63,8.95a14.19,14.19,0,0,0,3-4.89,26.89,26.89,0,0,1,3.66,17.82l6.07-11.31-1.14,13.6a13.07,13.07,0,0,0,3.55-6.51,39.69,39.69,0,0,1-1.26,13.85l9.12-16.67.35,7,8.76-18.81a2.57,2.57,0,0,1-.65,4.12l5.16-22.56c.66-2.87,1.32-5.85.79-8.75-.63-3.4-2.82-6.29-5-9-5.15-6.42-12.33-13.29-20.35-11.44C1424.28,28.76,1426.64,60.58,1428.9,74.76Z"/><path class="cls-2" d="M1639.37,61A63.49,63.49,0,0,1,1637,86.86L1642.9,78l.41,13.86a17.55,17.55,0,0,0,4.79-6.69L1646.57,94a14.71,14.71,0,0,1,4.9-6.29L1653,97.83a5.52,5.52,0,0,0,4.74-3.5l3.35,2.32q4.8-8.67,9.28-17.5c2-4,4.07-8.36,3.2-12.74-1.09-5.54-6.69-9.27-12.29-10s-11.2.81-16.63,2.37L1638,60.67"/><path class="cls-2" d="M1720.29,113a20.34,20.34,0,0,1,6.37-7.76l-2.75,10.54a8.9,8.9,0,0,0,5.93-4.45l.55,10.53a10.07,10.07,0,0,0,5.47-4.84,28.43,28.43,0,0,0,1.53,11.82,11.26,11.26,0,0,0,4.55-4,17,17,0,0,0,1.54,9.92,47.21,47.21,0,0,0,5.48-9.1l1,6.22c-1.21-2.35,2-5.05,4.52-4.31s4,3.42,4.63,6,.84,5.3,2.14,7.6a33.14,33.14,0,0,0,10.53-11.91l-4,16.75a37.4,37.4,0,0,0,8.87-12.6,12.09,12.09,0,0,1,1,8.19,38.89,38.89,0,0,0,13.56-34.65,21.22,21.22,0,0,0-3.84-10.23c-3.68-4.74-9.82-6.73-15.61-8.29a303.64,303.64,0,0,0-30.27-6.52C1726.69,79.43,1722.08,102,1720.29,113Z"/></g><g id="Capa_1" data-name="Capa 1"><path d="M690.54,55.06l-.1,1.88A2,2,0,0,0,690.54,55.06Z"/><path d="M1350.79,43.1a32,32,0,0,0-.2-3.25A13.11,13.11,0,0,0,1350.79,43.1Z"/><path d="M1626.51,38.12c-.07-.38-.15-.76-.22-1.14A1.82,1.82,0,0,0,1626.51,38.12Z"/><path d="M1954.63-23.62a119.45,119.45,0,0,1-25,54.71c-1.54,1.9-3.15,3.75-4.81,5.55l-2.37-6.07a65,65,0,0,0-5.88,24.71,23,23,0,0,0-12.19-16.91q-.92,15.09-1.84,30.18-.67-12.12-1.37-24.24a168,168,0,0,0-17.77,67.42A52.45,52.45,0,0,0,1876.38,89a56.14,56.14,0,0,0-9.66,35.08l-6.87-28.28q-.63,11.77-1.27,23.53-5.57-11.77-11.14-23.55-1,10.58-1.93,21.17a65.35,65.35,0,0,1-10-31.74l-3.75,17.41q-4-12.75-8-25.51a137.54,137.54,0,0,0-3.79,27.68l-9.19-25.27a48.9,48.9,0,0,0-7.18,21q-3.51-14.81-7-29.6-3.23,11.8-6.46,23.63-2.12-13.8-4.24-27.6-2.89,13.75-5.8,27.51-1.74-9.19-3.5-18.38a48.21,48.21,0,0,1-4.08,18.78q-2.34-8.61-4.66-17.21-1.76,5.69-3.5,11.37l-9.75-28.85a126.2,126.2,0,0,0-11.92,22.21q-1.59-17.91-3.16-35.84l-6.63,19q-2.31-11.72-4.61-23.43-3,17.16-6.08,34.32l-8.88-64.29a308.49,308.49,0,0,1-13.74,74.42,44.48,44.48,0,0,1-3.74-27q-2.81,9-5.6,17.94l-.81-24.53a35.8,35.8,0,0,0-6,16.35q-.18-10.77-.37-21.54a71.34,71.34,0,0,0-8.88,22.3q-1-12.55-1.94-25.1l-5.76,11.89-3.75-20.93-3.78,8.83q-.15-12.16-.29-24.33l-10.44,29c-1.89-11.12-10.73-27.94-3.4-37.26a19.62,19.62,0,0,1-2-1.34c-2.67,10.34-5.84,20.59-9,30.6-.08-2.46-.68-5.24-2.81-6.45-1.76-1-4.4.37-4.64,2.09q-1-5.34-2-10.68c-.54,3-1.09,6-1.63,9a20.42,20.42,0,0,0-3.74-15.59,33.17,33.17,0,0,0-21.47,21,52.2,52.2,0,0,1-11.91-19.38c-.47,2.52-1.36,5.51-3.83,6.17-1.46.4-2.68-1.09-2.91-2.41a41.6,41.6,0,0,0-5.67,14.42q-2.56-9.21-5.14-18.42-3.27,7.63-6.52,15.26-2.25-3.6-4.49-7.22a23.56,23.56,0,0,0-3.76,10.63q-1.73-9-3.46-18.08L1543.41,35c-.34-2.58-.67-5.15-1-7.73a397.32,397.32,0,0,0-23.61,65.52,334.75,334.75,0,0,0-.49-66.24l-4.65,12.85q-2-5.1-4-10.19-2.81,10.22-5.6,20.44-3.52-9.34-7.06-18.7-3.19,10.55-6.38,21.09-2.94-9.07-5.87-18.16l-.57,9.24-5.82-17.65A56.32,56.32,0,0,0,1469,50.53l-10.86-20a62.31,62.31,0,0,0-4.17,9.9,61.42,61.42,0,0,0-1.89,7.32c-.25-2.55-.51-5.09-.77-7.64-.35-3.6-.72-7.21-1.08-10.82a21.68,21.68,0,0,0-1.53,10.07q-2.74-11.64-5.5-23.27a66.2,66.2,0,0,0-26.31,38.29q-3.71-13.32-7.43-26.63a67.38,67.38,0,0,0-10.29,16.59q-.32-11.22-.61-22.44-5.36,9.74-10.7,19.47c.6-3.61,1.1-7.66-1.08-10.59s-8.08-2.59-8.42,1c-.79-5.76-1.54-11.53-2.64-17.2-2.56,6.5-4.43,13.3-6.8,19.9-1.49-2.93-3.29-6.06-5.11-9.31a175.74,175.74,0,0,1-5.4,22.15q-2.57-7.54-5.12-15.09a13.82,13.82,0,0,0-2.74,7.57,32.87,32.87,0,0,0-9.67-19.74,125.76,125.76,0,0,1-20.69,17.78A28.38,28.38,0,0,0,1314.7,19a134.39,134.39,0,0,0-31,26.58,24.07,24.07,0,0,1-10.22-15.24q-1.92,11.31-3.85,22.63a45.38,45.38,0,0,1-10.73-15,38.93,38.93,0,0,0-1.65,14.43,73.88,73.88,0,0,1-11.17-21.81A54.49,54.49,0,0,0,1243.3,51l-5-11.25q-3.27,10-6.53,20.07c-1.26,3.84-2.5,7.67-3.75,11.5q-2.1-9.15-4.18-18.32-1.35-5.93-2.71-11.85c-.63,3.19-1.27,6.38-1.9,9.56-.34,1.7-.67,3.39-1,5.09-.27-1.95-.61-3.88-1-5.81a81.93,81.93,0,0,0-7.49-20.92c-2.13,3.73-4.13,7.55-6,11.44q-2.28,4.77-4.26,9.69a173.33,173.33,0,0,0-6.89,20.75q-2.08-7.47-4.15-14.94c-.75-2.71-1.51-5.42-2.26-8.14q-2.67,7.88-5.32,15.74l-.58,1.71c-.06-.22-.13-.44-.19-.66Q1177,54,1174,43.4q-2.6,13.34-5.19,26.67c0,.3-.11.6-.17.9-.06-.2-.11-.4-.16-.6A129.27,129.27,0,0,1,1164,41.71a88,88,0,0,0-7.1,23.12q-2-9.91-3.89-19.84l-4.35,21.32q-1.68-10.05-3.38-20.09a64.18,64.18,0,0,0-6.09,27.63q-2.36-20.65-4.71-41.31c0-.1,0-.21,0-.31,0,.14-.09.27-.13.41q-5.77,17.8-11.53,35.62a2.58,2.58,0,0,0-.32-.18c-4-2.18-9.86.2-11.11,4.64l-4-9-2.86-6.4c-1.22,2.51-2.43,5-3.64,7.54q-.12-3.24-.51-6.47A80.47,80.47,0,0,0,1097,43.18a38.2,38.2,0,0,0-4.22,13.74q-1.76-7.66-3.5-15.33-2.15,6.87-4.3,13.74-1.74-13.5-3.47-27a78.72,78.72,0,0,0-9,28.54l-.78-48.18q-9.53,24.11-19.06,48.2-1.59-4.45-3.19-8.92l-3,11.91-.66-11.63-5.89,13.23-.3-16.41a.75.75,0,0,1-.15,0c-2.34-.36-3.49-3.73-4.23-7.89-3.38,9.66-7.4,19.16-11.4,28.53a98.89,98.89,0,0,0-7.26-37.13q-2.7,9.77-5.41,19.52a17.91,17.91,0,0,0-9.35-15.9q-1.65,4.66-3.29,9.31L995,33.8a37.12,37.12,0,0,0-5,14q.11-4.12.2-8.25L969.88,89.61a149.57,149.57,0,0,0-15.53-59.49L941.83,47.73l-3.24-7.25A19.46,19.46,0,0,1,934.16,49l-2.29-6.75c-.37,1.35-1.88,2.68-3.36,2.2-2.3-.74-3-3.82-2.24-6.11q-2.89,6.38-5.78,12.75-1.5-5.65-3-11.31L914,52.62l-.72-18.72L893.35,76.82A161.93,161.93,0,0,0,882.21,12,254.59,254.59,0,0,1,873,53.91q-1.46-8.69-2.93-17.37a43.17,43.17,0,0,0-2.44,19.31Q863.7,38,859.79,20.18a98.15,98.15,0,0,0-3.22,33.51l-6-6.9c-1.61,2.37-3.22,4.73-4.82,7.1a31,31,0,0,1-6.28-12l-6.88,9.14q-1.47-5.39-3-10.77L827,50.44l-2.62-10.21a36.4,36.4,0,0,0-5.3,15.36c0-3.08,0-6.16,0-9.24q-7.85,13.08-15.71,26.15a126.6,126.6,0,0,0-5.52-53.9q-2.19,10.62-4.37,21.24-.87-5.37-1.72-10.74-2.4,8.55-4.81,17.12-.92-4.39-1.81-8.77c-2.29,2.2-6.34.76-8-2A50,50,0,0,1,762.8,69c-1.66-13.07-5.71-25.72-8.16-38.64-.54,1.85-1.1,3.69-1.67,5.49Q749.5,47,746,58.11c-.55-5.23-1.1-10.44-1.66-15.67a2.63,2.63,0,0,1-2,2.64c-6.71,1,4.38-16.71-2.34-15.83L735,45l-.6-33.42a142.78,142.78,0,0,0-4.94,58.2c-.86-2.6-1.73-5.2-2.59-7.8a67.11,67.11,0,0,1-12.25-30.76q-2.11,10.6-4.24,21.21-2.08-9.41-4.16-18.82l-.66,8a50.59,50.59,0,0,1-12.74-27.86q-1.14,20.68-2.29,41.38c-.77-1.66-3.64-2.73-5.39-1.46-2.35,1.72-2.64,5.06-2.72,8a19.17,19.17,0,0,1-1.86-7.32A40.62,40.62,0,0,1,677.75,65a54.42,54.42,0,0,1-6.12-32.61,402.11,402.11,0,0,0-15.22,52.81,16.28,16.28,0,0,1-3.8-11,10.36,10.36,0,0,0-5,6.24,48.56,48.56,0,0,1-6.11-18.81q-2.73,5.48-5.45,10.94l-5.33-15.33-4.78,12.27Q624.47,57.91,623,46.35a55.38,55.38,0,0,0-7.44,21.48q-.26-30.15-.52-60.28a287.23,287.23,0,0,0-17.62,81.77A211.43,211.43,0,0,1,580.94,54l-5.85,5.54q-1.62-6.51-3.26-13L561.69,59.38c.1-3.44.09-7.25-2.16-9.86s-7.58-2.4-8.28,1l-4.41-21.25q-5.72,12.57-11.42,25.12a115.8,115.8,0,0,1-2.2-35.66L516.87,63.64q-1.53-8.64-3-17.28a28.33,28.33,0,0,0-6.7,10.77q-2-7.69-3.92-15.4a31.56,31.56,0,0,0-5.72,10.45l-6.18-17c.6,1.66-5.41,8.72-6.23,9.75-2.14-5.17-4-10.64-5.91-15.86C471,44.8,463,42.7,457.87,33.27a23.09,23.09,0,0,1-5.34-4.3l-2,10.81a50.41,50.41,0,0,0-11.44-16.59,190,190,0,0,0-5.69,28.05Q429.8,45.6,426.17,40L422.78,60.5a61,61,0,0,0-3.2-19,67.37,67.37,0,0,0-19.69,34.65q-1-9.54-1.94-19.07-5.86,21.32-11.72,42.62a378.34,378.34,0,0,0-15-73.91A248.89,248.89,0,0,1,351.76,74.7l-6.48-16a25.05,25.05,0,0,1-9.66,16.22q-2.64-9.37-5.27-18.76-4.12,9.27-8.24,18.55-1.47-16-2.93-32a194.06,194.06,0,0,0-10,29q-.89-12.63-1.78-25.25a35.82,35.82,0,0,0-7.06,16,94.9,94.9,0,0,1-2.19-25.54,102.89,102.89,0,0,0-10.61,29.62Q285.83,49.22,284.15,32A182.3,182.3,0,0,0,270.38,69.3q-1.31-18.48-2.62-37a64.41,64.41,0,0,0-12.91,26.18,42.79,42.79,0,0,0-6-19.36l-9.09,14.92L235.9,34.47q-4,13.34-8,26.66-.88-9.83-1.76-19.66a207,207,0,0,0-22.12,50q-.48-30.53-1-61-7,16.32-14,32.62c-2.93-3.33-9.67.24-8.55,4.53q-1.84-5.92-3.68-11.86-2.81,5.19-5.6,10.38c0-2.74-.07-5.48-.11-8.21L159,74.3c5.9-8,2.08-24.91-1.16-41a139.12,139.12,0,0,1-14.82,41,31.64,31.64,0,0,0-7.84-13.38A34,34,0,0,0,125.63,68q-2.2-5.77-4.43-11.54-2.25,3.42-4.52,6.84a15.31,15.31,0,0,0-4.82-6.83,14.49,14.49,0,0,0-1.43,8.14q-1.89-7.71-3.79-15.41A72.58,72.58,0,0,1,87.92,75.69,87.86,87.86,0,0,0,66.33,12.8a63.44,63.44,0,0,0-5.68,33.33L50.2,36.76,46.9,54.22a16.14,16.14,0,0,1-4.55-7.82,66.82,66.82,0,0,0-5,25A89.33,89.33,0,0,0,10.69,17.53a67.6,67.6,0,0,1,1.47,22.1A8.93,8.93,0,0,1,9.21,34.3a43.5,43.5,0,0,1-.81,15q-1.64-7.53-3.29-15L.94,66C.39,52.19-7.21,39.83-13.34,27.43-27.77-1.72-22.52-14.84,5.32-27.13A440.13,440.13,0,0,1,84.2-53.39c16.93-3.9,35.73-6.54,50.81,2.07,14.19,8.09,21.34,24.11,24,40.59,5.27-18.31,13.41-36.34,26.16-50.13,17.19-18.61,41.8-28.36,66-35.78,18.66-5.72,37.8-10.45,57.3-11,46.66-1.45,90.85,20.7,129.45,47,5.08,3.46,10.2,7.1,13.76,12.12,4.22,6,5.84,13.33,7.26,20.5q1.51,7.72,2.87,15.48C469-20.28,479.91-25.35,492.11-29c39.85-12,80.42-22.87,122-25.34s84.49,3.91,120.67,24.47c7.49,4.26,14.87,9.33,19.33,16.69a31.8,31.8,0,0,1,2.38,4.83c5.15-16,15.83-30.26,32.17-33.77,12.45-2.68,25.38-.56,38.11-1,22.52-.71,43.93-9.25,65.58-15.49a327.57,327.57,0,0,1,84.9-12.73c10.13-.17,20.48.17,30,3.68,23.65,8.76,36.48,35.74,36.52,61,0,.76,0,1.52,0,2.28.59-.39,1.18-.76,1.75-1.11,54-33.38,113-68,176.28-63,27.26,2.16,53.33,11.67,78.87,21.4,16.63,6.33,33.59,13,46.88,24.86A60.23,60.23,0,0,1,1357-11.57c6.52-13.55,24.5-25,36.62-30.8,4.07-1.93,8.31-3.58,12-6.2,3.39-2.42,6.17-5.59,9.09-8.58,25.31-25.88,61.89-38.29,98-41.14s72.23,3,108,8.76c5.11.83,10.42,1.75,14.62,4.78,4.7,3.39,7.31,9,9.18,14.44a103,103,0,0,1,5.26,32.55q1.36-1.58,2.73-3.12l44.74-50.73c3.84-4.35,7.83-8.82,13.09-11.26,8.22-3.81,17.79-2,26.75-.65a210.9,210.9,0,0,0,76.61-2.73c32.21-7.15,65.88-21.84,96.8-10.29C1945.3-103.52,1961-60.29,1954.63-23.62Z"/></g></svg>