<svg id="Capa_1" data-name="Capa 1" xmlns="http://www.w3.org/2000/svg" viewBox="0 0 237.32 282.77"><title>Photoshop</title><polygon points="57.05 263.59 46.97 270.91 50.81 282.77 40.73 275.44 30.69 282.77 34.53 270.91 24.45 263.59 36.89 263.59 40.73 251.73 44.61 263.59 57.05 263.59"/><polygon points="124.93 270.91 128.77 282.77 118.69 275.44 108.6 282.77 112.44 270.91 102.36 263.59 114.85 263.59 118.69 251.73 122.52 263.59 134.97 263.59 124.93 270.91"/><polygon points="96.01 263.59 85.93 270.91 89.81 282.77 79.73 275.44 69.65 282.77 73.48 270.91 63.4 263.59 75.84 263.59 79.73 251.73 83.57 263.59 96.01 263.59"/><path id="Photoshop" d="M116.38,61.2c-9.74,0-19.18.19-25.53.44-.78,0-2.16.49-2.16,1.23V169.06c0,.88.39,1.18,1.18,1.18H105c.88,0,1.18-.39,1.18-1.18v-38c2.66,0,3.94.19,7.72.19,22.33,0,40.53-10.77,40.53-35.9C154.45,76.2,143.78,61.2,116.38,61.2Zm-2.06,54.35c-3.94,0-5.71,0-8-.2l0-38.17c1.82-.1,5.56-.29,9.49-.29,13.18,0,21,6.29,21,18.88C136.79,111.51,125.87,115.55,114.32,115.55Zm78.89,6.73c-10.53-5.41-12.3-7.87-12.3-11.46,0-3.24,2.66-7.23,10.48-7.23,6.39,0,12.84,1.68,17.21,4.43,1,.3,1.48-.2,1.48-1V93.46a2.15,2.15,0,0,0-1-2c-3.25-1.47-9.2-2.75-17.71-2.75-17.31,0-27.3,10.57-27.3,23.31,0,11.41,5.85,18.25,19.87,24.94,10,5.21,12.25,8.31,12.25,11.9,0,4.43-3.25,7.73-11.07,7.73a37,37,0,0,1-19.87-5.86c-.74-.49-1.18-.19-1.18.79v14.61c0,.74.1,1.28.79,1.57,4.23,2.46,11.66,4.23,20.26,4.23,16.33,0,28.38-8.51,28.38-24.35C213.52,137,208.7,129.81,193.21,122.28ZM31.34,8.62V240.08H268.66V8.62ZM258.82,230.2H41.23V18.5H258.82Zm-93.94-62.47c4.23,2.46,11.66,4.23,20.26,4.23,16.33,0,28.38-8.51,28.38-24.35,0-10.57-4.82-17.8-20.31-25.33-10.53-5.41-12.3-7.87-12.3-11.46,0-3.24,2.66-7.23,10.48-7.23,6.39,0,12.84,1.68,17.21,4.43,1,.3,1.48-.2,1.48-1V93.46a2.15,2.15,0,0,0-1-2c-3.25-1.47-9.2-2.75-17.71-2.75-17.31,0-27.3,10.57-27.3,23.31,0,11.41,5.85,18.25,19.87,24.94,10,5.21,12.25,8.31,12.25,11.9,0,4.43-3.25,7.73-11.07,7.73a37,37,0,0,1-19.87-5.86c-.74-.49-1.18-.19-1.18.79v14.61C164.09,166.9,164.19,167.44,164.88,167.73Zm-75,2.51H105c.88,0,1.18-.39,1.18-1.18v-38c2.66,0,3.94.19,7.72.19,22.33,0,40.53-10.77,40.53-35.9,0-19.18-10.67-34.18-38.07-34.18-9.74,0-19.18.19-25.53.44-.78,0-2.16.49-2.16,1.23V169.06C88.69,169.94,89.08,170.24,89.87,170.24Zm25.92-93.35c13.18,0,21,6.29,21,18.88,0,15.74-10.92,19.78-22.47,19.78-3.94,0-5.71,0-8-.2l0-38.17C108.12,77.08,111.86,76.89,115.79,76.89Zm77.42,45.39c-10.53-5.41-12.3-7.87-12.3-11.46,0-3.24,2.66-7.23,10.48-7.23,6.39,0,12.84,1.68,17.21,4.43,1,.3,1.48-.2,1.48-1V93.46a2.15,2.15,0,0,0-1-2c-3.25-1.47-9.2-2.75-17.71-2.75-17.31,0-27.3,10.57-27.3,23.31,0,11.41,5.85,18.25,19.87,24.94,10,5.21,12.25,8.31,12.25,11.9,0,4.43-3.25,7.73-11.07,7.73a37,37,0,0,1-19.87-5.86c-.74-.49-1.18-.19-1.18.79v14.61c0,.74.1,1.28.79,1.57,4.23,2.46,11.66,4.23,20.26,4.23,16.33,0,28.38-8.51,28.38-24.35C213.52,137,208.7,129.81,193.21,122.28ZM116.38,61.2c-9.74,0-19.18.19-25.53.44-.78,0-2.16.49-2.16,1.23V169.06c0,.88.39,1.18,1.18,1.18H105c.88,0,1.18-.39,1.18-1.18v-38c2.66,0,3.94.19,7.72.19,22.33,0,40.53-10.77,40.53-35.9C154.45,76.2,143.78,61.2,116.38,61.2Zm-2.06,54.35c-3.94,0-5.71,0-8-.2l0-38.17c1.82-.1,5.56-.29,9.49-.29,13.18,0,21,6.29,21,18.88C136.79,111.51,125.87,115.55,114.32,115.55Z" transform="translate(-31.34 -8.62)"/></svg>