<svg id="Capa_1" data-name="Capa 1" xmlns="http://www.w3.org/2000/svg" viewBox="0 0 237.49 282.77"><title>Premiere</title><polygon points="96.01 263.63 85.97 270.91 89.81 282.77 79.72 275.44 69.63 282.77 73.47 270.91 63.43 263.63 75.88 263.63 79.72 251.76 83.56 263.63 96.01 263.63"/><polygon points="57.04 263.63 47 270.91 50.84 282.77 40.75 275.44 30.66 282.77 34.55 270.91 24.46 263.63 36.91 263.63 40.75 251.76 44.59 263.63 57.04 263.63"/><polygon points="124.9 270.91 128.79 282.77 118.7 275.44 108.61 282.77 112.45 270.91 102.41 263.63 114.86 263.63 118.7 251.76 122.54 263.63 134.99 263.63 124.9 270.91"/><path d="M119.34,61.17c-9.79,0-19.09.2-25.44.5-.79,0-1,.49-1,1.18h-.1V169.24c0,.89.39,1.18,1.18,1.18h15.25c.89,0,1.18-.39,1.18-1.18v-38c2.66,0,3.94.2,7.73.2,22.34,0,40.55-10.78,40.55-35.93C158.71,76.23,146.75,61.17,119.34,61.17Zm-.88,54.43c-4,0-5.76,0-8-.2V77.22c1.78-.1,5.52-.3,9.5-.3,13.24,0,21,6.35,21,18.9C140.9,111.57,130,115.6,118.46,115.6Zm91.82-26.92a102.84,102.84,0,0,0-36.22,6.84c-.68.3-.78.5-.78,1.28.49,5.56.49,8.42.49,9.6v62.94c0,.89.39,1.18,1.18,1.18H190.5c.89,0,1.18-.39,1.18-1.18V107c3.45-1.48,12.45-2.26,18.7-2,.79,0,1.08-.2,1.08-1V89.67C211.46,88.88,211.07,88.68,210.28,88.68ZM119.34,61.17c-9.79,0-19.09.2-25.44.5-.79,0-1,.49-1,1.18h-.1V169.24c0,.89.39,1.18,1.18,1.18h15.25c.89,0,1.18-.39,1.18-1.18v-38c2.66,0,3.94.2,7.73.2,22.34,0,40.55-10.78,40.55-35.93C158.71,76.23,146.75,61.17,119.34,61.17Zm-.88,54.43c-4,0-5.76,0-8-.2V77.22c1.78-.1,5.52-.3,9.5-.3,13.24,0,21,6.35,21,18.9C140.9,111.57,130,115.6,118.46,115.6Zm91.82-26.92a102.84,102.84,0,0,0-36.22,6.84c-.68.3-.78.5-.78,1.28.49,5.56.49,8.42.49,9.6v62.94c0,.89.39,1.18,1.18,1.18H190.5c.89,0,1.18-.39,1.18-1.18V107c3.45-1.48,12.45-2.26,18.7-2,.79,0,1.08-.2,1.08-1V89.67C211.46,88.88,211.07,88.68,210.28,88.68Zm0,0a102.84,102.84,0,0,0-36.22,6.84c-.68.3-.78.5-.78,1.28.49,5.56.49,8.42.49,9.6v62.94c0,.89.39,1.18,1.18,1.18H190.5c.89,0,1.18-.39,1.18-1.18V107c3.45-1.48,12.45-2.26,18.7-2,.79,0,1.08-.2,1.08-1V89.67C211.46,88.88,211.07,88.68,210.28,88.68ZM119.34,61.17c-9.79,0-19.09.2-25.44.5-.79,0-1,.49-1,1.18h-.1V169.24c0,.89.39,1.18,1.18,1.18h15.25c.89,0,1.18-.39,1.18-1.18v-38c2.66,0,3.94.2,7.73.2,22.34,0,40.55-10.78,40.55-35.93C158.71,76.23,146.75,61.17,119.34,61.17Zm-.88,54.43c-4,0-5.76,0-8-.2V77.22c1.78-.1,5.52-.3,9.5-.3,13.24,0,21,6.35,21,18.9C140.9,111.57,130,115.6,118.46,115.6ZM31.25,8.62V240.2h237.5V8.62ZM258.86,230.31H41.14V18.51H258.86Zm-85.09-61c0,.89.39,1.18,1.18,1.18H190.5c.89,0,1.18-.39,1.18-1.18V107c3.45-1.48,12.45-2.26,18.7-2,.79,0,1.08-.2,1.08-1V89.67c0-.79-.39-1-1.18-1a102.84,102.84,0,0,0-36.22,6.84c-.68.3-.78.5-.78,1.28.49,5.56.49,8.42.49,9.6ZM94,170.42h15.25c.89,0,1.18-.39,1.18-1.18v-38c2.66,0,3.94.2,7.73.2,22.34,0,40.55-10.78,40.55-35.93,0-19.29-12-34.35-39.37-34.35-9.79,0-19.09.2-25.44.5-.79,0-1,.49-1,1.18h-.1V169.24C92.82,170.13,93.21,170.42,94,170.42Zm16.43-93.2c1.78-.1,5.52-.3,9.5-.3,13.24,0,21,6.35,21,18.9,0,15.75-10.88,19.78-22.44,19.78-4,0-5.76,0-8-.2Zm99.85,11.46a102.84,102.84,0,0,0-36.22,6.84c-.68.3-.78.5-.78,1.28.49,5.56.49,8.42.49,9.6v62.94c0,.89.39,1.18,1.18,1.18H190.5c.89,0,1.18-.39,1.18-1.18V107c3.45-1.48,12.45-2.26,18.7-2,.79,0,1.08-.2,1.08-1V89.67C211.46,88.88,211.07,88.68,210.28,88.68ZM119.34,61.17c-9.79,0-19.09.2-25.44.5-.79,0-1,.49-1,1.18h-.1V169.24c0,.89.39,1.18,1.18,1.18h15.25c.89,0,1.18-.39,1.18-1.18v-38c2.66,0,3.94.2,7.73.2,22.34,0,40.55-10.78,40.55-35.93C158.71,76.23,146.75,61.17,119.34,61.17Zm-.88,54.43c-4,0-5.76,0-8-.2V77.22c1.78-.1,5.52-.3,9.5-.3,13.24,0,21,6.35,21,18.9C140.9,111.57,130,115.6,118.46,115.6Z" transform="translate(-31.25 -8.62)"/></svg>