<svg id="Capa_1" data-name="Capa 1" xmlns="http://www.w3.org/2000/svg" viewBox="0 0 260.43 282.77"><title>Sass</title><polygon points="172.98 248.76 172.98 274.78 161.91 282.77 166.13 269.81 155.07 261.77 168.76 261.77 172.98 248.76"/><polygon points="148.1 261.77 137.03 269.81 141.26 282.77 130.19 274.78 119.17 282.77 123.4 269.81 112.33 261.77 125.97 261.77 130.19 248.76 134.47 261.77 148.1 261.77"/><polygon points="105.37 261.77 94.3 269.81 98.52 282.77 87.45 274.78 76.44 282.77 80.66 269.81 69.59 261.77 83.23 261.77 87.45 248.76 91.67 261.77 105.37 261.77"/><polygon points="62.57 261.77 51.56 269.81 55.78 282.77 44.71 274.78 33.64 282.77 37.86 269.81 26.85 261.77 40.49 261.77 44.71 248.76 48.93 261.77 62.57 261.77"/><g id="sass"><path d="M244,120.89a53.71,53.71,0,0,0-23.57,5.47c-2.45-4.79-4.85-9.13-5.3-12.26-.46-3.66-1-5.88-.46-10.27s3.08-10.45,3.08-11.07c-.06-.46-.57-2.69-5.76-2.74s-9.76,1-10.27,2.34a56.31,56.31,0,0,0-2.23,7.76c-.91,4.79-10.44,21.74-15.92,30.64-1.77-3.48-3.31-6.51-3.59-8.9-.52-3.71-1.09-5.94-.52-10.33s3.08-10.44,3.08-11.07c0-.46-.57-2.68-5.76-2.74s-9.76,1-10.27,2.4-1.14,4.56-2.23,7.7-13.75,31.5-17.11,38.86c-1.72,3.76-3.2,6.73-4.23,8.79l-.17.39-1.42,2.69v0c-.75,1.26-1.49,2.46-1.89,2.46s-.8-3.43.12-8.05c1.88-9.87,6.39-25.16,6.39-25.73,0-.29.85-2.91-3-4.28s-5.08.85-5.36.85-.34.23-.46.46c.51-2.74,2.85-16.83-8-16.83-7.48,0-17.86,8.21-23,15.63-3.25,1.77-10.16,5.54-17.52,9.59-2.79,1.54-5.7,3.14-8.44,4.56a6.13,6.13,0,0,0-.57-.57C65.07,121.11,38.19,110.1,39.33,89.22c.4-7.59,3-27.56,51.7-51.81,40.06-19.75,71.9-14.27,77.43-2.17C176.33,52.58,151.4,84.71,110,89.39c-15.75,1.77-24.08-4.34-26.13-6.62-2.23-2.4-2.51-2.51-3.37-2-1.31.74-.45,2.85,0,4.1,1.26,3.26,6.34,9,15,11.76,7.65,2.45,26.14,3.82,48.5-4.8C169,82.08,188.6,55.09,182.84,32.5,177.13,9.56,139.07,2,103.07,14.81,81.61,22.4,58.45,34.38,41.73,50,21.87,68.56,18.73,84.65,20,91.44c4.63,24,37.67,39.55,50.9,51.13-.68.4-1.31.68-1.82,1C62.5,146.85,37.28,160,31,174c-7.13,15.81,1.14,27.11,6.62,28.65,17,4.73,34.46-3.77,43.82-17.75s8.22-32.12,3.88-40.45a.31.31,0,0,0-.17-.29c1.71-1,3.48-2.05,5.19-3.08,3.37-2,6.74-3.82,9.59-5.37A61.62,61.62,0,0,0,96.51,153c-.69,8.9,3,20.54,7.76,25.11a8.61,8.61,0,0,0,6.27,2c5.65,0,8.16-4.68,11-10.21,3.14-6.16,5.93-13.24,6.45-14.44-.29,2-3.2,21.06,6.67,21.06,3.83,0,7.65-5,9.36-7.48a1.33,1.33,0,0,0,.29-.4c.4-.62.62-1,.62-1v-.12c1.54-2.62,5-8.67,10.05-18.71,6.56-13,12.89-29.11,12.89-29.11a83.34,83.34,0,0,0,2.51,10.5c1.14,3.88,3.54,8.11,5.42,12.16-1.48,2.17-2.45,3.36-2.45,3.36l.06.06c-1.26,1.6-2.57,3.37-4.05,5.08-5.2,6.16-11.36,13.24-12.21,15.29-1,2.46-.8,4.22,1.14,5.65,1.37,1,3.82,1.14,6.33,1a30.94,30.94,0,0,0,9.59-2.17,31.68,31.68,0,0,0,8.21-4.34,18.42,18.42,0,0,0,7.88-16.2,32.6,32.6,0,0,0-3-11.47c.46-.69.91-1.37,1.37-2A215.65,215.65,0,0,0,202.93,112a83.34,83.34,0,0,0,2.51,10.5c1,3.31,2.91,7,4.62,10.44-7.53,6.17-12.21,13.3-13.87,18-3,8.61-.68,12.55,3.77,13.46,2,.4,4.85-.57,6.9-1.42a31.34,31.34,0,0,0,8.85-4.57c5.07-3.71,10-9,9.7-16a30.85,30.85,0,0,0-2.23-9.53c6.45-2.68,14.72-4.17,25.28-2.91,22.65,2.68,27.1,16.77,26.25,22.77s-5.59,9.13-7.19,10.15-2.06,1.32-1.94,2.06c.17,1,1,1,2.28.8,1.88-.35,11.87-4.8,12.33-15.75C280.93,136,267.57,120.71,244,120.89ZM69.35,179.77c-7.48,8.16-18,11.24-22.49,8.68-4.85-2.86-3-14.9,6.28-23.57A118.88,118.88,0,0,1,70.77,151.7c1.14-.69,2.74-1.6,4.68-2.8.34-.17.51-.28.51-.28a9,9,0,0,0,1.15-.74C80.47,160.26,77.28,171.16,69.35,179.77Zm54.72-37.2c-2.63,6.39-8.11,22.71-11.42,21.8-2.85-.8-4.62-13.13-.57-25.4,2.06-6.1,6.39-13.4,8.91-16.26,4.1-4.62,8.61-6.1,9.7-4.28C132.06,120.89,125.66,138.57,124.07,142.57ZM179.42,150c0,7.3-7.08,12.15-10.22,14.15-1.08.57-2.11,1-2.62.68-.35-.17.51-1,.51-1s5.65-6,7.88-8.84q2-2.4,4.45-5.65ZM204,156.21c-.8-.57-.63-2.46,2.05-8.39a32,32,0,0,1,7.76-10,13.49,13.49,0,0,1,.75,4.34C214.57,151.36,208,154.78,204,156.21Z" transform="translate(-19.79 -8.62)"/></g></svg>