<svg id="Capa_1" data-name="Capa 1" xmlns="http://www.w3.org/2000/svg" viewBox="0 0 1569.36 792.03"><defs><style>.cls-1{font-size:239.53px;font-family:FelixTitlingMT, Felix Titling;}.cls-1,.cls-4{fill:none;stroke:#1d1c1b;stroke-miterlimit:10;stroke-width:3.93px;}.cls-2{letter-spacing:-0.14em;}.cls-3{letter-spacing:-0.14em;}</style></defs><title>UROBOROS</title><g id="rroboros"><text class="cls-1" transform="translate(276.62 489) scale(0.85 1)">u<tspan class="cls-2" x="179.65" y="0">r</tspan><tspan x="336.26" y="0">obo</tspan><tspan class="cls-3" x="865.38" y="0">r</tspan><tspan x="1021.99" y="0">os</tspan></text><path class="cls-4" d="M937.58,429.21c-44.4-118-154-201.48-282.13-201.48-180.78,0-346.38,148.46-346.38,311.92l-1.47,6.6-1-6.6c0-31.37,1.59-45,6-70.73,32-187.29,153-322.92,341.77-322.92C826.81,146,972.71,264.72,1021,428.1" transform="translate(-179.54 -144.03)"/><path class="cls-4" d="M1024.3,432.69c46.22-158.85,186.89-274.39,353.27-274.39,204,0,369.36,173.67,369.36,387.9s-165.36,387.9-369.36,387.9c-165.73,0-306-114.64-352.74-272.54" transform="translate(-179.54 -144.03)"/><path class="cls-4" d="M1105,432.41c43-114.16,148.82-194.89,272.53-194.89,161.88,0,293.11,138.2,293.11,308.68s-131.23,308.69-293.11,308.69c-125,0-231.8-82.48-273.89-198.59" transform="translate(-179.54 -144.03)"/><path class="cls-4" d="M214.37,518.49s-18.09,38.25,15.28,71.93c0,0,1.95-12.26-.48-21.49S242.78,554.71,214.37,518.49Z" transform="translate(-179.54 -144.03)"/><path class="cls-4" d="M353.77,489.17" transform="translate(-179.54 -144.03)"/><path class="cls-4" d="M415.78,701.32" transform="translate(-179.54 -144.03)"/><path class="cls-4" d="M941.71,656.83C899.48,772.67,792.86,854.89,668,854.89c-114,0-213.1-66.3-261.54-166.46l-.87-2.4c-20.39-41.69-37.91-140.28-12.16-159.81,27.72-21,6.4-64.59,6.4-64.59,7.7-7.41,6.14-17.91,6.14-17.91s-3.11,14.28-13.22,3.57-20.12-11.38-20.12-11.38c-32.62-1.69-36.08,19.36-36.08,19.36s14.16-7.79,26.3-1.63,1.76,13,1.76,13c-22.41-2.7-23.49,14.51-23.49,14.51,18.35-3.51,28.87,4.58,30.67,11s-18.25,133.44-72.08,95.49S244.41,466,244.41,466s11.8-16.32,34,4.2c0,0-8-30.58-38.16-30.66,0,0-24.77-58.38-30.48,52.47,0,0-72.41,24.65,14.44,145.1S248.84,758,246.93,765.47s79.36-6.42,56.34-86.47c0,0,57.84,60,0,119.16,0,0,66.84-.06,66.23-53.17l.82,1.68c20.37,42,53.2,81.05,89.84,108.22C520.27,899.49,588.77,934.1,668,934.1c165.51,0,305.61-114.33,352.56-271.89" transform="translate(-179.54 -144.03)"/></g></svg>